<svg width="100" height="100" viewBox="0 0 100 100" fill="none" xmlns="http://www.w3.org/2000/svg">
<path d="M13.2191 62.6991C13.0191 62.6991 12.8191 62.6591 12.6391 62.5591L1.71906 56.8191C1.29906 56.5991 1.03906 56.1791 1.03906 55.6991V43.5591C1.03906 43.1191 1.27906 42.6991 1.65906 42.4791C2.03906 42.2591 2.49906 42.2391 2.89906 42.4391L13.7991 48.1791C14.2191 48.3991 14.4791 48.8191 14.4791 49.2991V52.4991C14.4791 53.1991 13.9191 53.7591 13.2191 53.7591C12.5191 53.7591 11.9591 53.1991 11.9591 52.4991V50.0591L3.57906 45.6391V54.9191L11.9591 59.3391V57.4991C11.9591 56.7991 12.5191 56.2391 13.2191 56.2391C13.9191 56.2391 14.4791 56.7991 14.4791 57.4991V61.4391C14.4791 61.8791 14.2391 62.2991 13.8591 62.5191C13.6591 62.6391 13.4391 62.6991 13.2191 62.6991Z" fill="url(#paint0_linear_1452_1372)"/>
<path d="M17.4006 62.7007C16.7006 62.7007 16.1406 62.1407 16.1406 61.4407V57.4207C16.1406 57.4007 16.1406 57.3807 16.1406 57.3607V49.5007C16.1406 49.0207 16.4006 48.5807 16.8406 48.3807L27.3806 43.1207C27.7606 42.9207 28.2406 42.9407 28.6006 43.1807C28.9806 43.4007 29.2006 43.8207 29.2006 44.2407L29.2406 52.4607C29.2406 52.9607 28.9606 53.4007 28.5206 53.6207L18.6606 58.2207V61.4607C18.6606 62.1407 18.1006 62.7007 17.4006 62.7007ZM18.6606 50.3007V55.4207L26.7206 51.6607L26.7006 46.2807L18.6606 50.3007Z" fill="url(#paint1_linear_1452_1372)"/>
<path d="M14.8786 47.0398C14.6786 47.0398 14.4786 46.9998 14.2786 46.8798L3.09858 40.8798C2.67858 40.6598 2.41858 40.1998 2.43858 39.7398C2.45858 39.2798 2.73858 38.8398 3.17858 38.6398L14.5586 33.3598C14.8986 33.1998 15.2986 33.1998 15.6386 33.3798L27.1786 39.0398C27.5986 39.2398 27.8786 39.6798 27.8786 40.1598C27.8786 40.6398 27.6186 41.0798 27.1986 41.2998L22.6586 43.6398C22.0386 43.9598 21.2786 43.7198 20.9586 43.0998C20.6386 42.4798 20.8786 41.7198 21.4986 41.3998L23.8186 40.1998L15.0786 35.8998L6.51858 39.8598L14.9186 44.3598L17.9386 42.9198C18.5586 42.6198 19.3186 42.8998 19.6186 43.5198C19.9186 44.1398 19.6386 44.8998 19.0186 45.1998L15.4186 46.8998C15.2386 46.9998 15.0586 47.0398 14.8786 47.0398Z" fill="url(#paint2_linear_1452_1372)"/>
<path d="M34.6406 42.6202C34.6406 38.5202 37.7406 35.7402 41.7406 35.7402C44.6606 35.7402 46.3406 37.3202 47.2806 39.0002L44.8406 40.2002C44.2806 39.1202 43.0806 38.2602 41.7206 38.2602C39.2806 38.2602 37.5406 40.1202 37.5406 42.6202C37.5406 45.1202 39.3006 46.9802 41.7206 46.9802C43.0806 46.9802 44.2806 46.1202 44.8406 45.0402L47.2806 46.2202C46.3406 47.8802 44.6406 49.4802 41.7406 49.4802C37.7406 49.5002 34.6406 46.7202 34.6406 42.6202Z" fill="url(#paint3_linear_1452_1372)"/>
<path d="M48.3594 44.4404C48.3594 41.7004 50.2794 39.4004 53.4394 39.4004C56.6394 39.4004 58.5394 41.7204 58.5394 44.4404C58.5394 47.1804 56.6194 49.5004 53.4394 49.5004C50.2794 49.5004 48.3594 47.1804 48.3594 44.4404ZM55.9194 44.4404C55.9194 42.9404 55.0394 41.6404 53.4394 41.6404C51.8594 41.6404 50.9794 42.9404 50.9794 44.4404C50.9794 45.9604 51.8594 47.2604 53.4394 47.2604C55.0394 47.2604 55.9194 45.9604 55.9194 44.4404Z" fill="url(#paint4_linear_1452_1372)"/>
<path d="M67.0005 49.2589V43.4389C67.0005 42.0989 66.3005 41.6389 65.2205 41.6389C64.2205 41.6389 63.4605 42.1989 63.0205 42.7589V49.2589H60.4805V39.6189H63.0205V40.8589C63.6405 40.1389 64.8405 39.3789 66.3805 39.3789C68.5205 39.3789 69.5405 40.5789 69.5405 42.4589V49.2589H67.0005Z" fill="url(#paint5_linear_1452_1372)"/>
<path d="M72.682 49.2601V41.8401H71.082V39.6201H72.682V39.2201C72.682 36.9601 74.062 35.7601 75.922 35.7601C76.662 35.7601 77.302 35.9201 77.762 36.1601L77.242 38.0401C77.042 37.9001 76.762 37.8401 76.422 37.8401C75.702 37.8401 75.222 38.3001 75.222 39.2401V39.6401H77.182V41.8601H75.222V49.2801L72.682 49.2601ZM78.382 37.0801C78.382 36.2401 79.062 35.5801 79.882 35.5801C80.722 35.5801 81.402 36.2401 81.402 37.0801C81.402 37.9201 80.722 38.6001 79.882 38.6001C79.062 38.6001 78.382 37.9201 78.382 37.0801ZM78.622 49.2601V39.6201H81.162V49.2601H78.622Z" fill="url(#paint6_linear_1452_1372)"/>
<path d="M84.2602 46.86V41.86H82.6602V39.64H84.2602V37H86.8002V39.64H88.7602V41.86H86.8002V46.18C86.8002 46.8 87.1202 47.26 87.6802 47.26C88.0602 47.26 88.4202 47.12 88.5602 46.96L89.1002 48.9C88.7202 49.24 88.0402 49.52 86.9802 49.52C85.1802 49.5 84.2602 48.6 84.2602 46.86Z" fill="url(#paint7_linear_1452_1372)"/>
<path d="M90.418 51.7411L91.558 49.9211C92.258 50.7611 93.438 51.1011 94.458 51.1011C96.098 51.1011 97.058 49.9811 97.058 48.6211V47.6211C96.398 48.3411 95.238 49.0811 93.678 49.0811C91.558 49.0811 90.558 47.9211 90.558 46.0411V39.6211H93.098V45.0411C93.098 46.3811 93.798 46.8211 94.878 46.8211C95.858 46.8211 96.638 46.2811 97.078 45.7211V39.6211H99.618V48.6211C99.618 51.5211 97.558 53.1611 94.498 53.1611C92.818 53.1811 91.538 52.7211 90.418 51.7411Z" fill="url(#paint8_linear_1452_1372)"/>
<path d="M34.6406 42.6202C34.6406 38.5202 37.7406 35.7402 41.7406 35.7402C44.6606 35.7402 46.3406 37.3202 47.2806 39.0002L44.8406 40.2002C44.2806 39.1202 43.0806 38.2602 41.7206 38.2602C39.2806 38.2602 37.5406 40.1202 37.5406 42.6202C37.5406 45.1202 39.3006 46.9802 41.7206 46.9802C43.0806 46.9802 44.2806 46.1202 44.8406 45.0402L47.2806 46.2202C46.3406 47.8802 44.6406 49.4802 41.7406 49.4802C37.7406 49.5002 34.6406 46.7202 34.6406 42.6202Z" fill="url(#paint9_linear_1452_1372)"/>
<path d="M48.3594 44.4404C48.3594 41.7004 50.2794 39.4004 53.4394 39.4004C56.6394 39.4004 58.5394 41.7204 58.5394 44.4404C58.5394 47.1804 56.6194 49.5004 53.4394 49.5004C50.2794 49.5004 48.3594 47.1804 48.3594 44.4404ZM55.9194 44.4404C55.9194 42.9404 55.0394 41.6404 53.4394 41.6404C51.8594 41.6404 50.9794 42.9404 50.9794 44.4404C50.9794 45.9604 51.8594 47.2604 53.4394 47.2604C55.0394 47.2604 55.9194 45.9604 55.9194 44.4404Z" fill="url(#paint10_linear_1452_1372)"/>
<path d="M67.0005 49.2589V43.4389C67.0005 42.0989 66.3005 41.6389 65.2205 41.6389C64.2205 41.6389 63.4605 42.1989 63.0205 42.7589V49.2589H60.4805V39.6189H63.0205V40.8589C63.6405 40.1389 64.8405 39.3789 66.3805 39.3789C68.5205 39.3789 69.5405 40.5789 69.5405 42.4589V49.2589H67.0005Z" fill="url(#paint11_linear_1452_1372)"/>
<path d="M72.682 49.2601V41.8401H71.082V39.6201H72.682V39.2201C72.682 36.9601 74.062 35.7601 75.922 35.7601C76.662 35.7601 77.302 35.9201 77.762 36.1601L77.242 38.0401C77.042 37.9001 76.762 37.8401 76.422 37.8401C75.702 37.8401 75.222 38.3001 75.222 39.2401V39.6401H77.182V41.8601H75.222V49.2801L72.682 49.2601ZM78.382 37.0801C78.382 36.2401 79.062 35.5801 79.882 35.5801C80.722 35.5801 81.402 36.2401 81.402 37.0801C81.402 37.9201 80.722 38.6001 79.882 38.6001C79.062 38.6001 78.382 37.9201 78.382 37.0801ZM78.622 49.2601V39.6201H81.162V49.2601H78.622Z" fill="url(#paint12_linear_1452_1372)"/>
<path d="M84.2602 46.86V41.86H82.6602V39.64H84.2602V37H86.8002V39.64H88.7602V41.86H86.8002V46.18C86.8002 46.8 87.1202 47.26 87.6802 47.26C88.0602 47.26 88.4202 47.12 88.5602 46.96L89.1002 48.9C88.7202 49.24 88.0402 49.52 86.9802 49.52C85.1802 49.5 84.2602 48.6 84.2602 46.86Z" fill="url(#paint13_linear_1452_1372)"/>
<path d="M90.418 51.7411L91.558 49.9211C92.258 50.7611 93.438 51.1011 94.458 51.1011C96.098 51.1011 97.058 49.9811 97.058 48.6211V47.6211C96.398 48.3411 95.238 49.0811 93.678 49.0811C91.558 49.0811 90.558 47.9211 90.558 46.0411V39.6211H93.098V45.0411C93.098 46.3811 93.798 46.8211 94.878 46.8211C95.858 46.8211 96.638 46.2811 97.078 45.7211V39.6211H99.618V48.6211C99.618 51.5211 97.558 53.1611 94.498 53.1611C92.818 53.1811 91.538 52.7211 90.418 51.7411Z" fill="url(#paint14_linear_1452_1372)"/>
<path d="M34.9414 57.6997C34.9414 55.8997 36.3014 54.6797 38.0614 54.6797C39.3414 54.6797 40.0814 55.3797 40.5014 56.0997L39.4414 56.6197C39.2014 56.1397 38.6614 55.7797 38.0814 55.7797C37.0214 55.7797 36.2414 56.5997 36.2414 57.6997C36.2414 58.7997 37.0214 59.6197 38.0814 59.6197C38.6814 59.6197 39.2014 59.2397 39.4414 58.7797L40.5014 59.2997C40.0814 60.0197 39.3414 60.7397 38.0614 60.7397C36.3014 60.7197 34.9414 59.4797 34.9414 57.6997Z" fill="url(#paint15_linear_1452_1372)"/>
<path d="M44.1214 60.6193V60.0793C43.7814 60.4993 43.3414 60.7193 42.8214 60.7193C41.7614 60.7193 40.9414 59.9193 40.9414 58.4993C40.9414 57.1193 41.7414 56.2793 42.8214 56.2793C43.3214 56.2793 43.7814 56.4793 44.1214 56.9193V56.3793H45.2414V60.5993L44.1214 60.6193ZM44.1214 59.2393V57.7593C43.9414 57.4793 43.5414 57.2593 43.1614 57.2593C42.5214 57.2593 42.0814 57.7593 42.0814 58.4793C42.0814 59.2193 42.5214 59.7193 43.1614 59.7193C43.5214 59.7193 43.9414 59.5193 44.1214 59.2393Z" fill="url(#paint16_linear_1452_1372)"/>
<path d="M47.4598 60.0593V62.2193H46.3398V56.3793H47.4598V56.9193C47.7798 56.4993 48.2398 56.2793 48.7598 56.2793C49.8398 56.2793 50.6398 57.0793 50.6398 58.4993C50.6398 59.9193 49.8598 60.7193 48.7598 60.7193C48.2598 60.7193 47.7998 60.4993 47.4598 60.0593ZM49.4798 58.4993C49.4798 57.7793 49.0398 57.2793 48.3998 57.2793C48.0398 57.2793 47.6398 57.4793 47.4398 57.7593V59.2393C47.6198 59.5193 48.0398 59.7393 48.3998 59.7393C49.0398 59.7193 49.4798 59.2193 49.4798 58.4993Z" fill="url(#paint17_linear_1452_1372)"/>
<path d="M51.3398 55.2596C51.3398 54.8996 51.6398 54.5996 51.9998 54.5996C52.3598 54.5996 52.6598 54.8796 52.6598 55.2596C52.6598 55.6196 52.3598 55.9196 51.9998 55.9196C51.6398 55.9196 51.3398 55.6196 51.3398 55.2596ZM51.4398 60.6196V56.3996H52.5598V60.6196H51.4398Z" fill="url(#paint18_linear_1452_1372)"/>
<path d="M53.8797 59.5607V57.3607H53.1797V56.3807H53.8797V55.2207H54.9997V56.3807H55.8597V57.3607H54.9997V59.2607C54.9997 59.5407 55.1397 59.7407 55.3797 59.7407C55.5397 59.7407 55.6997 59.6807 55.7597 59.6007L55.9997 60.4407C55.8397 60.5807 55.5397 60.7207 55.0797 60.7207C54.2997 60.7207 53.8797 60.3207 53.8797 59.5607Z" fill="url(#paint19_linear_1452_1372)"/>
<path d="M59.5198 60.6193V60.0793C59.1798 60.4993 58.7398 60.7193 58.2198 60.7193C57.1598 60.7193 56.3398 59.9193 56.3398 58.4993C56.3398 57.1193 57.1398 56.2793 58.2198 56.2793C58.7198 56.2793 59.1798 56.4793 59.5198 56.9193V56.3793H60.6398V60.5993L59.5198 60.6193ZM59.5198 59.2393V57.7593C59.3398 57.4793 58.9398 57.2593 58.5598 57.2593C57.9198 57.2593 57.4798 57.7593 57.4798 58.4793C57.4798 59.2193 57.9198 59.7193 58.5598 59.7193C58.9398 59.7193 59.3398 59.5193 59.5198 59.2393Z" fill="url(#paint20_linear_1452_1372)"/>
<path d="M61.7422 59.5593V54.7793H62.8622V59.2593C62.8622 59.5393 63.0022 59.7393 63.2422 59.7393C63.4022 59.7393 63.5622 59.6793 63.6222 59.5993L63.8622 60.4393C63.7022 60.5793 63.3822 60.7193 62.9422 60.7193C62.1622 60.7193 61.7422 60.3193 61.7422 59.5593Z" fill="url(#paint21_linear_1452_1372)"/>
<path d="M66.6406 60.6193V54.7793H69.3806C70.6406 54.7793 71.3406 55.6393 71.3406 56.6593C71.3406 57.6793 70.6406 58.5393 69.3806 58.5393H67.9006V60.6193H66.6406ZM70.0606 56.6593C70.0606 56.1593 69.6806 55.8793 69.2006 55.8793H67.8806V57.4393H69.2006C69.6806 57.4393 70.0606 57.1393 70.0606 56.6593Z" fill="url(#paint22_linear_1452_1372)"/>
<path d="M74.8402 60.6193V60.0793C74.5002 60.4993 74.0602 60.7193 73.5402 60.7193C72.4802 60.7193 71.6602 59.9193 71.6602 58.4993C71.6602 57.1193 72.4602 56.2793 73.5402 56.2793C74.0402 56.2793 74.5002 56.4793 74.8402 56.9193V56.3793H75.9602V60.5993L74.8402 60.6193ZM74.8402 59.2393V57.7593C74.6602 57.4793 74.2602 57.2593 73.8802 57.2593C73.2402 57.2593 72.8002 57.7593 72.8002 58.4793C72.8002 59.2193 73.2402 59.7193 73.8802 59.7193C74.2402 59.7193 74.6402 59.5193 74.8402 59.2393Z" fill="url(#paint23_linear_1452_1372)"/>
<path d="M77.0586 60.6193V56.3993H78.1786V56.9593C78.4786 56.5993 78.9986 56.2793 79.5186 56.2793V57.3593C79.4386 57.3393 79.3386 57.3393 79.2186 57.3393C78.8586 57.3393 78.3586 57.5393 78.1786 57.8193V60.6193H77.0586Z" fill="url(#paint24_linear_1452_1372)"/>
<path d="M80.4422 59.5607V57.3607H79.7422V56.3807H80.4422V55.2207H81.5622V56.3807H82.4222V57.3607H81.5622V59.2607C81.5622 59.5407 81.7022 59.7407 81.9422 59.7407C82.1022 59.7407 82.2622 59.6807 82.3222 59.6007L82.5622 60.4407C82.4022 60.5807 82.1022 60.7207 81.6422 60.7207C80.8422 60.7207 80.4422 60.3207 80.4422 59.5607Z" fill="url(#paint25_linear_1452_1372)"/>
<path d="M86.0202 60.6203V58.0603C86.0202 57.4803 85.7202 57.2803 85.2402 57.2803C84.8002 57.2803 84.4602 57.5203 84.2802 57.7803V60.6403H83.1602V56.4203H84.2802V56.9603C84.5602 56.6403 85.0802 56.3203 85.7602 56.3203C86.7002 56.3203 87.1402 56.8403 87.1402 57.6603V60.6403L86.0202 60.6203Z" fill="url(#paint26_linear_1452_1372)"/>
<path d="M87.9609 58.4993C87.9609 57.2793 88.8809 56.2793 90.1409 56.2793C91.4009 56.2793 92.2609 57.2193 92.2609 58.5993V58.8593H89.1209C89.2009 59.3793 89.6209 59.7993 90.3409 59.7993C90.7009 59.7993 91.1809 59.6593 91.4609 59.3793L91.9609 60.1193C91.5409 60.4993 90.8809 60.6993 90.2209 60.6993C88.9409 60.7193 87.9609 59.8393 87.9609 58.4993ZM90.1609 57.1793C89.4609 57.1793 89.1809 57.6593 89.1209 58.0793H91.2009C91.1609 57.6793 90.8809 57.1793 90.1609 57.1793Z" fill="url(#paint27_linear_1452_1372)"/>
<path d="M93.082 60.6193V56.3993H94.202V56.9593C94.502 56.5993 95.022 56.2793 95.542 56.2793V57.3593C95.462 57.3393 95.362 57.3393 95.242 57.3393C94.882 57.3393 94.382 57.5393 94.202 57.8193V60.6193H93.082Z" fill="url(#paint28_linear_1452_1372)"/>
<path d="M95.8594 60.0593L96.3394 59.2593C96.6594 59.5593 97.2794 59.8393 97.7994 59.8393C98.2794 59.8393 98.4994 59.6593 98.4994 59.3993C98.4994 58.6993 95.9994 59.2793 95.9994 57.6193C95.9994 56.9193 96.6194 56.2793 97.7394 56.2793C98.4394 56.2793 99.0194 56.5193 99.4394 56.8593L98.9994 57.6393C98.7394 57.3793 98.2594 57.1393 97.7394 57.1393C97.3394 57.1393 97.0794 57.3193 97.0794 57.5593C97.0794 58.1793 99.5994 57.6593 99.5994 59.3593C99.5994 60.1393 98.9394 60.6993 97.7594 60.6993C97.0194 60.7193 96.2994 60.4793 95.8594 60.0593Z" fill="url(#paint29_linear_1452_1372)"/>
<path d="M34.9414 57.6997C34.9414 55.8997 36.3014 54.6797 38.0614 54.6797C39.3414 54.6797 40.0814 55.3797 40.5014 56.0997L39.4414 56.6197C39.2014 56.1397 38.6614 55.7797 38.0814 55.7797C37.0214 55.7797 36.2414 56.5997 36.2414 57.6997C36.2414 58.7997 37.0214 59.6197 38.0814 59.6197C38.6814 59.6197 39.2014 59.2397 39.4414 58.7797L40.5014 59.2997C40.0814 60.0197 39.3414 60.7397 38.0614 60.7397C36.3014 60.7197 34.9414 59.4797 34.9414 57.6997Z" fill="url(#paint30_linear_1452_1372)"/>
<path d="M44.1214 60.6193V60.0793C43.7814 60.4993 43.3414 60.7193 42.8214 60.7193C41.7614 60.7193 40.9414 59.9193 40.9414 58.4993C40.9414 57.1193 41.7414 56.2793 42.8214 56.2793C43.3214 56.2793 43.7814 56.4793 44.1214 56.9193V56.3793H45.2414V60.5993L44.1214 60.6193ZM44.1214 59.2393V57.7593C43.9414 57.4793 43.5414 57.2593 43.1614 57.2593C42.5214 57.2593 42.0814 57.7593 42.0814 58.4793C42.0814 59.2193 42.5214 59.7193 43.1614 59.7193C43.5214 59.7193 43.9414 59.5193 44.1214 59.2393Z" fill="url(#paint31_linear_1452_1372)"/>
<path d="M47.4598 60.0593V62.2193H46.3398V56.3793H47.4598V56.9193C47.7798 56.4993 48.2398 56.2793 48.7598 56.2793C49.8398 56.2793 50.6398 57.0793 50.6398 58.4993C50.6398 59.9193 49.8598 60.7193 48.7598 60.7193C48.2598 60.7193 47.7998 60.4993 47.4598 60.0593ZM49.4798 58.4993C49.4798 57.7793 49.0398 57.2793 48.3998 57.2793C48.0398 57.2793 47.6398 57.4793 47.4398 57.7593V59.2393C47.6198 59.5193 48.0398 59.7393 48.3998 59.7393C49.0398 59.7193 49.4798 59.2193 49.4798 58.4993Z" fill="url(#paint32_linear_1452_1372)"/>
<path d="M51.3398 55.2596C51.3398 54.8996 51.6398 54.5996 51.9998 54.5996C52.3598 54.5996 52.6598 54.8796 52.6598 55.2596C52.6598 55.6196 52.3598 55.9196 51.9998 55.9196C51.6398 55.9196 51.3398 55.6196 51.3398 55.2596ZM51.4398 60.6196V56.3996H52.5598V60.6196H51.4398Z" fill="url(#paint33_linear_1452_1372)"/>
<path d="M53.8797 59.5607V57.3607H53.1797V56.3807H53.8797V55.2207H54.9997V56.3807H55.8597V57.3607H54.9997V59.2607C54.9997 59.5407 55.1397 59.7407 55.3797 59.7407C55.5397 59.7407 55.6997 59.6807 55.7597 59.6007L55.9997 60.4407C55.8397 60.5807 55.5397 60.7207 55.0797 60.7207C54.2997 60.7207 53.8797 60.3207 53.8797 59.5607Z" fill="url(#paint34_linear_1452_1372)"/>
<path d="M59.5198 60.6193V60.0793C59.1798 60.4993 58.7398 60.7193 58.2198 60.7193C57.1598 60.7193 56.3398 59.9193 56.3398 58.4993C56.3398 57.1193 57.1398 56.2793 58.2198 56.2793C58.7198 56.2793 59.1798 56.4793 59.5198 56.9193V56.3793H60.6398V60.5993L59.5198 60.6193ZM59.5198 59.2393V57.7593C59.3398 57.4793 58.9398 57.2593 58.5598 57.2593C57.9198 57.2593 57.4798 57.7593 57.4798 58.4793C57.4798 59.2193 57.9198 59.7193 58.5598 59.7193C58.9398 59.7193 59.3398 59.5193 59.5198 59.2393Z" fill="url(#paint35_linear_1452_1372)"/>
<path d="M61.7422 59.5593V54.7793H62.8622V59.2593C62.8622 59.5393 63.0022 59.7393 63.2422 59.7393C63.4022 59.7393 63.5622 59.6793 63.6222 59.5993L63.8622 60.4393C63.7022 60.5793 63.3822 60.7193 62.9422 60.7193C62.1622 60.7193 61.7422 60.3193 61.7422 59.5593Z" fill="url(#paint36_linear_1452_1372)"/>
<path d="M66.6406 60.6193V54.7793H69.3806C70.6406 54.7793 71.3406 55.6393 71.3406 56.6593C71.3406 57.6793 70.6406 58.5393 69.3806 58.5393H67.9006V60.6193H66.6406ZM70.0606 56.6593C70.0606 56.1593 69.6806 55.8793 69.2006 55.8793H67.8806V57.4393H69.2006C69.6806 57.4393 70.0606 57.1393 70.0606 56.6593Z" fill="url(#paint37_linear_1452_1372)"/>
<path d="M74.8402 60.6193V60.0793C74.5002 60.4993 74.0602 60.7193 73.5402 60.7193C72.4802 60.7193 71.6602 59.9193 71.6602 58.4993C71.6602 57.1193 72.4602 56.2793 73.5402 56.2793C74.0402 56.2793 74.5002 56.4793 74.8402 56.9193V56.3793H75.9602V60.5993L74.8402 60.6193ZM74.8402 59.2393V57.7593C74.6602 57.4793 74.2602 57.2593 73.8802 57.2593C73.2402 57.2593 72.8002 57.7593 72.8002 58.4793C72.8002 59.2193 73.2402 59.7193 73.8802 59.7193C74.2402 59.7193 74.6402 59.5193 74.8402 59.2393Z" fill="url(#paint38_linear_1452_1372)"/>
<path d="M77.0586 60.6193V56.3993H78.1786V56.9593C78.4786 56.5993 78.9986 56.2793 79.5186 56.2793V57.3593C79.4386 57.3393 79.3386 57.3393 79.2186 57.3393C78.8586 57.3393 78.3586 57.5393 78.1786 57.8193V60.6193H77.0586Z" fill="url(#paint39_linear_1452_1372)"/>
<path d="M80.4422 59.5607V57.3607H79.7422V56.3807H80.4422V55.2207H81.5622V56.3807H82.4222V57.3607H81.5622V59.2607C81.5622 59.5407 81.7022 59.7407 81.9422 59.7407C82.1022 59.7407 82.2622 59.6807 82.3222 59.6007L82.5622 60.4407C82.4022 60.5807 82.1022 60.7207 81.6422 60.7207C80.8422 60.7207 80.4422 60.3207 80.4422 59.5607Z" fill="url(#paint40_linear_1452_1372)"/>
<path d="M86.0202 60.6203V58.0603C86.0202 57.4803 85.7202 57.2803 85.2402 57.2803C84.8002 57.2803 84.4602 57.5203 84.2802 57.7803V60.6403H83.1602V56.4203H84.2802V56.9603C84.5602 56.6403 85.0802 56.3203 85.7602 56.3203C86.7002 56.3203 87.1402 56.8403 87.1402 57.6603V60.6403L86.0202 60.6203Z" fill="url(#paint41_linear_1452_1372)"/>
<path d="M87.9609 58.4993C87.9609 57.2793 88.8809 56.2793 90.1409 56.2793C91.4009 56.2793 92.2609 57.2193 92.2609 58.5993V58.8593H89.1209C89.2009 59.3793 89.6209 59.7993 90.3409 59.7993C90.7009 59.7993 91.1809 59.6593 91.4609 59.3793L91.9609 60.1193C91.5409 60.4993 90.8809 60.6993 90.2209 60.6993C88.9409 60.7193 87.9609 59.8393 87.9609 58.4993ZM90.1609 57.1793C89.4609 57.1793 89.1809 57.6593 89.1209 58.0793H91.2009C91.1609 57.6793 90.8809 57.1793 90.1609 57.1793Z" fill="url(#paint42_linear_1452_1372)"/>
<path d="M93.082 60.6193V56.3993H94.202V56.9593C94.502 56.5993 95.022 56.2793 95.542 56.2793V57.3593C95.462 57.3393 95.362 57.3393 95.242 57.3393C94.882 57.3393 94.382 57.5393 94.202 57.8193V60.6193H93.082Z" fill="url(#paint43_linear_1452_1372)"/>
<path d="M95.8594 60.0593L96.3394 59.2593C96.6594 59.5593 97.2794 59.8393 97.7994 59.8393C98.2794 59.8393 98.4994 59.6593 98.4994 59.3993C98.4994 58.6993 95.9994 59.2793 95.9994 57.6193C95.9994 56.9193 96.6194 56.2793 97.7394 56.2793C98.4394 56.2793 99.0194 56.5193 99.4394 56.8593L98.9994 57.6393C98.7394 57.3793 98.2594 57.1393 97.7394 57.1393C97.3394 57.1393 97.0794 57.3193 97.0794 57.5593C97.0794 58.1793 99.5994 57.6593 99.5994 59.3593C99.5994 60.1393 98.9394 60.6993 97.7594 60.6993C97.0194 60.7193 96.2994 60.4793 95.8594 60.0593Z" fill="url(#paint44_linear_1452_1372)"/>
<defs>
<linearGradient id="paint0_linear_1452_1372" x1="2.701" y1="42.3008" x2="15.334" y2="43.531" gradientUnits="userSpaceOnUse">
<stop stop-color="#F8EEA4"/>
<stop offset="1" stop-color="#C7A008"/>
</linearGradient>
<linearGradient id="paint1_linear_1452_1372" x1="17.7605" y1="42.9844" x2="30.072" y2="44.1933" gradientUnits="userSpaceOnUse">
<stop stop-color="#F8EEA4"/>
<stop offset="1" stop-color="#C7A008"/>
</linearGradient>
<linearGradient id="paint2_linear_1452_1372" x1="5.58344" y1="33.2422" x2="28.0549" y2="39.366" gradientUnits="userSpaceOnUse">
<stop stop-color="#F8EEA4"/>
<stop offset="1" stop-color="#C7A008"/>
</linearGradient>
<linearGradient id="paint3_linear_1452_1372" x1="36.2036" y1="35.7402" x2="47.9797" y2="37.3413" gradientUnits="userSpaceOnUse">
<stop stop-color="#F8EEA4"/>
<stop offset="1" stop-color="#C7A008"/>
</linearGradient>
<linearGradient id="paint4_linear_1452_1372" x1="49.6182" y1="39.4004" x2="59.068" y2="40.8081" gradientUnits="userSpaceOnUse">
<stop stop-color="#F8EEA4"/>
<stop offset="1" stop-color="#C7A008"/>
</linearGradient>
<linearGradient id="paint5_linear_1452_1372" x1="61.6008" y1="39.3789" x2="70.0425" y2="40.523" gradientUnits="userSpaceOnUse">
<stop stop-color="#F8EEA4"/>
<stop offset="1" stop-color="#C7A008"/>
</linearGradient>
<linearGradient id="paint6_linear_1452_1372" x1="72.3582" y1="35.5801" x2="82.0306" y2="36.6569" gradientUnits="userSpaceOnUse">
<stop stop-color="#F8EEA4"/>
<stop offset="1" stop-color="#C7A008"/>
</linearGradient>
<linearGradient id="paint7_linear_1452_1372" x1="83.4565" y1="37" x2="89.5321" y2="37.4619" gradientUnits="userSpaceOnUse">
<stop stop-color="#F8EEA4"/>
<stop offset="1" stop-color="#C7A008"/>
</linearGradient>
<linearGradient id="paint8_linear_1452_1372" x1="91.5556" y1="39.6211" x2="100.198" y2="40.489" gradientUnits="userSpaceOnUse">
<stop stop-color="#F8EEA4"/>
<stop offset="1" stop-color="#C7A008"/>
</linearGradient>
<linearGradient id="paint9_linear_1452_1372" x1="36.2036" y1="35.7402" x2="47.9797" y2="37.3413" gradientUnits="userSpaceOnUse">
<stop stop-color="#F8EEA4"/>
<stop offset="1" stop-color="#C7A008"/>
</linearGradient>
<linearGradient id="paint10_linear_1452_1372" x1="49.6182" y1="39.4004" x2="59.068" y2="40.8081" gradientUnits="userSpaceOnUse">
<stop stop-color="#F8EEA4"/>
<stop offset="1" stop-color="#C7A008"/>
</linearGradient>
<linearGradient id="paint11_linear_1452_1372" x1="61.6008" y1="39.3789" x2="70.0425" y2="40.523" gradientUnits="userSpaceOnUse">
<stop stop-color="#F8EEA4"/>
<stop offset="1" stop-color="#C7A008"/>
</linearGradient>
<linearGradient id="paint12_linear_1452_1372" x1="72.3582" y1="35.5801" x2="82.0306" y2="36.6569" gradientUnits="userSpaceOnUse">
<stop stop-color="#F8EEA4"/>
<stop offset="1" stop-color="#C7A008"/>
</linearGradient>
<linearGradient id="paint13_linear_1452_1372" x1="83.4565" y1="37" x2="89.5321" y2="37.4619" gradientUnits="userSpaceOnUse">
<stop stop-color="#F8EEA4"/>
<stop offset="1" stop-color="#C7A008"/>
</linearGradient>
<linearGradient id="paint14_linear_1452_1372" x1="91.5556" y1="39.6211" x2="100.198" y2="40.489" gradientUnits="userSpaceOnUse">
<stop stop-color="#F8EEA4"/>
<stop offset="1" stop-color="#C7A008"/>
</linearGradient>
<linearGradient id="paint15_linear_1452_1372" x1="35.6289" y1="54.6797" x2="40.8094" y2="55.3822" gradientUnits="userSpaceOnUse">
<stop stop-color="#F8EEA4"/>
<stop offset="1" stop-color="#C7A008"/>
</linearGradient>
<linearGradient id="paint16_linear_1452_1372" x1="41.4731" y1="56.2793" x2="45.4714" y2="56.8516" gradientUnits="userSpaceOnUse">
<stop stop-color="#F8EEA4"/>
<stop offset="1" stop-color="#C7A008"/>
</linearGradient>
<linearGradient id="paint17_linear_1452_1372" x1="46.8716" y1="56.2793" x2="50.9055" y2="56.7109" gradientUnits="userSpaceOnUse">
<stop stop-color="#F8EEA4"/>
<stop offset="1" stop-color="#C7A008"/>
</linearGradient>
<linearGradient id="paint18_linear_1452_1372" x1="51.5031" y1="54.5996" x2="52.7543" y2="54.6402" gradientUnits="userSpaceOnUse">
<stop stop-color="#F8EEA4"/>
<stop offset="1" stop-color="#C7A008"/>
</linearGradient>
<linearGradient id="paint19_linear_1452_1372" x1="53.5284" y1="55.2207" x2="56.1889" y2="55.4223" gradientUnits="userSpaceOnUse">
<stop stop-color="#F8EEA4"/>
<stop offset="1" stop-color="#C7A008"/>
</linearGradient>
<linearGradient id="paint20_linear_1452_1372" x1="56.8716" y1="56.2793" x2="60.8698" y2="56.8516" gradientUnits="userSpaceOnUse">
<stop stop-color="#F8EEA4"/>
<stop offset="1" stop-color="#C7A008"/>
</linearGradient>
<linearGradient id="paint21_linear_1452_1372" x1="62.0043" y1="54.7793" x2="64.0104" y2="54.8851" gradientUnits="userSpaceOnUse">
<stop stop-color="#F8EEA4"/>
<stop offset="1" stop-color="#C7A008"/>
</linearGradient>
<linearGradient id="paint22_linear_1452_1372" x1="67.2218" y1="54.7793" x2="71.6193" y2="55.3024" gradientUnits="userSpaceOnUse">
<stop stop-color="#F8EEA4"/>
<stop offset="1" stop-color="#C7A008"/>
</linearGradient>
<linearGradient id="paint23_linear_1452_1372" x1="72.1919" y1="56.2793" x2="76.1901" y2="56.8516" gradientUnits="userSpaceOnUse">
<stop stop-color="#F8EEA4"/>
<stop offset="1" stop-color="#C7A008"/>
</linearGradient>
<linearGradient id="paint24_linear_1452_1372" x1="77.3628" y1="56.2793" x2="79.6807" y2="56.4735" gradientUnits="userSpaceOnUse">
<stop stop-color="#F8EEA4"/>
<stop offset="1" stop-color="#C7A008"/>
</linearGradient>
<linearGradient id="paint25_linear_1452_1372" x1="80.0909" y1="55.2207" x2="82.7514" y2="55.4223" gradientUnits="userSpaceOnUse">
<stop stop-color="#F8EEA4"/>
<stop offset="1" stop-color="#C7A008"/>
</linearGradient>
<linearGradient id="paint26_linear_1452_1372" x1="83.6523" y1="56.3203" x2="87.3601" y2="56.8252" gradientUnits="userSpaceOnUse">
<stop stop-color="#F8EEA4"/>
<stop offset="1" stop-color="#C7A008"/>
</linearGradient>
<linearGradient id="paint27_linear_1452_1372" x1="88.4927" y1="56.2793" x2="92.4902" y2="56.854" gradientUnits="userSpaceOnUse">
<stop stop-color="#F8EEA4"/>
<stop offset="1" stop-color="#C7A008"/>
</linearGradient>
<linearGradient id="paint28_linear_1452_1372" x1="93.3862" y1="56.2793" x2="95.7042" y2="56.4735" gradientUnits="userSpaceOnUse">
<stop stop-color="#F8EEA4"/>
<stop offset="1" stop-color="#C7A008"/>
</linearGradient>
<linearGradient id="paint29_linear_1452_1372" x1="96.3218" y1="56.2793" x2="99.816" y2="56.7162" gradientUnits="userSpaceOnUse">
<stop stop-color="#F8EEA4"/>
<stop offset="1" stop-color="#C7A008"/>
</linearGradient>
<linearGradient id="paint30_linear_1452_1372" x1="35.6289" y1="54.6797" x2="40.8094" y2="55.3822" gradientUnits="userSpaceOnUse">
<stop stop-color="#F8EEA4"/>
<stop offset="1" stop-color="#C7A008"/>
</linearGradient>
<linearGradient id="paint31_linear_1452_1372" x1="41.4731" y1="56.2793" x2="45.4714" y2="56.8516" gradientUnits="userSpaceOnUse">
<stop stop-color="#F8EEA4"/>
<stop offset="1" stop-color="#C7A008"/>
</linearGradient>
<linearGradient id="paint32_linear_1452_1372" x1="46.8716" y1="56.2793" x2="50.9055" y2="56.7109" gradientUnits="userSpaceOnUse">
<stop stop-color="#F8EEA4"/>
<stop offset="1" stop-color="#C7A008"/>
</linearGradient>
<linearGradient id="paint33_linear_1452_1372" x1="51.5031" y1="54.5996" x2="52.7543" y2="54.6402" gradientUnits="userSpaceOnUse">
<stop stop-color="#F8EEA4"/>
<stop offset="1" stop-color="#C7A008"/>
</linearGradient>
<linearGradient id="paint34_linear_1452_1372" x1="53.5284" y1="55.2207" x2="56.1889" y2="55.4223" gradientUnits="userSpaceOnUse">
<stop stop-color="#F8EEA4"/>
<stop offset="1" stop-color="#C7A008"/>
</linearGradient>
<linearGradient id="paint35_linear_1452_1372" x1="56.8716" y1="56.2793" x2="60.8698" y2="56.8516" gradientUnits="userSpaceOnUse">
<stop stop-color="#F8EEA4"/>
<stop offset="1" stop-color="#C7A008"/>
</linearGradient>
<linearGradient id="paint36_linear_1452_1372" x1="62.0043" y1="54.7793" x2="64.0104" y2="54.8851" gradientUnits="userSpaceOnUse">
<stop stop-color="#F8EEA4"/>
<stop offset="1" stop-color="#C7A008"/>
</linearGradient>
<linearGradient id="paint37_linear_1452_1372" x1="67.2218" y1="54.7793" x2="71.6193" y2="55.3024" gradientUnits="userSpaceOnUse">
<stop stop-color="#F8EEA4"/>
<stop offset="1" stop-color="#C7A008"/>
</linearGradient>
<linearGradient id="paint38_linear_1452_1372" x1="72.1919" y1="56.2793" x2="76.1901" y2="56.8516" gradientUnits="userSpaceOnUse">
<stop stop-color="#F8EEA4"/>
<stop offset="1" stop-color="#C7A008"/>
</linearGradient>
<linearGradient id="paint39_linear_1452_1372" x1="77.3628" y1="56.2793" x2="79.6807" y2="56.4735" gradientUnits="userSpaceOnUse">
<stop stop-color="#F8EEA4"/>
<stop offset="1" stop-color="#C7A008"/>
</linearGradient>
<linearGradient id="paint40_linear_1452_1372" x1="80.0909" y1="55.2207" x2="82.7514" y2="55.4223" gradientUnits="userSpaceOnUse">
<stop stop-color="#F8EEA4"/>
<stop offset="1" stop-color="#C7A008"/>
</linearGradient>
<linearGradient id="paint41_linear_1452_1372" x1="83.6523" y1="56.3203" x2="87.3601" y2="56.8252" gradientUnits="userSpaceOnUse">
<stop stop-color="#F8EEA4"/>
<stop offset="1" stop-color="#C7A008"/>
</linearGradient>
<linearGradient id="paint42_linear_1452_1372" x1="88.4927" y1="56.2793" x2="92.4902" y2="56.854" gradientUnits="userSpaceOnUse">
<stop stop-color="#F8EEA4"/>
<stop offset="1" stop-color="#C7A008"/>
</linearGradient>
<linearGradient id="paint43_linear_1452_1372" x1="93.3862" y1="56.2793" x2="95.7042" y2="56.4735" gradientUnits="userSpaceOnUse">
<stop stop-color="#F8EEA4"/>
<stop offset="1" stop-color="#C7A008"/>
</linearGradient>
<linearGradient id="paint44_linear_1452_1372" x1="96.3218" y1="56.2793" x2="99.816" y2="56.7162" gradientUnits="userSpaceOnUse">
<stop stop-color="#F8EEA4"/>
<stop offset="1" stop-color="#C7A008"/>
</linearGradient>
</defs>
</svg>
