<svg width="72" height="72" viewBox="0 0 72 72" fill="none" xmlns="http://www.w3.org/2000/svg">
<path d="M46.9759 24.2788C46.0255 21.874 44.0671 19.7572 41.2303 16.4596C37.3855 11.9812 37.3279 10.6276 36.6367 8.09323C36.6367 8.09323 36.6367 3.09643 36.6367 3.08203C37.2271 7.61803 40.6831 14.1124 44.5423 17.6548C43.9951 16.5172 44.4415 14.8612 44.8879 13.6948C44.7151 17.1364 47.8111 20.1748 48.9775 23.5156C49.1647 24.0628 50.2447 26.5252 49.1359 29.146C48.1999 31.3492 44.5279 33.7972 40.6399 35.1652C40.6399 35.0788 49.8847 31.6228 46.9759 24.2788Z" fill="url(#paint0_linear_1452_1132)"/>
<path d="M26.3123 24.2788C27.2627 21.874 29.2211 19.7572 32.0579 16.4596C35.9027 11.9812 35.9603 10.6276 36.6515 8.09323C36.6515 8.09323 36.6515 3.09643 36.6515 3.08203C36.0467 7.63243 32.5907 14.1124 28.7315 17.6548C29.2787 16.5172 28.8323 14.8612 28.3859 13.6948C28.5587 17.1364 25.4627 20.1748 24.2963 23.5156C24.1091 24.0628 23.0291 26.5252 24.1379 29.146C25.0739 31.3492 28.7171 33.754 32.6051 35.122C32.6051 35.0212 23.3891 31.6228 26.3123 24.2788Z" fill="url(#paint1_linear_1452_1132)"/>
<path d="M45.0569 41.3428C45.7913 41.818 46.5833 42.1924 47.4329 42.4516C48.2825 42.7108 49.1753 42.8116 50.1833 42.7972C52.1273 42.7828 54.1289 42.2644 55.6841 40.9252C56.4617 40.2628 57.1241 39.3988 57.6137 38.4196C58.0025 37.6276 58.2905 36.7348 58.4633 35.8132C58.4489 35.8132 58.4345 35.8132 58.4345 35.7988C58.4201 35.8852 58.3913 35.9716 58.3625 36.0724C58.1753 36.7492 57.8729 37.7572 57.1673 38.8516C56.4761 39.946 55.3529 41.1124 53.7113 41.818C52.8905 42.178 51.9401 42.4084 50.9033 42.5092C50.3849 42.5524 49.8377 42.5668 49.2761 42.538C48.7145 42.5236 48.1961 42.4372 47.6633 42.322C46.5833 42.0628 45.5321 41.5588 44.4953 40.81C43.4585 40.0612 42.4649 39.0964 41.4713 37.9588C41.0825 37.5124 40.6937 37.0516 40.3049 36.562C40.2905 36.5908 40.2761 36.6196 40.2617 36.6628C40.5497 37.0228 40.8521 37.3972 41.1689 37.7572C42.3209 39.0964 43.5737 40.3924 45.0569 41.3428Z" fill="url(#paint2_linear_1452_1132)"/>
<path d="M44.8562 40.71C45.8498 41.43 46.8722 41.9052 47.909 42.1644C48.917 42.4092 50.069 42.438 51.077 42.3516C52.085 42.2652 53.0066 42.0204 53.813 41.6748C55.4258 40.9836 56.5346 39.8316 57.197 38.7516C57.8738 37.6716 58.1906 36.6924 58.3634 36.03C58.3922 35.9436 58.4066 35.8716 58.421 35.7852C58.421 35.7852 58.421 35.7852 58.4066 35.7852C58.1618 36.6924 57.8594 37.5276 57.4418 38.2908C56.9234 39.2268 56.2754 40.0188 55.5122 40.638C54.0002 41.862 52.1426 42.3084 50.2994 42.3228C49.853 42.3228 49.349 42.3084 48.9458 42.2508C48.5282 42.2076 48.1106 42.1212 47.7218 42.006C46.9298 41.7756 46.1954 41.4444 45.4898 41.0124C44.093 40.1484 42.8546 38.9244 41.717 37.6284C41.4146 37.2828 41.1122 36.9372 40.8242 36.5772C41.1986 37.0524 41.5586 37.5132 41.933 37.9308C42.8978 39.054 43.8626 40.0044 44.8562 40.71Z" fill="url(#paint3_linear_1452_1132)"/>
<path d="M41.1964 38.5629C42.2044 39.7149 43.2412 40.7085 44.35 41.4573C45.4444 42.2205 46.6108 42.7245 47.7772 42.9549C48.9292 43.1853 50.1388 43.1565 51.2188 43.0269C52.2988 42.8829 53.278 42.5805 54.1132 42.1629C55.798 41.3133 56.878 40.0317 57.4828 38.8797C58.102 37.7277 58.3324 36.7197 58.462 36.0429C58.4764 35.9565 58.4908 35.8845 58.5052 35.8125H58.4908C58.1308 37.8429 57.2524 39.6861 55.87 40.9389C54.358 42.3501 52.3564 42.9549 50.398 43.0413C49.4044 43.0845 48.454 43.0269 47.5756 42.8109C46.6828 42.5949 45.8476 42.2349 45.07 41.7885C43.5148 40.8813 42.19 39.5997 40.9948 38.2749C40.6636 37.9005 40.3324 37.5261 40.0156 37.1373C40.4044 37.6413 40.7932 38.1165 41.1964 38.5629Z" fill="url(#paint4_linear_1452_1132)"/>
<path d="M44.586 42.1046C45.4068 42.5942 46.2852 42.9974 47.2356 43.2422C48.186 43.487 49.1939 43.559 50.2307 43.5158C52.2899 43.4294 54.4356 42.767 56.0196 41.2406C57.4596 39.887 58.2948 37.9142 58.5252 35.8262C58.5107 35.8262 58.5108 35.8262 58.4964 35.8262C58.482 35.9126 58.4676 35.999 58.4531 36.0854C58.3235 36.7766 58.0932 37.799 57.4596 38.9798C56.826 40.1462 55.7316 41.471 54.0036 42.3206C53.1396 42.7526 52.1315 43.055 51.0227 43.199C50.4755 43.271 49.8851 43.3142 49.2947 43.2998C48.7043 43.2998 48.114 43.2422 47.5092 43.1126C46.2996 42.8678 45.1043 42.335 43.9667 41.543C42.8291 40.7654 41.7635 39.743 40.7267 38.5766C40.4099 38.2166 40.0932 37.8422 39.7764 37.4678C39.762 37.4966 39.7331 37.511 39.7188 37.5398C39.9491 37.8134 40.1796 38.1014 40.4244 38.375C41.6196 39.7574 42.9588 41.0966 44.586 42.1046Z" fill="url(#paint5_linear_1452_1132)"/>
<path d="M44.1225 42.8678C45.0153 43.3862 45.9945 43.8038 47.0457 44.0342C48.0969 44.279 49.2057 44.3222 50.3001 44.2358C51.3945 44.1494 52.5033 43.9046 53.5545 43.4726C54.6057 43.0406 55.5705 42.3926 56.3625 41.543C57.8025 40.0166 58.5225 37.943 58.5801 35.8262H58.5657C58.5657 35.9126 58.5513 35.9846 58.5513 36.0854C58.4793 36.7766 58.3209 37.8422 57.7449 39.095C57.4569 39.7142 57.0537 40.391 56.4921 41.039C55.9305 41.687 55.1961 42.3062 54.2889 42.8102C53.3817 43.3142 52.3161 43.6886 51.1497 43.8902C49.9689 44.0774 48.6873 44.1638 47.3481 43.919C46.0089 43.6886 44.6697 43.127 43.4313 42.3062C42.1929 41.4854 41.0409 40.4198 39.9753 39.2246C39.6729 38.8934 39.3705 38.5334 39.0681 38.1878C39.0393 38.2022 39.0249 38.2166 38.9961 38.2454C39.2121 38.5046 39.4425 38.7638 39.6729 39.023C40.9113 40.4198 42.3369 41.8166 44.1225 42.8678Z" fill="url(#paint6_linear_1452_1132)"/>
<path d="M40.4628 39.2102C41.514 40.391 42.6372 41.4278 43.8468 42.2198C45.0564 43.0118 46.3524 43.5446 47.6484 43.7606C48.2964 43.8758 48.93 43.9046 49.5492 43.8902C50.1684 43.8758 50.7732 43.8182 51.3492 43.7174C52.5012 43.5158 53.538 43.1558 54.4164 42.6518C55.2948 42.1622 56.0004 41.5574 56.5476 40.9094C57.0948 40.2758 57.498 39.6134 57.7716 39.0086C58.3332 37.7702 58.4916 36.7478 58.5636 36.0566C58.578 35.9702 58.578 35.8982 58.578 35.8262C58.5636 35.8262 58.5636 35.8262 58.5492 35.8262C58.362 37.871 57.5988 39.8294 56.202 41.2406C55.4388 42.0182 54.5316 42.623 53.538 43.0262C52.5444 43.4294 51.5076 43.6598 50.4564 43.7462C49.4052 43.8326 48.3684 43.8038 47.3892 43.6022C46.3956 43.4006 45.474 43.0262 44.61 42.551C42.8964 41.6006 41.4852 40.2614 40.2468 38.9078C39.9444 38.5766 39.6564 38.2454 39.3828 37.9142C39.7284 38.3606 40.0884 38.7926 40.4628 39.2102Z" fill="url(#paint7_linear_1452_1132)"/>
<path d="M43.6429 43.6334C44.6077 44.1662 45.6877 44.6126 46.8397 44.843C47.9917 45.0878 49.2157 45.1022 50.3533 44.9726C51.5053 44.843 52.6861 44.555 53.7949 44.051C54.8893 43.547 55.9117 42.7982 56.7037 41.8766C57.4957 40.955 58.0573 39.8462 58.3597 38.6942C58.6045 37.7726 58.6909 36.8078 58.6477 35.8574C58.6477 35.9438 58.6477 36.0302 58.6477 36.1166C58.6333 36.8222 58.5469 37.9166 58.0429 39.2558C57.7837 39.9182 57.4093 40.6526 56.8333 41.3582C56.2717 42.0638 55.5229 42.7694 54.5869 43.3454C53.6509 43.9214 52.5277 44.3678 51.2749 44.6126C50.6557 44.7422 50.0077 44.8142 49.3309 44.8574C48.6541 44.9006 47.9197 44.8718 47.1997 44.7566C45.7309 44.5406 44.2477 43.9502 42.9085 43.0862C41.5693 42.2222 40.3453 41.1134 39.2221 39.9038C38.8765 39.5294 38.5309 39.1406 38.1997 38.7374C38.1709 38.7518 38.1421 38.7662 38.1133 38.7662C38.3725 39.0686 38.6317 39.3854 38.9053 39.6878C40.2013 41.0846 41.6989 42.539 43.6429 43.6334Z" fill="url(#paint8_linear_1452_1132)"/>
<path d="M39.7157 39.843C40.8245 41.0526 42.0053 42.1326 43.3301 42.9678C44.6405 43.803 46.0805 44.3502 47.5061 44.5518C48.2117 44.6526 48.9173 44.667 49.5653 44.6238C50.2277 44.595 50.8613 44.5086 51.4661 44.379C52.6757 44.1198 53.7845 43.6878 54.6917 43.1262C55.6133 42.5646 56.3333 41.8734 56.8805 41.1822C57.4277 40.4766 57.8021 39.771 58.0469 39.123C58.5509 37.8126 58.6229 36.747 58.6373 36.0702C58.6373 35.9838 58.6373 35.9118 58.6373 35.8398C58.6229 35.8398 58.6085 35.8398 58.5941 35.8398C58.5797 37.9134 57.9173 39.987 56.5349 41.5566C55.7717 42.4206 54.8213 43.1118 53.7845 43.587C52.7477 44.0766 51.6245 44.3502 50.5301 44.4798C49.4357 44.6094 48.3125 44.6094 47.2181 44.4078C46.1381 44.2062 45.1013 43.8174 44.1653 43.3278C42.2933 42.3342 40.7957 40.9518 39.4997 39.5694C39.1829 39.2238 38.8805 38.8782 38.5781 38.5326C38.9525 38.9646 39.3269 39.411 39.7157 39.843Z" fill="url(#paint9_linear_1452_1132)"/>
<path d="M58.6634 35.8269C58.721 36.7629 58.649 37.6989 58.433 38.6205C58.1594 39.7725 57.641 40.8813 56.8778 41.8317C56.1146 42.7821 55.121 43.5597 54.0266 44.1213C52.9322 44.6829 51.7514 44.9997 50.5994 45.1725C50.009 45.2589 49.4474 45.3021 48.8426 45.3165C48.2378 45.3165 47.633 45.2733 47.0426 45.1725C45.8618 44.9853 44.7242 44.5821 43.7162 44.0637C41.6858 43.0269 40.1018 41.5869 38.7626 40.1757C38.3594 39.7581 37.985 39.3261 37.625 38.9085C38.057 39.4413 38.5034 39.9741 38.9786 40.4637C40.1306 41.7021 41.3978 42.8397 42.8234 43.7037C44.2346 44.5677 45.833 45.1437 47.3738 45.3309C48.137 45.4317 48.929 45.4317 49.5914 45.3597C50.2826 45.3021 50.9594 45.2013 51.593 45.0429C52.8746 44.7405 54.0266 44.2365 54.977 43.5885C55.9274 42.9549 56.6618 42.1917 57.209 41.4285C57.7418 40.6653 58.1018 39.9021 58.3178 39.2109C58.7642 37.8285 58.7498 36.7341 58.721 36.0429C58.721 35.9853 58.7066 35.9277 58.7066 35.8845C58.7066 35.8557 58.7066 35.8269 58.6922 35.8125C58.6922 35.8269 58.6778 35.8269 58.6634 35.8269Z" fill="url(#paint10_linear_1452_1132)"/>
<path d="M58.3052 39.3549C58.0604 40.0605 57.7148 40.8381 57.1532 41.6157C56.5916 42.3933 55.8284 43.1709 54.8492 43.8045C53.87 44.4525 52.6892 44.9565 51.3644 45.2589C50.702 45.4173 50.0252 45.5181 49.3196 45.5757C48.5996 45.6333 47.8076 45.6189 47.0156 45.5181C45.4172 45.3165 43.8044 44.6973 42.3644 43.7901C40.91 42.8973 39.6284 41.7453 38.462 40.4925C38.0012 40.0029 37.5692 39.4989 37.1516 38.9949C37.1228 38.9949 37.094 39.0093 37.0652 39.0093C37.0652 39.0093 37.0652 39.0093 37.0508 39.0237C37.4108 39.4413 37.7708 39.8733 38.1596 40.2909C39.4988 41.7453 41.0828 43.2573 43.1852 44.3805C44.222 44.9421 45.4028 45.3885 46.6556 45.6189C47.9084 45.8637 49.2332 45.8349 50.414 45.6621C51.638 45.4893 52.8764 45.1581 54.0284 44.5677C55.1804 43.9917 56.246 43.1565 57.038 42.1485C57.83 41.1261 58.3628 39.9453 58.6076 38.7357C58.7948 37.7997 58.8236 36.8493 58.7228 35.9277C58.7228 35.9853 58.7372 36.0285 58.7372 36.0861C58.766 36.8205 58.766 37.9293 58.3052 39.3549Z" fill="url(#paint11_linear_1452_1132)"/>
<path d="M58.7058 35.9126C58.7058 35.927 58.7058 35.9414 58.7058 35.9414C58.7058 35.8982 58.7058 35.8694 58.6914 35.8262C58.7058 35.855 58.7058 35.8838 58.7058 35.9126Z" fill="url(#paint12_linear_1452_1132)"/>
<path d="M37.5977 38.9082L37.6121 38.9226C37.6121 38.9226 37.6121 38.9082 37.5977 38.9082Z" fill="url(#paint13_linear_1452_1132)"/>
<path d="M58.7235 36.071C58.7523 36.7766 58.7667 37.8566 58.3203 39.239C58.0899 39.9302 57.7443 40.6934 57.2115 41.4566C56.6787 42.2198 55.9299 42.9686 54.9795 43.6166C54.0291 44.2502 52.8771 44.7686 51.5955 45.071C50.9475 45.2294 50.2851 45.3302 49.5939 45.3878C48.9171 45.4454 48.1251 45.4454 47.3763 45.359C45.8211 45.1862 44.2371 44.6102 42.8259 43.7318C41.4003 42.8678 40.1331 41.7302 38.9811 40.4918C38.5059 39.9878 38.0595 39.4694 37.6275 38.9366L37.6131 38.9222C37.4691 38.9654 37.3107 38.9942 37.1523 39.023C37.5843 39.527 38.0163 40.031 38.4627 40.5206C39.6291 41.7734 40.9107 42.9254 42.3651 43.8182C43.8051 44.711 45.4323 45.3302 47.0163 45.5462C47.8083 45.6614 48.6003 45.6614 49.3203 45.6038C50.0259 45.5462 50.7171 45.4454 51.3651 45.287C52.6755 44.9846 53.8707 44.4806 54.8499 43.8326C55.8291 43.1846 56.5923 42.4214 57.1539 41.6438C57.7155 40.8662 58.0611 40.0886 58.3059 39.383C58.7667 37.9574 58.7523 36.8486 58.7235 36.1286C58.7235 36.071 58.7235 36.0278 58.7091 35.9702C58.7091 35.9558 58.7091 35.9414 58.7091 35.9414C58.7235 35.9558 58.7235 36.0134 58.7235 36.071Z" fill="url(#paint14_linear_1452_1132)"/>
<path d="M58.7235 36.071C58.7523 36.7766 58.7667 37.8566 58.3203 39.239C58.0899 39.9302 57.7443 40.6934 57.2115 41.4566C56.6787 42.2198 55.9299 42.9686 54.9795 43.6166C54.0291 44.2502 52.8771 44.7686 51.5955 45.071C50.9475 45.2294 50.2851 45.3302 49.5939 45.3878C48.9171 45.4454 48.1251 45.4454 47.3763 45.359C45.8211 45.1862 44.2371 44.6102 42.8259 43.7318C41.4003 42.8678 40.1331 41.7302 38.9811 40.4918C38.5059 39.9878 38.0595 39.4694 37.6275 38.9366L37.6131 38.9222C37.4691 38.9654 37.3107 38.9942 37.1523 39.023C37.5843 39.527 38.0163 40.031 38.4627 40.5206C39.6291 41.7734 40.9107 42.9254 42.3651 43.8182C43.8051 44.711 45.4323 45.3302 47.0163 45.5462C47.8083 45.6614 48.6003 45.6614 49.3203 45.6038C50.0259 45.5462 50.7171 45.4454 51.3651 45.287C52.6755 44.9846 53.8707 44.4806 54.8499 43.8326C55.8291 43.1846 56.5923 42.4214 57.1539 41.6438C57.7155 40.8662 58.0611 40.0886 58.3059 39.383C58.7667 37.9574 58.7523 36.8486 58.7235 36.1286C58.7235 36.071 58.7235 36.0278 58.7091 35.9702C58.7091 35.9558 58.7091 35.9414 58.7091 35.9414C58.7235 35.9558 58.7235 36.0134 58.7235 36.071Z" fill="url(#paint15_linear_1452_1132)"/>
<path d="M58.6367 36.071C58.6223 36.7622 58.5503 37.8134 58.0463 39.1238C57.7871 39.7718 57.4271 40.4774 56.8799 41.183C56.3327 41.8742 55.6127 42.5654 54.6911 43.127C53.7839 43.6886 52.6895 44.135 51.4655 44.3798C50.8607 44.5094 50.2271 44.5814 49.5647 44.6246C48.9167 44.6678 48.2111 44.6534 47.5055 44.5526C46.0799 44.351 44.6399 43.8038 43.3295 42.9686C42.0191 42.1334 40.8239 41.0534 39.7151 39.8438C39.3263 39.4118 38.9519 38.9654 38.5775 38.519C38.4479 38.591 38.3327 38.6486 38.2031 38.7062C38.5343 39.1094 38.8799 39.4982 39.2255 39.8726C40.3487 41.0966 41.5583 42.2054 42.9119 43.055C44.2511 43.919 45.7343 44.5094 47.2031 44.7254C47.9375 44.8406 48.6575 44.8694 49.3343 44.8262C50.0111 44.7974 50.6591 44.711 51.2783 44.5814C52.5167 44.3366 53.6543 43.8902 54.5903 43.3142C55.5263 42.7382 56.2751 42.047 56.8367 41.327C57.3983 40.607 57.7727 39.887 58.0463 39.2246C58.5647 37.8854 58.6367 36.8054 58.6511 36.0854C58.6511 35.9846 58.6511 35.8982 58.6511 35.8262C58.6367 35.8982 58.6367 35.9846 58.6367 36.071Z" fill="url(#paint16_linear_1452_1132)"/>
<path d="M58.6367 36.071C58.6223 36.7622 58.5503 37.8134 58.0463 39.1238C57.7871 39.7718 57.4271 40.4774 56.8799 41.183C56.3327 41.8742 55.6127 42.5654 54.6911 43.127C53.7839 43.6886 52.6895 44.135 51.4655 44.3798C50.8607 44.5094 50.2271 44.5814 49.5647 44.6246C48.9167 44.6678 48.2111 44.6534 47.5055 44.5526C46.0799 44.351 44.6399 43.8038 43.3295 42.9686C42.0191 42.1334 40.8239 41.0534 39.7151 39.8438C39.3263 39.4118 38.9519 38.9654 38.5775 38.519C38.4479 38.591 38.3327 38.6486 38.2031 38.7062C38.5343 39.1094 38.8799 39.4982 39.2255 39.8726C40.3487 41.0966 41.5583 42.2054 42.9119 43.055C44.2511 43.919 45.7343 44.5094 47.2031 44.7254C47.9375 44.8406 48.6575 44.8694 49.3343 44.8262C50.0111 44.7974 50.6591 44.711 51.2783 44.5814C52.5167 44.3366 53.6543 43.8902 54.5903 43.3142C55.5263 42.7382 56.2751 42.047 56.8367 41.327C57.3983 40.607 57.7727 39.887 58.0463 39.2246C58.5647 37.8854 58.6367 36.8054 58.6511 36.0854C58.6511 35.9846 58.6511 35.8982 58.6511 35.8262C58.6367 35.8982 58.6367 35.9846 58.6367 36.071Z" fill="url(#paint17_linear_1452_1132)"/>
<path d="M58.5496 36.0566C58.4776 36.7334 58.3192 37.7702 57.7576 39.0086C57.4696 39.6278 57.0808 40.2758 56.5336 40.9094C55.9864 41.543 55.2664 42.1478 54.4024 42.6518C53.524 43.1414 52.4872 43.5158 51.3352 43.7174C50.7592 43.8182 50.1544 43.8758 49.5352 43.8902C48.916 43.9046 48.2824 43.8758 47.6344 43.7606C46.3384 43.5446 45.0424 43.0118 43.8328 42.2198C42.6232 41.4278 41.5 40.391 40.4488 39.2102C40.0744 38.807 39.7144 38.375 39.3688 37.9286C39.268 38.0294 39.1672 38.1158 39.0664 38.1878C39.3688 38.5478 39.6568 38.8934 39.9736 39.2246C41.0536 40.4198 42.1912 41.4854 43.4296 42.3062C44.668 43.127 46.0072 43.6886 47.3464 43.919C48.6856 44.1494 49.9672 44.0774 51.148 43.8902C52.3288 43.6886 53.3944 43.3142 54.2872 42.8102C55.1944 42.3062 55.9144 41.687 56.4904 41.039C57.052 40.391 57.4552 39.7142 57.7432 39.095C58.3192 37.8278 58.4776 36.7766 58.5496 36.0854C58.564 35.999 58.564 35.9126 58.564 35.8262C58.564 35.8982 58.5496 35.9702 58.5496 36.0566Z" fill="url(#paint18_linear_1452_1132)"/>
<path d="M58.5496 36.0566C58.4776 36.7334 58.3192 37.7702 57.7576 39.0086C57.4696 39.6278 57.0808 40.2758 56.5336 40.9094C55.9864 41.543 55.2664 42.1478 54.4024 42.6518C53.524 43.1414 52.4872 43.5158 51.3352 43.7174C50.7592 43.8182 50.1544 43.8758 49.5352 43.8902C48.916 43.9046 48.2824 43.8758 47.6344 43.7606C46.3384 43.5446 45.0424 43.0118 43.8328 42.2198C42.6232 41.4278 41.5 40.391 40.4488 39.2102C40.0744 38.807 39.7144 38.375 39.3688 37.9286C39.268 38.0294 39.1672 38.1158 39.0664 38.1878C39.3688 38.5478 39.6568 38.8934 39.9736 39.2246C41.0536 40.4198 42.1912 41.4854 43.4296 42.3062C44.668 43.127 46.0072 43.6886 47.3464 43.919C48.6856 44.1494 49.9672 44.0774 51.148 43.8902C52.3288 43.6886 53.3944 43.3142 54.2872 42.8102C55.1944 42.3062 55.9144 41.687 56.4904 41.039C57.052 40.391 57.4552 39.7142 57.7432 39.095C58.3192 37.8278 58.4776 36.7766 58.5496 36.0854C58.564 35.999 58.564 35.9126 58.564 35.8262C58.564 35.8982 58.5496 35.9702 58.5496 36.0566Z" fill="url(#paint19_linear_1452_1132)"/>
<path d="M58.4646 36.0414C58.335 36.7182 58.1046 37.7262 57.4854 38.8782C56.8662 40.0302 55.8006 41.3118 54.1158 42.1614C53.2806 42.579 52.3014 42.8814 51.2214 43.0254C50.1414 43.155 48.9318 43.1838 47.7798 42.9534C46.6134 42.723 45.4614 42.219 44.3526 41.4558C43.2438 40.707 42.207 39.699 41.199 38.5614C40.7958 38.1006 40.407 37.6254 40.0182 37.1358C39.9462 37.251 39.8598 37.3662 39.7734 37.4814C40.0902 37.8702 40.407 38.2302 40.7238 38.5902C41.7606 39.7566 42.8262 40.779 43.9638 41.5566C45.1014 42.3342 46.2966 42.867 47.5062 43.1262C48.111 43.2558 48.7014 43.3134 49.2918 43.3134C49.8966 43.3134 50.4726 43.2846 51.0198 43.2126C52.1286 43.0686 53.1366 42.7518 54.0006 42.3342C55.7286 41.4702 56.8374 40.1598 57.4566 38.9934C58.0902 37.8126 58.3206 36.7758 58.4502 36.099C58.4646 36.0126 58.479 35.9262 58.4934 35.8398C58.479 35.883 58.479 35.9694 58.4646 36.0414Z" fill="url(#paint20_linear_1452_1132)"/>
<path d="M58.4646 36.0414C58.335 36.7182 58.1046 37.7262 57.4854 38.8782C56.8662 40.0302 55.8006 41.3118 54.1158 42.1614C53.2806 42.579 52.3014 42.8814 51.2214 43.0254C50.1414 43.155 48.9318 43.1838 47.7798 42.9534C46.6134 42.723 45.4614 42.219 44.3526 41.4558C43.2438 40.707 42.207 39.699 41.199 38.5614C40.7958 38.1006 40.407 37.6254 40.0182 37.1358C39.9462 37.251 39.8598 37.3662 39.7734 37.4814C40.0902 37.8702 40.407 38.2302 40.7238 38.5902C41.7606 39.7566 42.8262 40.779 43.9638 41.5566C45.1014 42.3342 46.2966 42.867 47.5062 43.1262C48.111 43.2558 48.7014 43.3134 49.2918 43.3134C49.8966 43.3134 50.4726 43.2846 51.0198 43.2126C52.1286 43.0686 53.1366 42.7518 54.0006 42.3342C55.7286 41.4702 56.8374 40.1598 57.4566 38.9934C58.0902 37.8126 58.3206 36.7758 58.4502 36.099C58.4646 36.0126 58.479 35.9262 58.4934 35.8398C58.479 35.883 58.479 35.9694 58.4646 36.0414Z" fill="url(#paint21_linear_1452_1132)"/>
<path d="M40.8353 36.5768C40.7057 36.4184 40.5905 36.26 40.4609 36.1016V36.116C40.5761 36.26 40.7057 36.4184 40.8353 36.5768Z" fill="url(#paint22_linear_1452_1132)"/>
<path d="M58.3623 36.0429C58.1895 36.7053 57.8727 37.6845 57.1959 38.7645C56.5191 39.8445 55.4103 40.9821 53.8119 41.6877C53.0055 42.0333 52.0839 42.2637 51.0759 42.3645C50.0679 42.4509 48.9159 42.4221 47.9079 42.1773C46.8711 41.9325 45.8487 41.4429 44.8551 40.7229C43.8615 40.0029 42.8967 39.0525 41.9463 37.9293C41.5719 37.4973 41.2119 37.0509 40.8375 36.5757C40.7079 36.4173 40.5927 36.2733 40.4631 36.1149C40.4199 36.2733 40.3767 36.4173 40.3047 36.5757C40.6935 37.0653 41.0823 37.5261 41.4711 37.9725C42.4647 39.1101 43.4583 40.0749 44.4951 40.8237C45.5319 41.5725 46.5975 42.0765 47.6631 42.3357C48.2103 42.4653 48.7287 42.5373 49.2759 42.5517C49.8375 42.5805 50.3847 42.5661 50.9031 42.5229C51.9399 42.4221 52.8903 42.1917 53.7111 41.8317C55.3671 41.1261 56.4903 39.9597 57.1671 38.8653C57.8583 37.7565 58.1751 36.7629 58.3623 36.0861C58.3911 35.9853 58.4055 35.8989 58.4343 35.8125C58.4055 35.8701 58.3911 35.9565 58.3623 36.0429Z" fill="url(#paint23_linear_1452_1132)"/>
<path d="M58.3623 36.0429C58.1895 36.7053 57.8727 37.6845 57.1959 38.7645C56.5191 39.8445 55.4103 40.9821 53.8119 41.6877C53.0055 42.0333 52.0839 42.2637 51.0759 42.3645C50.0679 42.4509 48.9159 42.4221 47.9079 42.1773C46.8711 41.9325 45.8487 41.4429 44.8551 40.7229C43.8615 40.0029 42.8967 39.0525 41.9463 37.9293C41.5719 37.4973 41.2119 37.0509 40.8375 36.5757C40.7079 36.4173 40.5927 36.2733 40.4631 36.1149C40.4199 36.2733 40.3767 36.4173 40.3047 36.5757C40.6935 37.0653 41.0823 37.5261 41.4711 37.9725C42.4647 39.1101 43.4583 40.0749 44.4951 40.8237C45.5319 41.5725 46.5975 42.0765 47.6631 42.3357C48.2103 42.4653 48.7287 42.5373 49.2759 42.5517C49.8375 42.5805 50.3847 42.5661 50.9031 42.5229C51.9399 42.4221 52.8903 42.1917 53.7111 41.8317C55.3671 41.1261 56.4903 39.9597 57.1671 38.8653C57.8583 37.7565 58.1751 36.7629 58.3623 36.0861C58.3911 35.9853 58.4055 35.8989 58.4343 35.8125C58.4055 35.8701 58.3911 35.9565 58.3623 36.0429Z" fill="url(#paint24_linear_1452_1132)"/>
<path d="M40.393 33.9847C41.9338 32.0839 45.3034 28.3687 48.2122 27.9943C48.2122 27.9943 56.3914 26.1943 58.4218 34.3735C58.465 34.3447 58.5802 35.4103 58.6378 35.3959C58.681 35.3815 58.5802 35.3383 58.7098 34.2583C58.9114 32.6599 58.9402 28.8295 55.1098 26.1799C55.1098 26.1799 49.2058 22.2775 43.0426 25.8631C42.0058 26.4679 40.2922 27.4039 37.0234 31.2055C37.8874 31.3207 38.7082 31.6951 39.3706 32.3287C39.8602 32.8039 40.2058 33.3655 40.393 33.9847Z" fill="url(#paint25_linear_1452_1132)"/>
<path d="M32.7059 36.6199C31.0499 38.5927 27.9971 41.8183 25.3043 42.1639C25.3043 42.1639 17.1683 43.9639 15.1667 35.7559C15.0803 35.7991 14.9939 35.8279 14.8931 35.8279C14.6771 37.3975 14.6195 41.2711 18.4643 43.9639C18.4643 43.9639 24.3251 47.8663 30.4451 44.2807C31.4675 43.6759 33.1523 42.7543 36.3491 39.0247C35.3411 38.9959 34.3475 38.6215 33.5843 37.8727C33.1955 37.5127 32.9075 37.0807 32.7059 36.6199Z" fill="url(#paint26_linear_1452_1132)"/>
<path d="M40.0183 37.1374L40.0039 37.123C40.0039 37.123 40.0039 37.1374 40.0183 37.1374Z" fill="url(#paint27_linear_1452_1132)"/>
<path d="M40.0183 37.1374L40.0039 37.123C40.0039 37.123 40.0039 37.1374 40.0183 37.1374Z" fill="url(#paint28_linear_1452_1132)"/>
<path d="M35.438 29.8656C34.0988 28.4112 32.5148 26.8992 30.4124 25.776C29.3756 25.2144 28.1948 24.768 26.942 24.5376C25.6892 24.2928 24.3644 24.3216 23.1836 24.4944C21.9596 24.6672 20.7212 24.9984 19.5692 25.5888C18.4172 26.1648 17.3516 27 16.5596 28.008C15.7676 29.0304 15.2348 30.2112 14.99 31.4208C14.7884 32.4288 14.7596 33.4512 14.918 34.4448C14.9468 34.6464 14.9756 34.8336 15.0188 35.0208C14.99 34.8192 14.9612 34.632 14.9468 34.4304C14.8604 33.4656 14.9324 32.4864 15.1628 31.536C15.4364 30.384 15.9548 29.2752 16.718 28.3248C17.4812 27.3744 18.4748 26.5968 19.5692 26.0352C20.6636 25.4736 21.8444 25.1568 22.9964 24.984C23.5868 24.8976 24.1484 24.8544 24.7532 24.84C25.358 24.84 25.9628 24.8832 26.5532 24.984C27.734 25.1712 28.8716 25.5744 29.8796 26.0928C31.91 27.1296 33.494 28.5696 34.8332 29.9808C35.222 30.3984 35.5964 30.8016 35.942 31.2192C36.1292 31.1904 36.3164 31.176 36.5036 31.176C36.518 31.1616 36.518 31.1616 36.5324 31.1472C36.1868 30.7152 35.8268 30.2832 35.438 29.8656Z" fill="url(#paint29_linear_1452_1132)"/>
<path d="M14.9934 34.4299C14.9934 32.3275 15.6414 30.2107 17.0526 28.6123C17.8158 27.7483 18.7662 27.0571 19.803 26.5819C20.8398 26.0923 21.963 25.8187 23.0574 25.6891C24.1518 25.5595 25.275 25.5595 26.3694 25.7611C27.4494 25.9627 28.4862 26.3515 29.4222 26.8411C31.2942 27.8347 32.7918 29.2171 34.0878 30.5995C34.3614 30.9019 34.635 31.1899 34.8942 31.4923C35.0526 31.4203 35.2254 31.3627 35.3982 31.3051C35.1678 31.0315 34.923 30.7579 34.6782 30.4843C33.3822 29.0587 31.8846 27.6043 29.9406 26.5099C28.9758 25.9771 27.8958 25.5307 26.7438 25.3003C25.5918 25.0555 24.3678 25.0411 23.2302 25.1707C22.0782 25.3003 20.8974 25.5883 19.7886 26.0923C18.6942 26.5963 17.6718 27.3451 16.8798 28.2667C16.0878 29.1883 15.5262 30.2971 15.2238 31.4491C14.9646 32.4139 14.8782 33.4075 14.9502 34.3867C14.9646 34.5883 14.979 34.7755 15.0078 34.9771C15.0078 34.8187 14.9934 34.6315 14.9934 34.4299Z" fill="url(#paint30_linear_1452_1132)"/>
<path d="M15.144 34.4455C15.3888 33.5095 15.7056 32.6455 16.1376 31.8679C16.656 30.9319 17.304 30.1399 18.0672 29.5207C19.5792 28.2967 21.4368 27.8503 23.28 27.8359C23.7264 27.8359 24.2304 27.8503 24.6336 27.9079C25.0512 27.9511 25.4688 28.0375 25.8576 28.1527C26.6496 28.3831 27.384 28.7143 28.0896 29.1463C29.4864 30.0103 30.7248 31.2343 31.8624 32.5303C32.1792 32.8903 32.4816 33.2503 32.784 33.6247C32.856 33.4519 32.9424 33.2935 33.0288 33.1351C32.8272 32.8903 32.6256 32.6455 32.424 32.4007C31.272 31.0615 30.0192 29.7655 28.536 28.8151C27.8016 28.3399 27.0096 27.9655 26.16 27.7063C25.3104 27.4471 24.4176 27.3463 23.4096 27.3607C21.4656 27.3751 19.464 27.8935 17.9088 29.2327C17.1312 29.8951 16.4688 30.7591 15.9792 31.7383C15.576 32.5591 15.288 33.4663 15.1008 34.4311C15.0576 34.6183 15.0288 34.8199 15 35.0215C15.0432 34.8199 15.1008 34.6327 15.144 34.4455Z" fill="url(#paint31_linear_1452_1132)"/>
<path d="M15.0915 34.4311C15.4371 32.3575 16.3299 30.4855 17.7267 29.2183C19.2387 27.8071 21.2403 27.2023 23.1987 27.1159C24.1923 27.0727 25.1427 27.1303 26.0211 27.3463C26.9139 27.5623 27.7491 27.9223 28.5267 28.3687C30.0819 29.2759 31.4067 30.5575 32.6019 31.8823C32.8467 32.1559 33.0771 32.4295 33.3219 32.7031C33.4227 32.5735 33.5379 32.4439 33.6531 32.3287C33.4947 32.1415 33.3363 31.9543 33.1779 31.7671C31.9827 30.3991 30.6435 29.0455 29.0019 28.0519C28.1811 27.5623 27.3027 27.1591 26.3523 26.9143C25.4019 26.6695 24.3939 26.5975 23.3571 26.6407C21.2979 26.7271 19.1523 27.3895 17.5683 28.9159C16.1139 30.2983 15.2787 32.2999 15.0627 34.4167C15.0483 34.6183 15.0339 34.8055 15.0195 35.0071C15.0339 34.8199 15.0627 34.6327 15.0915 34.4311Z" fill="url(#paint32_linear_1452_1132)"/>
<path d="M15.0432 34.4309C15.216 32.3429 15.9792 30.3413 17.3904 28.9157C18.1536 28.1381 19.0608 27.5333 20.0544 27.1301C21.048 26.7269 22.0848 26.4965 23.136 26.4101C24.1872 26.3237 25.224 26.3525 26.2032 26.5541C27.1968 26.7557 28.1184 27.1301 28.9824 27.6053C30.696 28.5557 32.1072 29.8949 33.3456 31.2485C33.576 31.5077 33.8064 31.7669 34.0224 32.0117C34.152 31.9109 34.296 31.8101 34.44 31.7237C34.2672 31.5221 34.0944 31.3205 33.9216 31.1189C32.6688 29.7221 31.2576 28.3253 29.472 27.2741C28.5792 26.7557 27.6 26.3381 26.5488 26.1077C25.4976 25.8629 24.3888 25.8197 23.2944 25.9061C22.2 25.9925 21.0912 26.2373 20.04 26.6693C18.9888 27.1013 18.024 27.7493 17.232 28.5989C15.7632 30.1397 15.0432 32.2709 15 34.4165C15 34.6181 15 34.8053 15 35.0069C15.0144 34.8197 15.0288 34.6181 15.0432 34.4309Z" fill="url(#paint33_linear_1452_1132)"/>
<path d="M36.5464 37.7431C37.9699 37.7431 39.124 36.5891 39.124 35.1655C39.124 33.7419 37.9699 32.5879 36.5464 32.5879C35.1228 32.5879 33.9688 33.7419 33.9688 35.1655C33.9688 36.5891 35.1228 37.7431 36.5464 37.7431Z" fill="url(#paint34_linear_1452_1132)"/>
<path d="M15.0327 36.1573C15.4542 36.1573 15.7959 35.8156 15.7959 35.3941C15.7959 34.9726 15.4542 34.6309 15.0327 34.6309C14.6112 34.6309 14.2695 34.9726 14.2695 35.3941C14.2695 35.8156 14.6112 36.1573 15.0327 36.1573Z" fill="url(#paint35_linear_1452_1132)"/>
<path d="M58.5796 36.1573C59.0011 36.1573 59.3428 35.8156 59.3428 35.3941C59.3428 34.9726 59.0011 34.6309 58.5796 34.6309C58.1581 34.6309 57.8164 34.9726 57.8164 35.3941C57.8164 35.8156 58.1581 36.1573 58.5796 36.1573Z" fill="url(#paint36_linear_1452_1132)"/>
<path d="M6.509 57.7589C6.0914 57.7589 5.7314 57.7301 5.4002 57.6725C5.069 57.6149 4.781 57.5429 4.5218 57.4565C4.2626 57.3701 4.0322 57.2549 3.8162 57.1397C3.6146 57.0245 3.413 56.8949 3.2402 56.7653L3.125 55.6853H3.1826C3.2546 55.8869 3.3986 56.0885 3.6002 56.3189C3.8162 56.5349 4.061 56.7365 4.3634 56.9237C4.6658 57.1109 4.997 57.2549 5.3714 57.3845C5.7458 57.4997 6.1202 57.5573 6.4946 57.5573C7.0274 57.5573 7.445 57.4997 7.7618 57.3845C8.0786 57.2693 8.3234 57.1109 8.4962 56.9237C8.669 56.7365 8.7842 56.5349 8.8418 56.3189C8.8994 56.1029 8.9282 55.8869 8.9282 55.6853C8.9282 55.3973 8.8562 55.1669 8.6978 54.9653C8.5394 54.7781 8.3378 54.6053 8.0786 54.4757C7.8194 54.3461 7.5314 54.2309 7.2002 54.1301C6.869 54.0293 6.5378 53.9429 6.1922 53.8565C5.8466 53.7701 5.5154 53.6693 5.1842 53.5685C4.853 53.4677 4.565 53.3381 4.3058 53.1797C4.0466 53.0213 3.845 52.8341 3.6866 52.6181C3.5282 52.4021 3.4562 52.1141 3.4562 51.7973C3.4562 51.5381 3.5138 51.3077 3.6146 51.0773C3.7154 50.8469 3.8882 50.6453 4.1042 50.4725C4.3202 50.2997 4.5938 50.1557 4.925 50.0549C5.2562 49.9541 5.645 49.8965 6.077 49.8965C6.4658 49.8965 6.8258 49.9253 7.1426 49.9829C7.4594 50.0405 7.7474 50.1125 7.9922 50.1989C8.237 50.2853 8.4674 50.4005 8.6546 50.5157C8.8418 50.6309 9.0146 50.7605 9.1586 50.8901L9.2738 51.9701H9.2162C9.1442 51.7685 9.029 51.5669 8.8418 51.3365C8.6546 51.1205 8.4242 50.9189 8.165 50.7317C7.8914 50.5445 7.5746 50.4005 7.229 50.2709C6.8834 50.1557 6.4946 50.0981 6.077 50.0981C5.7314 50.0981 5.429 50.1413 5.1842 50.2277C4.925 50.3141 4.7234 50.4293 4.565 50.5733C4.4066 50.7173 4.277 50.8901 4.205 51.0773C4.1186 51.2645 4.0898 51.4805 4.0898 51.6965C4.0898 51.9557 4.1618 52.1573 4.3202 52.3301C4.4786 52.5029 4.6802 52.6469 4.9394 52.7621C5.1986 52.8917 5.4866 52.9925 5.8178 53.0789C6.149 53.1653 6.4802 53.2661 6.8258 53.3525C7.1714 53.4533 7.5026 53.5541 7.8338 53.6549C8.165 53.7701 8.453 53.8997 8.7122 54.0581C8.9714 54.2165 9.173 54.4181 9.3314 54.6485C9.4898 54.8789 9.5618 55.1525 9.5618 55.4981C9.5618 55.8149 9.5186 56.1173 9.4178 56.3909C9.3314 56.6645 9.1586 56.8949 8.9282 57.1109C8.6978 57.3125 8.381 57.4709 7.9922 57.5861C7.589 57.7013 7.0994 57.7589 6.509 57.7589Z" fill="url(#paint37_linear_1452_1132)"/>
<path d="M15.1617 57.7596C14.6145 57.7596 14.1105 57.6588 13.6353 57.4572C13.1601 57.2556 12.7425 56.9676 12.3825 56.6076C12.0225 56.2476 11.7489 55.83 11.5329 55.3548C11.3313 54.8796 11.2305 54.3612 11.2305 53.814C11.2305 53.2812 11.3313 52.7628 11.5329 52.2876C11.7345 51.8124 12.0225 51.3948 12.3825 51.0348C12.7425 50.6748 13.1601 50.4012 13.6353 50.1852C14.1105 49.9836 14.6289 49.8828 15.1617 49.8828C15.6945 49.8828 16.2129 49.9836 16.6881 50.1852C17.1633 50.3868 17.5809 50.6748 17.9409 51.0348C18.2865 51.3948 18.5745 51.8124 18.7761 52.2876C18.9777 52.7628 19.0785 53.2668 19.0785 53.814C19.0785 54.3612 18.9777 54.8652 18.7761 55.3548C18.5745 55.83 18.2865 56.2476 17.9409 56.6076C17.5953 56.9676 17.1777 57.2412 16.6881 57.4572C16.2129 57.6588 15.6945 57.7596 15.1617 57.7596ZM18.3729 54.0732C18.3729 53.6268 18.2865 53.166 18.1281 52.6908C17.9697 52.2156 17.7393 51.798 17.4513 51.4092C17.1633 51.0204 16.8033 50.718 16.3713 50.4588C15.9537 50.214 15.4641 50.0844 14.9313 50.0844C14.5281 50.0844 14.1537 50.1708 13.7937 50.3436C13.4337 50.5164 13.1169 50.7468 12.8289 51.0636C12.5553 51.366 12.3393 51.7404 12.1665 52.1724C12.0081 52.6044 11.9217 53.0796 11.9217 53.598C11.9217 54.0444 12.0081 54.5052 12.1665 54.9804C12.3249 55.4556 12.5553 55.8732 12.8433 56.262C13.1313 56.6508 13.4913 56.9676 13.9233 57.2124C14.3553 57.4572 14.8305 57.5724 15.3489 57.5724C15.7521 57.5724 16.1265 57.486 16.4865 57.3132C16.8465 57.1404 17.1633 56.91 17.4513 56.5932C17.7249 56.2908 17.9409 55.9164 18.1137 55.4844C18.2865 55.0668 18.3729 54.5916 18.3729 54.0732Z" fill="url(#paint38_linear_1452_1132)"/>
<path d="M21.3555 50.0693V50.0261H22.5075V50.0693C22.3923 50.1413 22.3203 50.2277 22.2915 50.3285C22.2771 50.4293 22.2627 50.5157 22.2627 50.5877V54.8933C22.2627 55.2821 22.2915 55.6421 22.3635 55.9733C22.4355 56.3045 22.5507 56.5781 22.6947 56.8085C22.8531 57.0389 23.0403 57.2261 23.2851 57.3413C23.5155 57.4709 23.8035 57.5285 24.1347 57.5285C24.4803 57.5285 24.7827 57.4709 25.0419 57.3701C25.3011 57.2549 25.5171 57.1109 25.7043 56.9381C25.8915 56.7509 26.0355 56.5349 26.1507 56.2901C26.2659 56.0453 26.3523 55.7717 26.4243 55.4981C26.4963 55.2245 26.5395 54.9365 26.5683 54.6485C26.5971 54.3605 26.6115 54.0725 26.6115 53.7989V50.5733C26.6115 50.5013 26.5971 50.4149 26.5827 50.3141C26.5683 50.2133 26.4963 50.1269 26.3667 50.0549V50.0117H27.5187V50.0549C27.4035 50.1269 27.3315 50.2133 27.3027 50.3141C27.2883 50.4149 27.2739 50.5013 27.2739 50.5733V57.0245C27.2739 57.0965 27.2883 57.1829 27.3027 57.2837C27.3171 57.3845 27.3891 57.4709 27.5187 57.5429V57.5861H26.3667V57.5429C26.4819 57.4709 26.5539 57.3845 26.5827 57.2837C26.5971 57.1829 26.6115 57.0965 26.6115 57.0245V55.5413C26.5395 55.8725 26.4531 56.1605 26.3235 56.4341C26.1939 56.7077 26.0355 56.9381 25.8339 57.1253C25.6323 57.3125 25.4019 57.4709 25.1139 57.5717C24.8403 57.6725 24.5235 57.7301 24.1491 57.7301C23.7459 57.7301 23.4003 57.6869 23.0835 57.5861C22.7667 57.4853 22.5075 57.3413 22.2915 57.1109C22.0755 56.8949 21.9027 56.6069 21.7875 56.2325C21.6723 55.8725 21.6147 55.4117 21.6147 54.8645V50.5589C21.6147 50.4869 21.6003 50.4005 21.5859 50.2997C21.5427 50.2421 21.4707 50.1413 21.3555 50.0693Z" fill="url(#paint39_linear_1452_1132)"/>
<path d="M29.8516 57.5839C29.9668 57.5119 30.0388 57.4255 30.0676 57.3247C30.082 57.2239 30.0964 57.1375 30.0964 57.0655V50.6143C30.0964 50.5423 30.082 50.4559 30.0676 50.3551C30.0532 50.2543 29.9812 50.1679 29.8516 50.0959V50.0527H32.4868C33.0196 50.0527 33.4804 50.1103 33.8692 50.2111C34.258 50.3263 34.5748 50.4703 34.8196 50.6719C35.0644 50.8591 35.2516 51.0895 35.3812 51.3487C35.5108 51.6079 35.5684 51.8959 35.5684 52.1983C35.5684 52.5007 35.5108 52.7887 35.3812 53.0479C35.2516 53.3071 35.0788 53.5375 34.8196 53.7247C34.5748 53.9119 34.258 54.0703 33.8692 54.1711C33.4804 54.2863 33.0196 54.3295 32.4868 54.3295H30.7732V57.0511C30.7732 57.1231 30.7876 57.2095 30.802 57.3103C30.8164 57.4111 30.8884 57.4975 31.018 57.5695V57.6127H29.866L29.8516 57.5839ZM30.7588 50.2111V54.1423H32.2852C32.7748 54.1423 33.1924 54.0847 33.5092 53.9551C33.8404 53.8255 34.0996 53.6671 34.2868 53.4655C34.4884 53.2639 34.618 53.0479 34.7044 52.7887C34.7908 52.5439 34.8196 52.2847 34.8196 52.0255C34.8196 51.4351 34.6324 50.9887 34.2724 50.6719C33.9124 50.3551 33.3076 50.1967 32.458 50.1967L30.7588 50.2111Z" fill="url(#paint40_linear_1452_1132)"/>
<path d="M37.8125 57.6135V57.5703C37.9277 57.4983 37.9997 57.4119 38.0285 57.3111C38.0429 57.2103 38.0573 57.1239 38.0573 57.0519V50.6007C38.0573 50.5287 38.0429 50.4423 38.0285 50.3415C38.0141 50.2407 37.9421 50.1543 37.8125 50.0823V50.0391H38.9645V50.0823C38.8493 50.1543 38.7773 50.2407 38.7485 50.3415C38.7341 50.4423 38.7197 50.5287 38.7197 50.6007V53.5959H43.1549V50.6007C43.1549 50.5287 43.1405 50.4423 43.1261 50.3415C43.1117 50.2407 43.0397 50.1543 42.9101 50.0823V50.0391H44.0621V50.0823C43.9469 50.1543 43.8749 50.2407 43.8461 50.3415C43.8317 50.4423 43.8173 50.5287 43.8173 50.6007V57.0519C43.8173 57.1239 43.8317 57.2103 43.8461 57.3111C43.8605 57.4119 43.9325 57.4983 44.0621 57.5703V57.6135H42.9101V57.5703C43.0253 57.4983 43.0973 57.4119 43.1261 57.3111C43.1405 57.2103 43.1549 57.1239 43.1549 57.0519V53.7831H38.7341V57.0519C38.7341 57.1239 38.7485 57.2103 38.7629 57.3111C38.7773 57.4119 38.8493 57.4983 38.9789 57.5703V57.6135H37.8125Z" fill="url(#paint41_linear_1452_1132)"/>
<path d="M53.1784 55.6997L53.0632 56.7797C52.9336 56.9093 52.7896 57.0245 52.6312 57.1541C52.4728 57.2693 52.2856 57.3845 52.0696 57.4709C51.8536 57.5573 51.6088 57.6437 51.3208 57.6869C51.0328 57.7301 50.7016 57.7733 50.2984 57.7733C49.7512 57.7733 49.2472 57.6725 48.772 57.4709C48.2968 57.2693 47.8792 56.9813 47.5192 56.6213C47.1592 56.2613 46.8856 55.8437 46.6696 55.3685C46.468 54.8933 46.3672 54.3749 46.3672 53.8277C46.3672 53.2949 46.468 52.7765 46.6696 52.3013C46.8712 51.8261 47.1592 51.4085 47.5192 51.0485C47.8792 50.6885 48.2968 50.4149 48.772 50.1989C49.2472 49.9973 49.7656 49.8965 50.2984 49.8965C50.6152 49.8965 50.9032 49.9253 51.1624 49.9829C51.4216 50.0405 51.652 50.1125 51.868 50.1989C52.084 50.2853 52.2712 50.4005 52.4296 50.5157C52.6024 50.6309 52.7464 50.7605 52.876 50.8901L52.9912 51.9701H52.9336C52.8616 51.7685 52.7608 51.5525 52.588 51.3365C52.4296 51.1205 52.228 50.9045 51.9832 50.7317C51.7384 50.5445 51.4648 50.4005 51.1336 50.2709C50.8168 50.1413 50.4568 50.0837 50.068 50.0837C49.6648 50.0837 49.2904 50.1701 48.9304 50.3429C48.5704 50.5157 48.2536 50.7461 47.9656 51.0629C47.692 51.3653 47.476 51.7397 47.3032 52.1717C47.1448 52.6037 47.0584 53.0789 47.0584 53.5973C47.0584 53.6405 47.0584 53.6837 47.0584 53.7413C47.0584 53.7845 47.0584 53.8421 47.0728 53.8853C47.2456 54.0149 47.4184 54.1157 47.5912 54.1733C47.764 54.2309 47.9224 54.2597 48.0952 54.2597C48.3832 54.2597 48.6712 54.1877 48.9592 54.0437C49.2328 53.8997 49.5208 53.7557 49.7944 53.5829C50.068 53.4101 50.356 53.2661 50.644 53.1221C50.932 52.9781 51.22 52.9061 51.508 52.9061C51.7384 52.9061 51.9832 52.9637 52.228 53.0789C52.4728 53.1941 52.7176 53.3957 52.9768 53.6981L52.8904 53.7701C52.732 53.6117 52.5736 53.5109 52.4152 53.4389C52.2568 53.3813 52.0984 53.3381 51.9544 53.3381C51.6952 53.3381 51.436 53.4101 51.1768 53.5397C50.9176 53.6693 50.6584 53.8277 50.3848 54.0005C50.1112 54.1733 49.8232 54.3173 49.5352 54.4613C49.2472 54.5909 48.9304 54.6629 48.6136 54.6629C48.3832 54.6629 48.1384 54.6197 47.8936 54.5189C47.6488 54.4325 47.3896 54.2597 47.116 54.0293C47.1592 54.4613 47.2744 54.8789 47.4616 55.2965C47.6488 55.7141 47.8792 56.0885 48.1672 56.4341C48.4552 56.7653 48.8008 57.0389 49.1896 57.2549C49.5784 57.4709 50.0248 57.5717 50.5144 57.5717C50.8456 57.5717 51.1624 57.5141 51.436 57.3845C51.724 57.2549 51.9832 57.1109 52.1992 56.9237C52.4296 56.7365 52.6168 56.5349 52.7752 56.3189C52.9336 56.1029 53.0488 55.8869 53.1208 55.6853L53.1784 55.6997Z" fill="url(#paint42_linear_1452_1132)"/>
<path d="M55.2578 57.5839C55.373 57.5119 55.445 57.4255 55.4738 57.3247C55.4882 57.2239 55.5026 57.1375 55.5026 57.0655V50.6143C55.5026 50.5423 55.4882 50.4559 55.4738 50.3551C55.4594 50.2543 55.3874 50.1679 55.2578 50.0959V50.0527H57.893C58.4258 50.0527 58.8866 50.0959 59.2754 50.1967C59.6642 50.2975 59.981 50.4271 60.2258 50.5999C60.4706 50.7727 60.6578 50.9743 60.7874 51.2191C60.917 51.4639 60.9746 51.7231 60.9746 52.0111C60.9746 52.6303 60.7442 53.1199 60.2978 53.4799C59.8514 53.8255 59.1314 54.0271 58.1666 54.0559C58.4978 54.1567 58.757 54.3151 58.9586 54.5311C59.1458 54.7471 59.3042 54.9631 59.4338 55.2079C59.5634 55.4527 59.6642 55.6975 59.7362 55.9567C59.8226 56.2159 59.909 56.4463 60.0098 56.6623C60.1106 56.8783 60.2402 57.0367 60.3986 57.1807C60.557 57.3103 60.773 57.3823 61.0322 57.3823C61.2194 57.3823 61.3922 57.3391 61.5218 57.2671C61.6514 57.1807 61.8242 57.0511 62.0114 56.8639L62.0978 56.9359C61.8962 57.2239 61.6946 57.4543 61.493 57.5983C61.2914 57.7423 61.0322 57.8143 60.7298 57.8143C60.341 57.8143 60.0386 57.7279 59.837 57.5407C59.6354 57.3535 59.477 57.1231 59.3618 56.8495C59.2466 56.5759 59.1602 56.2735 59.0882 55.9567C59.0162 55.6399 58.9154 55.3375 58.8002 55.0639C58.685 54.7903 58.4978 54.5599 58.2674 54.3727C58.037 54.1855 57.7058 54.0991 57.2882 54.0991H56.237V57.1231C56.237 57.1951 56.2514 57.2815 56.2658 57.3823C56.2802 57.4831 56.3522 57.5695 56.4818 57.6415V57.6847H55.3298L55.2578 57.5839ZM57.7058 53.8399C58.1954 53.8399 58.613 53.7823 58.9298 53.6815C59.261 53.5807 59.5202 53.4367 59.7074 53.2639C59.909 53.0911 60.0386 52.8895 60.125 52.6591C60.2114 52.4431 60.2402 52.1983 60.2402 51.9679C60.2402 51.3487 60.053 50.9023 59.693 50.6143C59.333 50.3407 58.7282 50.1967 57.8786 50.1967H56.165V53.8255L57.7058 53.8399Z" fill="url(#paint43_linear_1452_1132)"/>
<path d="M63.793 50.0391H66.025C66.5578 50.0391 67.0186 50.0823 67.4074 50.1831C67.7962 50.2839 68.113 50.4135 68.3578 50.5863C68.6026 50.7591 68.7898 50.9751 68.9194 51.2199C69.049 51.4647 69.1066 51.7383 69.1066 52.0263C69.1066 52.3143 69.0346 52.5735 68.905 52.8327C68.7754 53.0775 68.5594 53.2935 68.2858 53.4807C68.7034 53.6679 69.0202 53.9271 69.2074 54.2583C69.409 54.5895 69.4954 54.9495 69.4954 55.3671C69.4954 55.6839 69.4378 55.9863 69.3082 56.2599C69.1786 56.5335 69.0058 56.7639 68.7466 56.9799C68.5018 57.1815 68.185 57.3399 67.7962 57.4551C67.4074 57.5703 66.9466 57.6279 66.4138 57.6279H63.793V57.5847C63.9082 57.5127 63.9802 57.4263 64.009 57.3255C64.0234 57.2247 64.0378 57.1383 64.0378 57.0663V50.6151C64.0378 50.5431 64.0234 50.4567 64.009 50.3559C63.9946 50.2551 63.9226 50.1687 63.793 50.0967V50.0391ZM64.7146 50.2119V57.4407H66.4282C67.2778 57.4407 67.8826 57.2679 68.2426 56.9367C68.6026 56.6055 68.7898 56.1303 68.7898 55.5255C68.7898 55.1799 68.7178 54.8487 68.5882 54.5175C68.4586 54.1863 68.2282 53.9127 67.897 53.6967C67.6666 53.7975 67.393 53.8839 67.0762 53.9415C66.7594 53.9991 66.4138 54.0279 66.025 54.0279H65.8666C65.6218 54.0279 65.449 53.9991 65.3338 53.9271C65.2186 53.8551 65.1754 53.7399 65.1754 53.5815C65.1754 53.4231 65.233 53.3223 65.3338 53.2503C65.449 53.1783 65.6218 53.1495 65.8666 53.1495H66.4282C66.6874 53.1495 66.9322 53.1639 67.1626 53.1927C67.393 53.2215 67.5946 53.2647 67.7962 53.3079C68.0122 53.1207 68.1562 52.8903 68.257 52.6599C68.3434 52.4151 68.401 52.1703 68.401 51.9255C68.401 51.3495 68.2138 50.9319 67.8538 50.6439C67.4938 50.3703 66.889 50.2263 66.0394 50.2263L64.7146 50.2119ZM66.025 53.8407H66.0538C66.3706 53.8407 66.6586 53.8119 66.889 53.7543C67.1338 53.6967 67.3354 53.6103 67.5226 53.4951C67.3642 53.4375 67.2058 53.3943 67.0186 53.3655C66.8458 53.3367 66.6442 53.3223 66.4138 53.3223H66.0106C65.7514 53.3223 65.593 53.3367 65.4922 53.3655C65.4058 53.3943 65.3626 53.4663 65.3626 53.5815C65.3626 53.6967 65.4058 53.7687 65.4922 53.7975C65.6074 53.8263 65.7658 53.8407 66.025 53.8407Z" fill="url(#paint44_linear_1452_1132)"/>
<path d="M1.85938 59.7597L10.485 59.7021L19.1106 59.6733L36.3618 59.6445L53.613 59.6733L62.2386 59.7021L70.8642 59.7597L62.2386 59.8317L53.613 59.8605L36.3618 59.8893L19.1106 59.8605L10.485 59.8317L1.85938 59.7597Z" fill="url(#paint45_linear_1452_1132)"/>
<path d="M1.85938 67.8796L10.485 67.822L19.1106 67.7788L36.3618 67.75L53.613 67.7788L62.2386 67.822L70.8642 67.8796L62.2386 67.9372L53.613 67.9804L36.3618 68.0092L19.1106 67.9804L10.485 67.9372L1.85938 67.8796Z" fill="url(#paint46_linear_1452_1132)"/>
<path d="M3.33841 63.0712C3.36721 63.1144 3.42481 63.1576 3.49681 63.2008C3.55441 63.2296 3.61201 63.2728 3.69841 63.3016C3.78481 63.3304 3.87121 63.3592 3.98641 63.4024C4.18801 63.46 4.37521 63.532 4.50481 63.604C4.64881 63.676 4.76401 63.7624 4.86481 63.892C4.96561 64.0072 5.00881 64.1656 5.00881 64.3528C5.00881 64.5256 4.96561 64.684 4.87921 64.828C4.79281 64.972 4.66321 65.0872 4.49041 65.1592C4.33201 65.2456 4.14481 65.2888 3.92881 65.2888H3.81361C3.29521 65.2888 2.90641 64.9864 2.63281 64.3816L3.05041 64.1656C3.16561 64.3816 3.29521 64.5544 3.41041 64.6552C3.54001 64.7704 3.68401 64.828 3.87121 64.828C3.97201 64.828 4.07281 64.8136 4.17361 64.7704C4.27441 64.7272 4.34641 64.6696 4.40401 64.5976C4.46161 64.5256 4.49041 64.4536 4.49041 64.3816C4.49041 64.2952 4.46161 64.2232 4.38961 64.1656C4.33201 64.108 4.24561 64.0504 4.15921 64.0072C4.07281 63.964 3.94321 63.9208 3.78481 63.8632C3.56881 63.7912 3.39601 63.7192 3.26641 63.6616C3.13681 63.5896 3.02161 63.5032 2.92081 63.388C2.82001 63.2728 2.77681 63.1288 2.77681 62.9416C2.77681 62.7688 2.82001 62.6248 2.90641 62.4808C2.99281 62.3512 3.12241 62.236 3.28081 62.164C3.43921 62.092 3.61201 62.0488 3.81361 62.0488C4.04401 62.0488 4.24561 62.1064 4.43281 62.2216C4.60561 62.3368 4.79281 62.524 4.95121 62.7832L4.56241 63.0136C4.46161 62.884 4.37521 62.7832 4.31761 62.7256C4.26001 62.668 4.18801 62.6104 4.11601 62.5816C4.02961 62.5384 3.94321 62.524 3.84241 62.524C3.68401 62.524 3.55441 62.5672 3.45361 62.6392C3.35281 62.7112 3.29521 62.812 3.29521 62.9272C3.29521 62.9704 3.30961 63.0136 3.33841 63.0712Z" fill="url(#paint47_linear_1452_1132)"/>
<path d="M8.78294 62.2512C9.04214 62.3952 9.24374 62.5824 9.38774 62.8272C9.53174 63.072 9.60374 63.3456 9.60374 63.6336C9.60374 63.9216 9.53174 64.1952 9.38774 64.4544C9.24374 64.6992 9.04214 64.9008 8.78294 65.0448C8.52374 65.1888 8.25014 65.2608 7.94774 65.2608C7.64534 65.2608 7.35734 65.1888 7.09814 65.0448C6.83894 64.9008 6.63734 64.6992 6.49334 64.4544C6.34934 64.2096 6.27734 63.936 6.27734 63.648C6.27734 63.36 6.34934 63.0864 6.50774 62.8416C6.65174 62.5968 6.86774 62.3952 7.11254 62.2512C7.37174 62.1072 7.64534 62.0352 7.94774 62.0352C8.25014 62.0352 8.52374 62.1072 8.78294 62.2512ZM8.50934 64.6416C8.68214 64.5408 8.82614 64.3968 8.94134 64.2096C9.04214 64.0224 9.09974 63.8352 9.09974 63.6336C9.09974 63.432 9.04214 63.2448 8.94134 63.072C8.84054 62.8992 8.69654 62.7696 8.52374 62.6688C8.35094 62.568 8.14934 62.5248 7.93334 62.5248C7.71734 62.5248 7.51574 62.568 7.34294 62.6688C7.15574 62.7696 7.02614 62.8992 6.91094 63.072C6.81014 63.2448 6.75254 63.432 6.75254 63.6336C6.75254 63.8352 6.81014 64.0368 6.91094 64.2096C7.01174 64.3824 7.15574 64.5264 7.34294 64.6416C7.51574 64.7424 7.71734 64.8 7.93334 64.8C8.14934 64.8 8.33654 64.7568 8.50934 64.6416Z" fill="url(#paint48_linear_1452_1132)"/>
<path d="M13.3061 62.3952C13.3061 62.6256 13.3061 62.8128 13.3061 62.928V63.5616C13.3061 63.8064 13.3061 63.9648 13.3061 64.0368C13.2917 64.2816 13.2341 64.4976 13.1189 64.6848C13.0037 64.872 12.8597 65.016 12.6869 65.1168C12.4997 65.2176 12.2981 65.2752 12.0821 65.2752C11.8805 65.2752 11.6933 65.232 11.5061 65.1456C11.3189 65.0592 11.1749 64.944 11.0597 64.7856C10.9445 64.6272 10.8725 64.44 10.8581 64.2384C10.8437 64.1664 10.8438 64.008 10.8438 63.7488C10.8438 63.3744 10.8438 63.0864 10.8438 62.8992C10.8438 62.7696 10.8438 62.5824 10.8438 62.3232V62.0352H11.3333V63.4608V63.5616V63.7776C11.3333 63.9792 11.3477 64.152 11.3765 64.296C11.4053 64.44 11.4773 64.5552 11.5925 64.656C11.7077 64.7568 11.8517 64.8 12.0533 64.8C12.2837 64.8 12.4709 64.728 12.6005 64.5984C12.7301 64.4544 12.8021 64.2528 12.8021 63.9792V62.0496H13.3061V62.1504V62.3952Z" fill="url(#paint49_linear_1452_1132)"/>
<path d="M16.6061 65.0584V65.2888H14.5469V62.0488H15.0365V64.828H16.6061V64.9288V65.0584Z" fill="url(#paint50_linear_1452_1132)"/>
<path d="M19.9854 62.5096H18.3438V63.388H19.9854V63.8776H18.3438V65.2888H17.8398V62.0488H19.9854V62.5096Z" fill="url(#paint51_linear_1452_1132)"/>
<path d="M23.689 62.3952C23.689 62.6256 23.689 62.8128 23.689 62.928V63.5616C23.689 63.8064 23.689 63.9648 23.689 64.0368C23.6746 64.2816 23.617 64.4976 23.5018 64.6848C23.3866 64.872 23.2426 65.016 23.0698 65.1168C22.8826 65.2176 22.681 65.2752 22.465 65.2752C22.2634 65.2752 22.0762 65.232 21.889 65.1456C21.7018 65.0592 21.5578 64.944 21.4426 64.7856C21.3274 64.6272 21.2554 64.44 21.241 64.2384C21.2266 64.1664 21.2266 64.008 21.2266 63.7488C21.2266 63.3744 21.2266 63.0864 21.2266 62.8992C21.2266 62.7696 21.2266 62.5824 21.2266 62.3232V62.0352H21.7162V63.4608V63.5616V63.7776C21.7162 63.9792 21.7306 64.152 21.7594 64.296C21.7882 64.44 21.8602 64.5552 21.9754 64.656C22.0762 64.7568 22.2346 64.8 22.4362 64.8C22.6666 64.8 22.8538 64.728 22.9834 64.5984C23.113 64.4544 23.185 64.2528 23.185 63.9792V62.0496H23.689V62.1504V62.3952Z" fill="url(#paint52_linear_1452_1132)"/>
<path d="M26.9811 65.0584V65.2888H24.9219V62.0488H25.4115V64.828H26.9811V64.9288V65.0584Z" fill="url(#paint53_linear_1452_1132)"/>
<path d="M31.0064 63.0712C31.0352 63.1144 31.0928 63.1576 31.1648 63.2008C31.2224 63.2296 31.28 63.2728 31.3664 63.3016C31.4384 63.3304 31.5392 63.3592 31.6544 63.4024C31.856 63.46 32.0432 63.532 32.1728 63.604C32.3168 63.676 32.432 63.7624 32.5328 63.892C32.6336 64.0072 32.6768 64.1656 32.6768 64.3528C32.6768 64.5256 32.6336 64.684 32.5472 64.828C32.4608 64.972 32.3312 65.0872 32.1584 65.1592C32 65.2456 31.8128 65.2888 31.5968 65.2888H31.4816C30.9632 65.2888 30.5744 64.9864 30.3008 64.3816L30.7184 64.1656C30.8336 64.3816 30.9632 64.5544 31.0784 64.6552C31.208 64.7704 31.352 64.828 31.5392 64.828C31.64 64.828 31.7408 64.8136 31.8416 64.7704C31.9424 64.7272 32.0144 64.6696 32.072 64.5976C32.1296 64.5256 32.1584 64.4536 32.1584 64.3816C32.1584 64.2952 32.1296 64.2232 32.0576 64.1656C32 64.108 31.9136 64.0504 31.8272 64.0072C31.7408 63.964 31.6112 63.9208 31.4528 63.8632C31.2368 63.7912 31.064 63.7192 30.9344 63.6616C30.8048 63.5896 30.6896 63.5032 30.5888 63.388C30.488 63.2728 30.4448 63.1288 30.4448 62.9416C30.4448 62.7688 30.488 62.6248 30.5744 62.4808C30.6608 62.3512 30.7904 62.236 30.9488 62.164C31.1072 62.092 31.28 62.0488 31.4816 62.0488C31.712 62.0488 31.9136 62.1064 32.1008 62.2216C32.2736 62.3368 32.4608 62.524 32.6192 62.7832L32.2304 63.0136C32.1296 62.884 32.0432 62.7832 31.9856 62.7256C31.928 62.668 31.856 62.6104 31.784 62.5816C31.6976 62.5384 31.6112 62.524 31.5104 62.524C31.352 62.524 31.2224 62.5672 31.1216 62.6392C31.0208 62.7112 30.9632 62.812 30.9632 62.9272C30.9488 62.9704 30.9632 63.0136 31.0064 63.0712Z" fill="url(#paint54_linear_1452_1132)"/>
<path d="M33.9141 65.2752V62.0352H34.4037V65.2752H33.9141Z" fill="url(#paint55_linear_1452_1132)"/>
<path d="M35.6406 65.2739V62.0339L37.0518 62.0195C37.2534 62.0195 37.4118 62.0627 37.5558 62.1635C37.6998 62.2499 37.8006 62.3795 37.8726 62.5379C37.9446 62.6963 37.9878 62.8691 37.9878 63.0707C37.9878 63.2579 37.959 63.4307 37.887 63.5891C37.815 63.7475 37.7142 63.8771 37.5702 63.9779C37.4262 64.0787 37.2534 64.1219 37.0518 64.1219L36.1302 64.1363V65.2739H35.6406ZM36.6486 63.6323H36.7494C36.9222 63.6323 37.0662 63.6179 37.167 63.6035C37.2678 63.5891 37.3398 63.5315 37.3974 63.4451C37.455 63.3587 37.4838 63.2435 37.4838 63.0707C37.4838 62.8979 37.4406 62.7683 37.3686 62.6675C37.2966 62.5667 37.1814 62.5235 37.0518 62.5235H36.1302V63.6323H36.6486Z" fill="url(#paint56_linear_1452_1132)"/>
<path d="M39.9009 63.0712C39.9297 63.1144 39.9873 63.1576 40.0593 63.2008C40.1169 63.2296 40.1745 63.2728 40.2609 63.3016C40.3473 63.3304 40.4337 63.3592 40.5489 63.4024C40.7505 63.46 40.9377 63.532 41.0673 63.604C41.2113 63.676 41.3265 63.7624 41.4273 63.892C41.5281 64.0072 41.5713 64.1656 41.5713 64.3528C41.5713 64.5256 41.5281 64.684 41.4417 64.828C41.3553 64.972 41.2257 65.0872 41.0529 65.1592C40.8945 65.2456 40.7073 65.2888 40.4913 65.2888H40.3761C39.8577 65.2888 39.4689 64.9864 39.1953 64.3816L39.6129 64.1656C39.7281 64.3816 39.8577 64.5544 39.9729 64.6552C40.1025 64.7704 40.2465 64.828 40.4337 64.828C40.5345 64.828 40.6353 64.8136 40.7361 64.7704C40.8369 64.7272 40.9089 64.6696 40.9665 64.5976C41.0241 64.5256 41.0529 64.4536 41.0529 64.3816C41.0529 64.2952 41.0241 64.2232 40.9521 64.1656C40.8945 64.108 40.8081 64.0504 40.7217 64.0072C40.6353 63.964 40.5057 63.9208 40.3473 63.8632C40.1313 63.7912 39.9585 63.7192 39.8289 63.6616C39.6993 63.5896 39.5841 63.5032 39.4833 63.388C39.3825 63.2728 39.3393 63.1288 39.3393 62.9416C39.3393 62.7688 39.3825 62.6248 39.4689 62.4808C39.5553 62.3512 39.6849 62.236 39.8433 62.164C40.0017 62.092 40.1745 62.0488 40.3761 62.0488C40.6065 62.0488 40.8081 62.1064 40.9953 62.2216C41.1681 62.3368 41.3553 62.524 41.5137 62.7832L41.1249 63.0136C41.0241 62.884 40.9377 62.7832 40.8801 62.7256C40.8225 62.668 40.7505 62.6104 40.6785 62.5816C40.5921 62.5384 40.5057 62.524 40.4049 62.524C40.2465 62.524 40.1169 62.5672 40.0161 62.6392C39.9153 62.7112 39.8577 62.812 39.8577 62.9272C39.8577 62.9704 39.8721 63.0136 39.9009 63.0712Z" fill="url(#paint57_linear_1452_1132)"/>
<path d="M47.4197 62.2512C47.6789 62.3952 47.8805 62.5824 48.0245 62.8272C48.1685 63.072 48.2405 63.3456 48.2405 63.6336C48.2405 63.9216 48.1685 64.1952 48.0245 64.4544C47.8805 64.6992 47.6789 64.9008 47.4197 65.0448C47.1605 65.1888 46.8869 65.2608 46.5845 65.2608C46.2821 65.2608 45.9941 65.1888 45.7349 65.0448C45.4757 64.9008 45.2741 64.6992 45.1301 64.4544C44.9861 64.2096 44.9141 63.936 44.9141 63.648C44.9141 63.36 44.9861 63.0864 45.1445 62.8416C45.2885 62.5968 45.5045 62.3952 45.7493 62.2512C46.0085 62.1072 46.2821 62.0352 46.5845 62.0352C46.8869 62.0352 47.1605 62.1072 47.4197 62.2512ZM47.1605 64.6416C47.3333 64.5408 47.4773 64.3968 47.5925 64.2096C47.6933 64.0224 47.7509 63.8352 47.7509 63.6336C47.7509 63.432 47.6933 63.2448 47.5925 63.072C47.4917 62.8992 47.3477 62.7696 47.1749 62.6688C47.0021 62.568 46.8005 62.5248 46.5845 62.5248C46.3685 62.5248 46.1669 62.568 45.9941 62.6688C45.8069 62.7696 45.6773 62.8992 45.5621 63.072C45.4613 63.2448 45.4037 63.432 45.4037 63.6336C45.4037 63.8352 45.4613 64.0368 45.5621 64.2096C45.6629 64.3824 45.8069 64.5264 45.9941 64.6416C46.1669 64.7424 46.3685 64.8 46.5845 64.8C46.7861 64.8144 46.9877 64.7568 47.1605 64.6416Z" fill="url(#paint58_linear_1452_1132)"/>
<path d="M51.6222 62.5096H49.9806V63.388H51.6222V63.8776H49.9806V65.2888H49.4766V62.0488H51.6222V62.5096Z" fill="url(#paint59_linear_1452_1132)"/>
<path d="M55.6275 63.0712C55.6563 63.1144 55.7139 63.1576 55.7859 63.2008C55.8435 63.2296 55.9011 63.2728 55.9875 63.3016C56.0595 63.3304 56.1603 63.3592 56.2755 63.4024C56.4771 63.46 56.6643 63.532 56.7939 63.604C56.9379 63.676 57.0531 63.7624 57.1539 63.892C57.2547 64.0072 57.2979 64.1656 57.2979 64.3528C57.2979 64.5256 57.2547 64.684 57.1683 64.828C57.0819 64.972 56.9523 65.0872 56.7795 65.1592C56.6211 65.2456 56.4339 65.2888 56.2179 65.2888H56.1027C55.5843 65.2888 55.1955 64.9864 54.9219 64.3816L55.3395 64.1656C55.4547 64.3816 55.5843 64.5544 55.6995 64.6552C55.8291 64.7704 55.9731 64.828 56.1603 64.828C56.2611 64.828 56.3619 64.8136 56.4627 64.7704C56.5635 64.7272 56.6355 64.6696 56.6931 64.5976C56.7507 64.5256 56.7795 64.4536 56.7795 64.3816C56.7795 64.2952 56.7507 64.2232 56.6787 64.1656C56.6211 64.108 56.5347 64.0504 56.4483 64.0072C56.3619 63.964 56.2323 63.9208 56.0739 63.8632C55.8579 63.7912 55.6851 63.7192 55.5555 63.6616C55.4259 63.5896 55.3107 63.5032 55.2099 63.388C55.1091 63.2728 55.0659 63.1288 55.0659 62.9416C55.0659 62.7688 55.1091 62.6248 55.1955 62.4808C55.2819 62.3512 55.4115 62.236 55.5699 62.164C55.7283 62.092 55.9011 62.0488 56.1027 62.0488C56.3331 62.0488 56.5347 62.1064 56.7219 62.2216C56.8947 62.3368 57.0819 62.524 57.2403 62.7832L56.8515 63.0136C56.7507 62.884 56.6643 62.7832 56.6067 62.7256C56.5491 62.668 56.4771 62.6104 56.4051 62.5816C56.3187 62.5384 56.2323 62.524 56.1315 62.524C55.9731 62.524 55.8435 62.5672 55.7427 62.6392C55.6419 62.7112 55.5843 62.812 55.5843 62.9272C55.5843 62.9704 55.5987 63.0136 55.6275 63.0712Z" fill="url(#paint60_linear_1452_1132)"/>
<path d="M61.072 62.2512C61.3312 62.3952 61.5328 62.5824 61.6768 62.8272C61.8208 63.072 61.8928 63.3456 61.8928 63.6336C61.8928 63.9216 61.8208 64.1952 61.6768 64.4544C61.5328 64.6992 61.3312 64.9008 61.072 65.0448C60.8128 65.1888 60.5392 65.2608 60.2368 65.2608C59.9344 65.2608 59.6464 65.1888 59.3872 65.0448C59.128 64.9008 58.9264 64.6992 58.7824 64.4544C58.6384 64.2096 58.5664 63.936 58.5664 63.648C58.5664 63.36 58.6384 63.0864 58.7968 62.8416C58.9408 62.5968 59.1568 62.3952 59.4016 62.2512C59.6608 62.1072 59.9344 62.0352 60.2368 62.0352C60.5392 62.0352 60.8128 62.1072 61.072 62.2512ZM60.8128 64.6416C60.9856 64.5408 61.1296 64.3968 61.2448 64.2096C61.3456 64.0224 61.4032 63.8352 61.4032 63.6336C61.4032 63.432 61.3456 63.2448 61.2448 63.072C61.144 62.8992 61 62.7696 60.8272 62.6688C60.6544 62.568 60.4528 62.5248 60.2368 62.5248C60.0208 62.5248 59.8192 62.568 59.6464 62.6688C59.4592 62.7696 59.3296 62.8992 59.2144 63.072C59.1136 63.2448 59.056 63.432 59.056 63.6336C59.056 63.8352 59.1136 64.0368 59.2144 64.2096C59.3152 64.3824 59.4592 64.5264 59.6464 64.6416C59.8192 64.7424 60.0208 64.8 60.2368 64.8C60.4384 64.8144 60.64 64.7568 60.8128 64.6416Z" fill="url(#paint61_linear_1452_1132)"/>
<path d="M65.6213 64.0224V63.4608V63.1296V62.928C65.5061 63.1152 65.3333 63.3888 65.1029 63.7632C64.9157 64.08 64.7429 64.3536 64.6133 64.5696L64.5269 64.4112C64.1957 63.8496 63.9077 63.36 63.6341 62.9424C63.6341 63.072 63.6341 63.3024 63.6341 63.648V64.0656V64.6272C63.6341 64.9296 63.6341 65.1456 63.6341 65.2752H63.1445C63.1445 64.7424 63.1445 64.368 63.1445 64.1376V63.1296C63.1445 62.6256 63.1445 62.2512 63.1445 62.0352H63.6629C64.0085 62.5824 64.3253 63.1008 64.6277 63.6048C64.7429 63.4176 64.9013 63.1872 65.0741 62.8848C65.2037 62.6544 65.3909 62.3808 65.6069 62.0352H66.1253V65.2752H65.6357V64.6128L65.6213 64.0224Z" fill="url(#paint62_linear_1452_1132)"/>
<path d="M68.1837 62.0352H68.6589C68.7741 62.3232 69.0477 63 69.4365 64.0512L69.8973 65.2752H69.3645L68.9901 64.296H67.8525L67.5069 65.2752H66.9453L68.1837 62.0352ZM68.4285 62.8128L68.3277 63.0864L68.1837 63.4752L68.0541 63.8064H68.8029L68.4285 62.8128Z" fill="url(#paint63_linear_1452_1132)"/>
<defs>
<linearGradient id="paint0_linear_1452_1132" x1="38.2433" y1="3.08203" x2="50.5276" y2="3.81727" gradientUnits="userSpaceOnUse">
<stop stop-color="#F8EEA4"/>
<stop offset="1" stop-color="#C7A008"/>
</linearGradient>
<linearGradient id="paint1_linear_1452_1132" x1="25.2529" y1="3.08203" x2="37.5506" y2="3.81988" gradientUnits="userSpaceOnUse">
<stop stop-color="#F8EEA4"/>
<stop offset="1" stop-color="#C7A008"/>
</linearGradient>
<linearGradient id="paint2_linear_1452_1132" x1="42.5125" y1="35.7988" x2="57.5608" y2="41.5821" gradientUnits="userSpaceOnUse">
<stop stop-color="#F8EEA4"/>
<stop offset="1" stop-color="#C7A008"/>
</linearGradient>
<linearGradient id="paint3_linear_1452_1132" x1="43.0002" y1="35.7852" x2="57.4594" y2="41.4736" gradientUnits="userSpaceOnUse">
<stop stop-color="#F8EEA4"/>
<stop offset="1" stop-color="#C7A008"/>
</linearGradient>
<linearGradient id="paint4_linear_1452_1132" x1="42.302" y1="35.8125" x2="57.6971" y2="41.5645" gradientUnits="userSpaceOnUse">
<stop stop-color="#F8EEA4"/>
<stop offset="1" stop-color="#C7A008"/>
</linearGradient>
<linearGradient id="paint5_linear_1452_1132" x1="42.0443" y1="35.8262" x2="57.8326" y2="41.5243" gradientUnits="userSpaceOnUse">
<stop stop-color="#F8EEA4"/>
<stop offset="1" stop-color="#C7A008"/>
</linearGradient>
<linearGradient id="paint6_linear_1452_1132" x1="41.4178" y1="35.8262" x2="58.0493" y2="41.5227" gradientUnits="userSpaceOnUse">
<stop stop-color="#F8EEA4"/>
<stop offset="1" stop-color="#C7A008"/>
</linearGradient>
<linearGradient id="paint7_linear_1452_1132" x1="41.7564" y1="35.8262" x2="57.9657" y2="41.5263" gradientUnits="userSpaceOnUse">
<stop stop-color="#F8EEA4"/>
<stop offset="1" stop-color="#C7A008"/>
</linearGradient>
<linearGradient id="paint8_linear_1452_1132" x1="40.6538" y1="35.8574" x2="58.2319" y2="41.6616" gradientUnits="userSpaceOnUse">
<stop stop-color="#F8EEA4"/>
<stop offset="1" stop-color="#C7A008"/>
</linearGradient>
<linearGradient id="paint9_linear_1452_1132" x1="41.0586" y1="35.8398" x2="58.1548" y2="41.5949" gradientUnits="userSpaceOnUse">
<stop stop-color="#F8EEA4"/>
<stop offset="1" stop-color="#C7A008"/>
</linearGradient>
<linearGradient id="paint10_linear_1452_1132" x1="40.2351" y1="35.8125" x2="58.3503" y2="41.7005" gradientUnits="userSpaceOnUse">
<stop stop-color="#F8EEA4"/>
<stop offset="1" stop-color="#C7A008"/>
</linearGradient>
<linearGradient id="paint11_linear_1452_1132" x1="39.7377" y1="35.9277" x2="58.3818" y2="41.9945" gradientUnits="userSpaceOnUse">
<stop stop-color="#F8EEA4"/>
<stop offset="1" stop-color="#C7A008"/>
</linearGradient>
<linearGradient id="paint12_linear_1452_1132" x1="58.6932" y1="35.8262" x2="58.7068" y2="35.8264" gradientUnits="userSpaceOnUse">
<stop stop-color="#F8EEA4"/>
<stop offset="1" stop-color="#C7A008"/>
</linearGradient>
<linearGradient id="paint13_linear_1452_1132" x1="37.5994" y1="38.9082" x2="37.6128" y2="38.9102" gradientUnits="userSpaceOnUse">
<stop stop-color="#F8EEA4"/>
<stop offset="1" stop-color="#C7A008"/>
</linearGradient>
<linearGradient id="paint14_linear_1452_1132" x1="39.8213" y1="35.9414" x2="58.3025" y2="42.019" gradientUnits="userSpaceOnUse">
<stop stop-color="#F8EEA4"/>
<stop offset="1" stop-color="#C7A008"/>
</linearGradient>
<linearGradient id="paint15_linear_1452_1132" x1="39.8213" y1="35.9414" x2="58.3025" y2="42.019" gradientUnits="userSpaceOnUse">
<stop stop-color="#F8EEA4"/>
<stop offset="1" stop-color="#C7A008"/>
</linearGradient>
<linearGradient id="paint16_linear_1452_1132" x1="40.7316" y1="35.8262" x2="58.1756" y2="41.6713" gradientUnits="userSpaceOnUse">
<stop stop-color="#F8EEA4"/>
<stop offset="1" stop-color="#C7A008"/>
</linearGradient>
<linearGradient id="paint17_linear_1452_1132" x1="40.7316" y1="35.8262" x2="58.1756" y2="41.6713" gradientUnits="userSpaceOnUse">
<stop stop-color="#F8EEA4"/>
<stop offset="1" stop-color="#C7A008"/>
</linearGradient>
<linearGradient id="paint18_linear_1452_1132" x1="41.4774" y1="35.8262" x2="57.9608" y2="41.5926" gradientUnits="userSpaceOnUse">
<stop stop-color="#F8EEA4"/>
<stop offset="1" stop-color="#C7A008"/>
</linearGradient>
<linearGradient id="paint19_linear_1452_1132" x1="41.4774" y1="35.8262" x2="57.9608" y2="41.5926" gradientUnits="userSpaceOnUse">
<stop stop-color="#F8EEA4"/>
<stop offset="1" stop-color="#C7A008"/>
</linearGradient>
<linearGradient id="paint20_linear_1452_1132" x1="42.0883" y1="35.8398" x2="57.7102" y2="41.6231" gradientUnits="userSpaceOnUse">
<stop stop-color="#F8EEA4"/>
<stop offset="1" stop-color="#C7A008"/>
</linearGradient>
<linearGradient id="paint21_linear_1452_1132" x1="42.0883" y1="35.8398" x2="57.7102" y2="41.6231" gradientUnits="userSpaceOnUse">
<stop stop-color="#F8EEA4"/>
<stop offset="1" stop-color="#C7A008"/>
</linearGradient>
<linearGradient id="paint22_linear_1452_1132" x1="40.5072" y1="36.1016" x2="40.8577" y2="36.1424" gradientUnits="userSpaceOnUse">
<stop stop-color="#F8EEA4"/>
<stop offset="1" stop-color="#C7A008"/>
</linearGradient>
<linearGradient id="paint23_linear_1452_1132" x1="42.5465" y1="35.8125" x2="57.4099" y2="41.709" gradientUnits="userSpaceOnUse">
<stop stop-color="#F8EEA4"/>
<stop offset="1" stop-color="#C7A008"/>
</linearGradient>
<linearGradient id="paint24_linear_1452_1132" x1="42.5465" y1="35.8125" x2="57.4099" y2="41.709" gradientUnits="userSpaceOnUse">
<stop stop-color="#F8EEA4"/>
<stop offset="1" stop-color="#C7A008"/>
</linearGradient>
<linearGradient id="paint25_linear_1452_1132" x1="39.7139" y1="24.3477" x2="58.7465" y2="29.8871" gradientUnits="userSpaceOnUse">
<stop stop-color="#F8EEA4"/>
<stop offset="1" stop-color="#C7A008"/>
</linearGradient>
<linearGradient id="paint26_linear_1452_1132" x1="17.4756" y1="35.7559" x2="36.0448" y2="41.6428" gradientUnits="userSpaceOnUse">
<stop stop-color="#F8EEA4"/>
<stop offset="1" stop-color="#C7A008"/>
</linearGradient>
<linearGradient id="paint27_linear_1452_1132" x1="40.0057" y1="37.123" x2="40.0191" y2="37.125" gradientUnits="userSpaceOnUse">
<stop stop-color="#F8EEA4"/>
<stop offset="1" stop-color="#C7A008"/>
</linearGradient>
<linearGradient id="paint28_linear_1452_1132" x1="40.0057" y1="37.123" x2="40.0191" y2="37.125" gradientUnits="userSpaceOnUse">
<stop stop-color="#F8EEA4"/>
<stop offset="1" stop-color="#C7A008"/>
</linearGradient>
<linearGradient id="paint29_linear_1452_1132" x1="17.5017" y1="24.3594" x2="36.3952" y2="30.0471" gradientUnits="userSpaceOnUse">
<stop stop-color="#F8EEA4"/>
<stop offset="1" stop-color="#C7A008"/>
</linearGradient>
<linearGradient id="paint30_linear_1452_1132" x1="17.4573" y1="25.0898" x2="35.2195" y2="30.5255" gradientUnits="userSpaceOnUse">
<stop stop-color="#F8EEA4"/>
<stop offset="1" stop-color="#C7A008"/>
</linearGradient>
<linearGradient id="paint31_linear_1452_1132" x1="17.2294" y1="27.3594" x2="32.4907" y2="32.6666" gradientUnits="userSpaceOnUse">
<stop stop-color="#F8EEA4"/>
<stop offset="1" stop-color="#C7A008"/>
</linearGradient>
<linearGradient id="paint32_linear_1452_1132" x1="17.3237" y1="26.6289" x2="33.2805" y2="31.874" gradientUnits="userSpaceOnUse">
<stop stop-color="#F8EEA4"/>
<stop offset="1" stop-color="#C7A008"/>
</linearGradient>
<linearGradient id="paint33_linear_1452_1132" x1="17.4039" y1="25.8652" x2="34.1916" y2="31.1415" gradientUnits="userSpaceOnUse">
<stop stop-color="#F8EEA4"/>
<stop offset="1" stop-color="#C7A008"/>
</linearGradient>
<linearGradient id="paint34_linear_1452_1132" x1="34.6062" y1="32.5879" x2="39.3933" y2="33.2954" gradientUnits="userSpaceOnUse">
<stop stop-color="#F8EEA4"/>
<stop offset="1" stop-color="#C7A008"/>
</linearGradient>
<linearGradient id="paint35_linear_1452_1132" x1="14.4583" y1="34.6309" x2="15.8757" y2="34.8403" gradientUnits="userSpaceOnUse">
<stop stop-color="#F8EEA4"/>
<stop offset="1" stop-color="#C7A008"/>
</linearGradient>
<linearGradient id="paint36_linear_1452_1132" x1="58.0052" y1="34.6309" x2="59.4226" y2="34.8403" gradientUnits="userSpaceOnUse">
<stop stop-color="#F8EEA4"/>
<stop offset="1" stop-color="#C7A008"/>
</linearGradient>
<linearGradient id="paint37_linear_1452_1132" x1="3.92095" y1="49.8965" x2="9.94051" y2="50.6248" gradientUnits="userSpaceOnUse">
<stop stop-color="#F8EEA4"/>
<stop offset="1" stop-color="#C7A008"/>
</linearGradient>
<linearGradient id="paint38_linear_1452_1132" x1="12.2009" y1="49.8828" x2="19.4896" y2="50.9561" gradientUnits="userSpaceOnUse">
<stop stop-color="#F8EEA4"/>
<stop offset="1" stop-color="#C7A008"/>
</linearGradient>
<linearGradient id="paint39_linear_1452_1132" x1="22.1176" y1="50.0117" x2="27.8853" y2="50.6924" gradientUnits="userSpaceOnUse">
<stop stop-color="#F8EEA4"/>
<stop offset="1" stop-color="#C7A008"/>
</linearGradient>
<linearGradient id="paint40_linear_1452_1132" x1="30.5585" y1="50.0527" x2="35.9161" y2="50.6515" gradientUnits="userSpaceOnUse">
<stop stop-color="#F8EEA4"/>
<stop offset="1" stop-color="#C7A008"/>
</linearGradient>
<linearGradient id="paint41_linear_1452_1132" x1="38.5853" y1="50.0391" x2="44.4285" y2="50.7516" gradientUnits="userSpaceOnUse">
<stop stop-color="#F8EEA4"/>
<stop offset="1" stop-color="#C7A008"/>
</linearGradient>
<linearGradient id="paint42_linear_1452_1132" x1="47.2094" y1="49.8965" x2="53.5685" y2="50.7092" gradientUnits="userSpaceOnUse">
<stop stop-color="#F8EEA4"/>
<stop offset="1" stop-color="#C7A008"/>
</linearGradient>
<linearGradient id="paint43_linear_1452_1132" x1="56.1036" y1="50.0527" x2="62.4856" y2="50.884" gradientUnits="userSpaceOnUse">
<stop stop-color="#F8EEA4"/>
<stop offset="1" stop-color="#C7A008"/>
</linearGradient>
<linearGradient id="paint44_linear_1452_1132" x1="64.4981" y1="50.0391" x2="69.843" y2="50.6327" gradientUnits="userSpaceOnUse">
<stop stop-color="#F8EEA4"/>
<stop offset="1" stop-color="#C7A008"/>
</linearGradient>
<linearGradient id="paint45_linear_1452_1132" x1="10.3922" y1="59.6445" x2="10.4299" y2="61.2153" gradientUnits="userSpaceOnUse">
<stop stop-color="#F8EEA4"/>
<stop offset="1" stop-color="#C7A008"/>
</linearGradient>
<linearGradient id="paint46_linear_1452_1132" x1="10.3922" y1="67.75" x2="10.4345" y2="69.413" gradientUnits="userSpaceOnUse">
<stop stop-color="#F8EEA4"/>
<stop offset="1" stop-color="#C7A008"/>
</linearGradient>
<linearGradient id="paint47_linear_1452_1132" x1="2.92662" y1="62.0488" x2="5.15496" y2="62.2903" gradientUnits="userSpaceOnUse">
<stop stop-color="#F8EEA4"/>
<stop offset="1" stop-color="#C7A008"/>
</linearGradient>
<linearGradient id="paint48_linear_1452_1132" x1="6.68867" y1="62.0352" x2="9.77334" y2="62.5053" gradientUnits="userSpaceOnUse">
<stop stop-color="#F8EEA4"/>
<stop offset="1" stop-color="#C7A008"/>
</linearGradient>
<linearGradient id="paint49_linear_1452_1132" x1="11.1482" y1="62.0352" x2="13.4556" y2="62.2943" gradientUnits="userSpaceOnUse">
<stop stop-color="#F8EEA4"/>
<stop offset="1" stop-color="#C7A008"/>
</linearGradient>
<linearGradient id="paint50_linear_1452_1132" x1="14.8015" y1="62.0488" x2="16.7383" y2="62.2308" gradientUnits="userSpaceOnUse">
<stop stop-color="#F8EEA4"/>
<stop offset="1" stop-color="#C7A008"/>
</linearGradient>
<linearGradient id="paint51_linear_1452_1132" x1="18.1052" y1="62.0488" x2="20.1217" y2="62.2462" gradientUnits="userSpaceOnUse">
<stop stop-color="#F8EEA4"/>
<stop offset="1" stop-color="#C7A008"/>
</linearGradient>
<linearGradient id="paint52_linear_1452_1132" x1="21.5311" y1="62.0352" x2="23.8384" y2="62.2943" gradientUnits="userSpaceOnUse">
<stop stop-color="#F8EEA4"/>
<stop offset="1" stop-color="#C7A008"/>
</linearGradient>
<linearGradient id="paint53_linear_1452_1132" x1="25.1765" y1="62.0488" x2="27.1133" y2="62.2308" gradientUnits="userSpaceOnUse">
<stop stop-color="#F8EEA4"/>
<stop offset="1" stop-color="#C7A008"/>
</linearGradient>
<linearGradient id="paint54_linear_1452_1132" x1="30.5946" y1="62.0488" x2="32.8229" y2="62.2903" gradientUnits="userSpaceOnUse">
<stop stop-color="#F8EEA4"/>
<stop offset="1" stop-color="#C7A008"/>
</linearGradient>
<linearGradient id="paint55_linear_1452_1132" x1="33.9746" y1="62.0352" x2="34.4389" y2="62.0455" gradientUnits="userSpaceOnUse">
<stop stop-color="#F8EEA4"/>
<stop offset="1" stop-color="#C7A008"/>
</linearGradient>
<linearGradient id="paint56_linear_1452_1132" x1="35.9309" y1="62.0195" x2="38.133" y2="62.2543" gradientUnits="userSpaceOnUse">
<stop stop-color="#F8EEA4"/>
<stop offset="1" stop-color="#C7A008"/>
</linearGradient>
<linearGradient id="paint57_linear_1452_1132" x1="39.4891" y1="62.0488" x2="41.7175" y2="62.2903" gradientUnits="userSpaceOnUse">
<stop stop-color="#F8EEA4"/>
<stop offset="1" stop-color="#C7A008"/>
</linearGradient>
<linearGradient id="paint58_linear_1452_1132" x1="45.3254" y1="62.0352" x2="48.4101" y2="62.5053" gradientUnits="userSpaceOnUse">
<stop stop-color="#F8EEA4"/>
<stop offset="1" stop-color="#C7A008"/>
</linearGradient>
<linearGradient id="paint59_linear_1452_1132" x1="49.7419" y1="62.0488" x2="51.7585" y2="62.2462" gradientUnits="userSpaceOnUse">
<stop stop-color="#F8EEA4"/>
<stop offset="1" stop-color="#C7A008"/>
</linearGradient>
<linearGradient id="paint60_linear_1452_1132" x1="55.2157" y1="62.0488" x2="57.444" y2="62.2903" gradientUnits="userSpaceOnUse">
<stop stop-color="#F8EEA4"/>
<stop offset="1" stop-color="#C7A008"/>
</linearGradient>
<linearGradient id="paint61_linear_1452_1132" x1="58.9777" y1="62.0352" x2="62.0624" y2="62.5053" gradientUnits="userSpaceOnUse">
<stop stop-color="#F8EEA4"/>
<stop offset="1" stop-color="#C7A008"/>
</linearGradient>
<linearGradient id="paint62_linear_1452_1132" x1="63.5131" y1="62.0352" x2="66.2902" y2="62.4128" gradientUnits="userSpaceOnUse">
<stop stop-color="#F8EEA4"/>
<stop offset="1" stop-color="#C7A008"/>
</linearGradient>
<linearGradient id="paint63_linear_1452_1132" x1="67.3103" y1="62.0352" x2="70.0615" y2="62.4056" gradientUnits="userSpaceOnUse">
<stop stop-color="#F8EEA4"/>
<stop offset="1" stop-color="#C7A008"/>
</linearGradient>
</defs>
</svg>
