<svg width="100" height="100" viewBox="0 0 100 100" fill="none" xmlns="http://www.w3.org/2000/svg">
<path d="M4.63889 45.2605C4.75889 45.6005 4.89889 45.9205 4.95889 46.2405C5.09889 47.1205 4.93889 47.9605 4.55889 48.7805C4.37889 49.1605 4.19889 49.5405 4.03889 49.9205C3.63889 50.9005 3.71889 51.8405 4.39889 52.7005C4.81889 53.2205 5.37889 53.5005 6.01889 53.6205C7.31889 53.8405 8.47889 53.4405 9.49889 52.6405C9.81889 52.3805 10.1389 52.1005 10.4189 51.7805C10.6989 51.4605 11.0189 51.2805 11.4389 51.1605C12.7389 50.8205 13.9189 50.2605 14.8789 49.3205C15.2389 48.9605 15.5789 48.5605 15.9189 48.1805C15.8989 48.1405 15.8789 48.1205 15.8589 48.0805C15.7589 48.1005 15.6589 48.1005 15.5589 48.1405C14.7989 48.3205 14.0589 48.5405 13.2989 48.7005C12.1189 48.9405 10.8989 48.4605 10.3389 47.5405C9.53889 46.2405 9.93889 44.6405 11.2789 43.8005C11.9789 43.3605 12.7589 43.1405 13.5189 42.9205C13.7589 42.8605 13.9789 42.7805 14.2189 42.7205C14.2189 42.6805 14.2389 42.6405 14.2389 42.6005C13.9589 42.5005 13.6989 42.3805 13.4189 42.3205C12.3189 42.0405 11.1989 41.9805 10.0789 42.2205C9.55889 42.3405 9.03889 42.5005 8.51889 42.6005C8.31889 42.6405 8.07889 42.6605 7.87889 42.6005C7.07889 42.3605 6.25889 42.2405 5.43889 42.3805C4.59889 42.5005 3.79889 42.7605 3.15889 43.3405C1.93889 44.4205 1.77889 46.0805 2.95889 47.3805C3.09889 47.5405 3.25889 47.7005 3.41889 47.8605C3.23889 48.1405 3.05889 48.3805 2.85889 48.6605C2.23889 48.3405 1.81889 47.8605 1.49889 47.2805C0.298891 45.1405 1.17889 42.6805 3.41889 41.6805C4.71889 41.1005 6.05889 40.9805 7.43889 41.2405C8.07889 41.3605 8.65889 41.3205 9.27889 41.1405C10.9989 40.6605 12.6989 40.7205 14.3789 41.3405C14.7189 41.4605 15.0389 41.6405 15.3389 41.8405C15.6789 42.0805 15.8989 42.4005 15.8189 42.8405C15.7389 43.2805 15.3989 43.5205 14.9989 43.6605C14.3189 43.9205 13.6389 44.1405 12.9589 44.4005C12.5989 44.5405 12.2589 44.7405 11.9389 44.9405C11.6389 45.1405 11.4189 45.4405 11.3389 45.8005C11.1589 46.7005 11.7789 47.5005 12.7389 47.5205C13.0989 47.5205 13.4589 47.4605 13.8189 47.4005C14.5189 47.2405 15.2189 47.0405 15.9189 46.8805C16.5389 46.7205 17.0389 46.9405 17.2789 47.4405C17.4589 47.8405 17.3389 48.2205 17.1389 48.5605C16.3989 49.8005 15.4189 50.7805 14.1389 51.4405C13.4789 51.7805 12.7589 52.0405 12.0589 52.2805C11.7789 52.3805 11.5389 52.5005 11.3389 52.7205C10.4189 53.6805 9.35889 54.4205 8.05889 54.7405C6.49889 55.1405 5.05889 54.9205 3.85889 53.8005C2.59889 52.6205 2.29889 50.6205 3.23889 49.2405C3.41889 48.9605 3.59889 48.6805 3.77889 48.4005C4.33889 47.5805 4.67889 46.6805 4.63889 45.6805C4.63889 45.5805 4.63889 45.4805 4.63889 45.3805C4.53889 45.3405 4.55889 45.3405 4.63889 45.2605Z" fill="url(#paint0_linear_1452_391)"/>
<path d="M10.6401 33.3789C10.4001 33.6589 10.2201 33.9389 9.96012 34.1389C9.28012 34.6989 8.46012 34.9789 7.58012 35.0589C7.16012 35.0989 6.74012 35.1189 6.32012 35.1789C5.26012 35.3189 4.50012 35.8589 4.10012 36.8589C3.86012 37.4789 3.90012 38.1189 4.12012 38.7189C4.58012 39.9589 5.50012 40.7589 6.70012 41.2389C7.08012 41.3989 7.50012 41.5189 7.90012 41.5989C8.32012 41.6789 8.64012 41.8589 8.94012 42.1789C9.88012 43.1389 10.9401 43.8789 12.2601 44.2389C12.7601 44.3789 13.2601 44.4589 13.7801 44.5789C13.8001 44.5389 13.8201 44.5189 13.8401 44.4789C13.7801 44.3989 13.7201 44.3189 13.6401 44.2389C13.1001 43.6789 12.5401 43.1389 12.0201 42.5589C11.2201 41.6589 11.0201 40.3389 11.5401 39.3989C12.2601 38.0589 13.8401 37.6189 15.2401 38.3589C15.9601 38.7389 16.5401 39.2989 17.1401 39.8589C17.3201 40.0189 17.5001 40.1989 17.6601 40.3589C17.7001 40.3389 17.7401 40.3389 17.7601 40.3189C17.7001 40.0389 17.6601 39.7389 17.6001 39.4589C17.3001 38.3589 16.7801 37.3589 16.0001 36.5189C15.6401 36.1189 15.2401 35.7589 14.9001 35.3589C14.7601 35.1989 14.6201 34.9989 14.5801 34.8189C14.3801 33.9989 14.0801 33.2389 13.5601 32.5989C13.0401 31.9389 12.4201 31.3589 11.5801 31.0989C10.0201 30.5789 8.52012 31.2789 7.98012 32.9389C7.92012 33.1389 7.86012 33.3589 7.78012 33.5789C7.46012 33.5589 7.14012 33.5189 6.80012 33.4989C6.78012 32.7989 6.98012 32.1789 7.30012 31.6189C8.56012 29.5189 11.1201 29.0389 13.1201 30.4789C14.2801 31.3189 15.0601 32.4189 15.5201 33.7389C15.7401 34.3389 16.0601 34.8389 16.5201 35.2789C17.8001 36.5189 18.6001 38.0389 18.9001 39.7989C18.9601 40.1589 18.9801 40.5189 18.9401 40.8789C18.9001 41.2789 18.7401 41.6389 18.3201 41.7789C17.8801 41.9189 17.5201 41.7589 17.2001 41.4789C16.6401 41.0189 16.1001 40.5389 15.5401 40.0789C15.2401 39.8389 14.9001 39.6389 14.5601 39.4589C14.2401 39.2989 13.8801 39.2389 13.5001 39.3589C12.6201 39.6389 12.2401 40.5989 12.7201 41.4389C12.9001 41.7589 13.1201 42.0389 13.3601 42.2989C13.8401 42.8389 14.3601 43.3389 14.8601 43.8589C15.3001 44.3189 15.3801 44.8589 15.0401 45.3189C14.7801 45.6789 14.4001 45.7589 14.0001 45.7589C12.5601 45.7389 11.2201 45.3789 10.0001 44.5989C9.38012 44.1989 8.80012 43.6989 8.22012 43.2189C8.00012 43.0189 7.76012 42.8789 7.48012 42.7989C6.20012 42.4789 5.02012 41.9389 4.10012 40.9589C2.98012 39.7989 2.44012 38.4589 2.82012 36.8389C3.22012 35.1389 4.78012 33.9189 6.44012 34.0189C6.78012 34.0389 7.10012 34.0389 7.44012 34.0589C8.44012 34.1389 9.38012 33.9789 10.2201 33.4389C10.3001 33.3789 10.4001 33.3389 10.4801 33.2989C10.5201 33.3389 10.5401 33.3589 10.6401 33.3789Z" fill="url(#paint1_linear_1452_391)"/>
<path d="M23.9182 32.6398C23.5582 32.5598 23.2182 32.5398 22.9182 32.4398C22.0782 32.1198 21.4382 31.5598 20.9182 30.8398C20.6782 30.4998 20.4382 30.1398 20.1782 29.8198C19.5182 28.9798 18.6782 28.5798 17.5982 28.7398C16.9382 28.8398 16.4182 29.1798 15.9982 29.6998C15.1582 30.7198 14.9182 31.9198 15.0982 33.1998C15.1582 33.6198 15.2382 34.0398 15.3782 34.4198C15.5182 34.8198 15.5182 35.1998 15.3982 35.5998C15.0382 36.8798 14.9382 38.1798 15.2782 39.4998C15.4182 39.9998 15.5982 40.4798 15.7382 40.9798C15.7782 40.9798 15.8182 40.9798 15.8582 40.9798C15.8982 40.8798 15.9382 40.7798 15.9582 40.6798C16.1782 39.9398 16.3782 39.1798 16.6182 38.4398C16.9982 37.2998 18.0382 36.4798 19.0982 36.4398C20.6182 36.3998 21.7982 37.5398 21.8582 39.1198C21.8782 39.9398 21.6982 40.7198 21.4982 41.5198C21.4382 41.7598 21.3782 41.9998 21.3382 42.2198C21.3782 42.2398 21.3982 42.2598 21.4382 42.2998C21.6582 42.0998 21.8982 41.9398 22.0982 41.7198C22.8982 40.8998 23.4982 39.9598 23.8582 38.8598C24.0182 38.3598 24.1382 37.8198 24.2982 37.3198C24.3582 37.1198 24.4582 36.9198 24.6182 36.7798C25.2382 36.1998 25.7382 35.5598 26.0382 34.7798C26.3382 33.9998 26.5382 33.1798 26.3582 32.3198C26.0182 30.7198 24.6782 29.7598 22.9582 30.1398C22.7582 30.1798 22.5382 30.2398 22.2982 30.2998C22.1582 29.9998 22.0182 29.7198 21.8782 29.4198C22.4782 29.0398 23.0982 28.9198 23.7582 28.9198C26.2182 28.9398 27.8982 30.9398 27.6582 33.3798C27.5182 34.7998 26.9582 36.0198 26.0382 37.0798C25.6182 37.5598 25.3582 38.0998 25.1982 38.7198C24.7582 40.4398 23.8582 41.8998 22.4782 43.0398C22.1982 43.2598 21.8982 43.4598 21.5582 43.6198C21.1982 43.7998 20.7982 43.8198 20.4582 43.5398C20.1182 43.2398 20.0782 42.8398 20.1582 42.4198C20.2782 41.6998 20.4382 40.9998 20.5382 40.2798C20.5982 39.8998 20.5982 39.4998 20.5782 39.1198C20.5582 38.7598 20.4182 38.4198 20.1382 38.1598C19.4582 37.5398 18.4382 37.6998 17.9382 38.5198C17.7582 38.8198 17.6182 39.1598 17.5182 39.5198C17.2982 40.1998 17.1182 40.8998 16.9182 41.5998C16.7382 42.2198 16.3182 42.5398 15.7582 42.4998C15.3182 42.4598 15.0582 42.1598 14.8582 41.8198C14.1582 40.5598 13.7982 39.2198 13.8582 37.7798C13.8982 37.0398 14.0382 36.2998 14.1582 35.5598C14.2182 35.2598 14.2182 34.9998 14.1382 34.7198C13.7782 33.4398 13.6582 32.1598 14.0382 30.8798C14.4782 29.3398 15.3782 28.1998 16.9582 27.7198C18.6182 27.2198 20.4782 27.9598 21.2182 29.4598C21.3582 29.7598 21.5382 30.0398 21.6782 30.3398C22.0982 31.2398 22.7182 31.9798 23.6182 32.4398C23.6982 32.4798 23.7982 32.5398 23.8782 32.5998C23.8982 32.5198 23.8982 32.5398 23.9182 32.6398Z" fill="url(#paint2_linear_1452_391)"/>
<path d="M31.2204 43.7803C31.1004 43.4403 30.9604 43.1203 30.9004 42.8003C30.7604 41.9203 30.9204 41.0803 31.3004 40.2603C31.4804 39.8803 31.6604 39.5003 31.8204 39.1203C32.2204 38.1403 32.1404 37.2003 31.4604 36.3403C31.0404 35.8203 30.4804 35.5403 29.8404 35.4203C28.5404 35.2003 27.3804 35.6003 26.3604 36.4003C26.0404 36.6603 25.7204 36.9403 25.4404 37.2603C25.1604 37.5803 24.8404 37.7603 24.4204 37.8803C23.1204 38.2203 21.9404 38.7803 20.9804 39.7203C20.6204 40.0803 20.2804 40.4803 19.9404 40.8603C19.9604 40.9003 19.9804 40.9203 20.0004 40.9603C20.1004 40.9403 20.2004 40.9403 20.3004 40.9003C21.0604 40.7203 21.8004 40.5003 22.5604 40.3403C23.7404 40.1003 24.9604 40.5803 25.5204 41.5003C26.3204 42.8003 25.9204 44.4003 24.5804 45.2403C23.8804 45.6803 23.1004 45.9003 22.3404 46.1203C22.1004 46.1803 21.8804 46.2603 21.6404 46.3203C21.6404 46.3603 21.6204 46.4003 21.6204 46.4403C21.9004 46.5403 22.1604 46.6603 22.4404 46.7203C23.5404 47.0003 24.6604 47.0603 25.7804 46.8203C26.3004 46.7003 26.8204 46.5403 27.3404 46.4403C27.5404 46.4003 27.7804 46.3803 27.9804 46.4403C28.7804 46.6803 29.6004 46.8003 30.4204 46.6603C31.2604 46.5403 32.0604 46.2803 32.7004 45.7003C33.9204 44.6203 34.0804 42.9603 32.9004 41.6603C32.7604 41.5003 32.6004 41.3403 32.4404 41.1803C32.6204 40.9003 32.8004 40.6603 33.0004 40.3803C33.6204 40.7003 34.0404 41.1803 34.3604 41.7603C35.5604 43.9003 34.6804 46.3603 32.4404 47.3603C31.1404 47.9403 29.8004 48.0603 28.4204 47.8003C27.7804 47.6803 27.2004 47.7203 26.5804 47.9003C24.8604 48.3803 23.1604 48.3203 21.4804 47.7003C21.1404 47.5803 20.8204 47.4003 20.5204 47.2003C20.1804 46.9603 19.9604 46.6403 20.0404 46.2003C20.1204 45.7603 20.4604 45.5203 20.8604 45.3803C21.5404 45.1203 22.2204 44.9003 22.9004 44.6403C23.2604 44.5003 23.6004 44.3003 23.9204 44.1003C24.2204 43.9003 24.4404 43.6003 24.5204 43.2403C24.7004 42.3403 24.0804 41.5403 23.1204 41.5203C22.7604 41.5203 22.4004 41.5803 22.0404 41.6403C21.3404 41.8003 20.6404 42.0003 19.9404 42.1603C19.3204 42.3203 18.8204 42.1003 18.5804 41.6003C18.4004 41.2003 18.5204 40.8203 18.7204 40.4803C19.4604 39.2403 20.4404 38.2603 21.7204 37.6003C22.3804 37.2603 23.1004 37.0003 23.8004 36.7603C24.0804 36.6603 24.3204 36.5403 24.5204 36.3203C25.4404 35.3603 26.5004 34.6203 27.8004 34.3003C29.3604 33.9003 30.8004 34.1203 32.0004 35.2403C33.2604 36.4203 33.5604 38.4203 32.6204 39.8003C32.4404 40.0803 32.2604 40.3603 32.0804 40.6403C31.5204 41.4603 31.1804 42.3603 31.2204 43.3603C31.2204 43.4603 31.2204 43.5603 31.2204 43.6603C31.3004 43.7003 31.2804 43.7003 31.2204 43.7803Z" fill="url(#paint3_linear_1452_391)"/>
<path d="M25.2192 55.6593C25.4592 55.3793 25.6392 55.0993 25.8992 54.8993C26.5792 54.3393 27.3992 54.0593 28.2792 53.9793C28.6992 53.9393 29.1192 53.9193 29.5392 53.8593C30.5992 53.7193 31.3592 53.1793 31.7592 52.1793C31.9992 51.5593 31.9592 50.9193 31.7392 50.3193C31.2792 49.0793 30.3592 48.2793 29.1592 47.7993C28.7792 47.6393 28.3592 47.5193 27.9592 47.4393C27.5392 47.3593 27.2192 47.1793 26.9192 46.8593C25.9792 45.8993 24.9192 45.1593 23.5992 44.7993C23.0992 44.6593 22.5992 44.5793 22.0792 44.4593C22.0592 44.4993 22.0392 44.5193 22.0192 44.5593C22.0792 44.6393 22.1392 44.7193 22.2192 44.7993C22.7592 45.3593 23.3192 45.8993 23.8392 46.4793C24.6392 47.3793 24.8392 48.6993 24.3192 49.6393C23.5992 50.9793 22.0192 51.4193 20.6192 50.6793C19.8992 50.2993 19.3192 49.7393 18.7192 49.1793C18.5392 49.0193 18.3592 48.8393 18.1992 48.6793C18.1592 48.6993 18.1192 48.6993 18.0992 48.7193C18.1592 48.9993 18.1992 49.2993 18.2592 49.5793C18.5592 50.6793 19.0792 51.6793 19.8592 52.5193C20.2192 52.9193 20.6192 53.2793 20.9592 53.6793C21.0992 53.8393 21.2392 54.0393 21.2792 54.2193C21.4792 55.0393 21.7792 55.7993 22.2992 56.4393C22.8192 57.0993 23.4392 57.6793 24.2792 57.9393C25.8392 58.4593 27.3392 57.7593 27.8792 56.0993C27.9392 55.8993 27.9992 55.6793 28.0792 55.4593C28.3992 55.4793 28.7192 55.5193 29.0592 55.5393C29.0792 56.2393 28.8792 56.8593 28.5592 57.4193C27.2992 59.5193 24.7392 59.9993 22.7392 58.5593C21.5792 57.7193 20.7992 56.6193 20.3392 55.2993C20.1192 54.6993 19.7992 54.1993 19.3392 53.7593C18.0592 52.5193 17.2592 50.9993 16.9592 49.2393C16.8992 48.8793 16.8792 48.5193 16.9192 48.1593C16.9592 47.7593 17.1192 47.3993 17.5392 47.2593C17.9792 47.1193 18.3392 47.2793 18.6592 47.5593C19.2192 48.0193 19.7592 48.4993 20.3192 48.9593C20.6192 49.1993 20.9592 49.3993 21.2992 49.5793C21.6192 49.7393 21.9792 49.7993 22.3592 49.6793C23.2392 49.3993 23.6192 48.4393 23.1392 47.5993C22.9592 47.2793 22.7392 46.9993 22.4992 46.7393C22.0192 46.1993 21.4992 45.6993 20.9992 45.1793C20.5592 44.7193 20.4792 44.1793 20.8192 43.7193C21.0792 43.3593 21.4592 43.2793 21.8592 43.2793C23.2992 43.2993 24.6392 43.6593 25.8592 44.4393C26.4792 44.8393 27.0592 45.3393 27.6392 45.8193C27.8592 46.0193 28.0992 46.1593 28.3792 46.2393C29.6592 46.5593 30.8392 47.0993 31.7592 48.0793C32.8792 49.2393 33.4192 50.5793 33.0392 52.1993C32.6392 53.8993 31.0792 55.1193 29.4192 55.0193C29.0792 54.9993 28.7592 54.9993 28.4192 54.9793C27.4192 54.8993 26.4792 55.0593 25.6392 55.5993C25.5592 55.6593 25.4592 55.6993 25.3792 55.7393C25.3192 55.6993 25.3192 55.6793 25.2192 55.6593Z" fill="url(#paint4_linear_1452_391)"/>
<path d="M11.919 56.4003C12.279 56.4803 12.619 56.5003 12.919 56.6003C13.759 56.9203 14.399 57.4803 14.919 58.2003C15.159 58.5403 15.399 58.9003 15.659 59.2203C16.319 60.0603 17.159 60.4603 18.239 60.3003C18.899 60.2003 19.419 59.8604 19.839 59.3404C20.679 58.3204 20.919 57.1203 20.739 55.8404C20.679 55.4204 20.599 55.0003 20.459 54.6203C20.319 54.2203 20.319 53.8404 20.439 53.4403C20.799 52.1603 20.899 50.8603 20.559 49.5403C20.419 49.0403 20.239 48.5603 20.099 48.0603C20.059 48.0603 20.019 48.0603 19.979 48.0603C19.939 48.1603 19.899 48.2603 19.879 48.3603C19.659 49.1003 19.459 49.8603 19.219 50.6003C18.839 51.7403 17.799 52.5603 16.739 52.6003C15.219 52.6403 14.039 51.5003 13.979 49.9203C13.959 49.1003 14.139 48.3203 14.339 47.5203C14.399 47.2803 14.459 47.0403 14.499 46.8203C14.459 46.8003 14.439 46.7803 14.399 46.7403C14.179 46.9403 13.939 47.1003 13.739 47.3203C12.939 48.1403 12.339 49.0803 11.979 50.1803C11.819 50.6803 11.699 51.2203 11.539 51.7203C11.479 51.9203 11.379 52.1203 11.219 52.2603C10.599 52.8403 10.099 53.4803 9.79904 54.2603C9.49904 55.0403 9.29904 55.8603 9.47904 56.7203C9.81904 58.3203 11.159 59.2803 12.879 58.9003C13.079 58.8603 13.299 58.8004 13.539 58.7404C13.679 59.0404 13.819 59.3203 13.959 59.6203C13.359 60.0003 12.739 60.1203 12.079 60.1203C9.61904 60.1003 7.93904 58.1003 8.17904 55.6603C8.31904 54.2403 8.87904 53.0203 9.79904 51.9603C10.219 51.4803 10.479 50.9403 10.639 50.3203C11.079 48.6003 11.979 47.1403 13.359 46.0003C13.639 45.7803 13.939 45.5803 14.279 45.4203C14.639 45.2403 15.039 45.2203 15.379 45.5003C15.719 45.8003 15.759 46.2003 15.679 46.6203C15.559 47.3403 15.399 48.0403 15.299 48.7603C15.239 49.1403 15.239 49.5403 15.259 49.9203C15.279 50.2803 15.419 50.6203 15.699 50.8803C16.379 51.5003 17.399 51.3403 17.899 50.5203C18.079 50.2203 18.219 49.8803 18.319 49.5203C18.539 48.8403 18.719 48.1403 18.919 47.4403C19.099 46.8203 19.519 46.5003 20.079 46.5403C20.519 46.5803 20.779 46.8803 20.979 47.2203C21.679 48.4803 22.039 49.8203 21.979 51.2603C21.939 52.0003 21.799 52.7403 21.679 53.4803C21.619 53.7803 21.619 54.0403 21.699 54.3203C22.059 55.6003 22.179 56.8803 21.799 58.1603C21.359 59.7003 20.459 60.8403 18.879 61.3203C17.219 61.8203 15.359 61.0803 14.619 59.5803C14.479 59.2803 14.299 59.0003 14.159 58.7003C13.739 57.8003 13.119 57.0603 12.219 56.6003C12.139 56.5603 12.039 56.5003 11.959 56.4403C11.939 56.5203 11.959 56.5003 11.919 56.4003Z" fill="url(#paint5_linear_1452_391)"/>
<path d="M42.1428 43.4996C42.9228 43.4996 43.6828 43.4796 44.3828 43.4196C45.0828 43.3596 45.7428 43.2396 46.3628 43.0196C46.9828 42.7996 47.5428 42.4596 48.0628 42.0196C48.5828 41.5596 49.0428 40.9396 49.4628 40.1396L48.5628 43.6996H38.2628V30.7996C38.2628 30.3796 38.2228 29.9996 38.1628 29.6796C38.1028 29.3396 37.9828 29.0596 37.8028 28.8196C37.6228 28.5796 37.3828 28.3996 37.0628 28.2796C36.7428 28.1596 36.3628 28.0996 35.8828 28.0996H40.0628V41.6396C40.0628 42.0596 40.0828 42.3796 40.1228 42.6396C40.1628 42.8796 40.2428 43.0796 40.3828 43.1996C40.5228 43.3396 40.7228 43.4196 41.0028 43.4596C41.2828 43.4996 41.6628 43.5196 42.1228 43.5196H42.1428V43.4996Z" fill="url(#paint6_linear_1452_391)"/>
<path d="M58.0797 27.7598C59.3197 27.7598 60.3997 27.9798 61.3197 28.3998C62.2397 28.8198 63.0197 29.3998 63.6197 30.1398C64.2397 30.8798 64.6997 31.7398 64.9997 32.7198C65.2997 33.6998 65.4597 34.7598 65.4597 35.8998C65.4597 37.0398 65.2997 38.0998 64.9997 39.0798C64.6997 40.0598 64.2397 40.9398 63.6197 41.6598C62.9997 42.3998 62.2397 42.9798 61.3197 43.3998C60.3997 43.8198 59.3197 44.0398 58.0797 44.0398C56.8397 44.0398 55.7597 43.8198 54.8397 43.3998C53.9197 42.9798 53.1397 42.3998 52.5197 41.6598C51.8997 40.9198 51.4397 40.0598 51.1397 39.0798C50.8397 38.0998 50.6797 37.0398 50.6797 35.8998C50.6797 34.7598 50.8397 33.7198 51.1397 32.7198C51.4397 31.7398 51.8997 30.8598 52.5197 30.1398C53.1397 29.3998 53.9197 28.8198 54.8397 28.3998C55.7597 27.9598 56.8397 27.7598 58.0797 27.7598ZM59.4797 43.5798C60.3197 43.5798 61.0197 43.3598 61.6197 42.9198C62.1997 42.4798 62.6797 41.8998 63.0197 41.1798C63.3597 40.4598 63.5997 39.6398 63.6997 38.7198C63.7997 37.7998 63.7997 36.8598 63.6597 35.8998C63.5397 34.9398 63.2797 33.9998 62.9197 33.0798C62.5597 32.1598 62.0797 31.3398 61.4997 30.6198C60.9197 29.8998 60.2197 29.3198 59.3997 28.8798C58.5797 28.4398 57.6797 28.2198 56.6397 28.2198C55.7997 28.2198 55.0997 28.4398 54.5197 28.8798C53.9397 29.3198 53.4797 29.8998 53.1397 30.6198C52.7997 31.3398 52.5797 32.1598 52.4997 33.0798C52.3997 33.9998 52.4197 34.9398 52.5597 35.8998C52.6997 36.8598 52.9397 37.7998 53.2997 38.7198C53.6597 39.6398 54.1397 40.4598 54.7197 41.1798C55.2997 41.8998 55.9797 42.4798 56.7797 42.9198C57.5797 43.3598 58.4797 43.5798 59.4797 43.5798Z" fill="url(#paint7_linear_1452_391)"/>
<path d="M82.3228 41.3796C82.3428 42.0996 82.5428 42.6596 82.8628 43.0796C83.2028 43.4996 83.8028 43.6996 84.6828 43.6996H80.4028V29.1596L74.8428 43.6996H74.6028L68.5028 30.4396V39.0596C68.5028 39.7596 68.5628 40.3996 68.6828 40.9596C68.8028 41.5396 69.0228 42.0196 69.3228 42.4196C69.6228 42.8196 70.0428 43.1396 70.5628 43.3596C71.0828 43.5796 71.7628 43.6996 72.5828 43.6996H68.2628V30.7996C68.2628 30.3796 68.2228 29.9996 68.1628 29.6796C68.1028 29.3396 67.9828 29.0596 67.8028 28.8196C67.6228 28.5796 67.3828 28.3996 67.0628 28.2796C66.7428 28.1596 66.3628 28.0996 65.8828 28.0996H69.5428L75.5228 41.3196L80.5828 28.0996H82.3228V41.3796Z" fill="url(#paint8_linear_1452_391)"/>
<path d="M96.5405 40.2206C96.8005 40.8606 96.9805 41.4206 97.0405 41.8806C97.1005 42.3406 97.1005 42.7206 97.0205 43.0006C96.9405 43.3006 96.8005 43.5006 96.6005 43.6406C96.4005 43.7806 96.1605 43.8406 95.8805 43.8406C95.4405 43.8406 95.0805 43.7006 94.7605 43.4206C94.4405 43.1406 94.1005 42.8206 93.7605 42.4806C93.4205 42.1406 93.0005 41.8206 92.5605 41.5406C92.1005 41.2606 91.5205 41.1206 90.8405 41.1206C90.2405 41.1206 89.7605 41.2606 89.3605 41.5606C88.9805 41.8606 88.6205 42.1806 88.3005 42.5406C87.9805 42.9006 87.6605 43.2206 87.3605 43.5206C87.0605 43.8206 86.6805 43.9606 86.2405 43.9606C85.9405 43.9606 85.6805 43.9006 85.4405 43.7806C85.2005 43.6606 85.0205 43.4606 84.9205 43.1806C84.8005 42.9006 84.7805 42.5406 84.8605 42.0806C84.9205 41.6206 85.1205 41.0806 85.4205 40.4406L90.3805 30.0206L89.6405 28.1406H91.5005L96.5405 40.2206ZM94.2405 41.5606C94.4005 41.5606 94.5205 41.5206 94.5805 41.4406C94.6405 41.3606 94.6805 41.2806 94.7005 41.1806C94.7205 41.0806 94.7005 40.9606 94.6805 40.8406C94.6605 40.7206 94.6205 40.6006 94.5605 40.5006L90.5205 30.3206L87.4005 36.8806C87.2405 37.2006 87.0805 37.5606 86.9005 37.9206C86.7405 38.2806 86.5805 38.6406 86.4605 39.0006C86.3205 39.3406 86.2005 39.6806 86.1005 39.9806C86.0005 40.2806 85.9205 40.5406 85.8805 40.7406C85.7805 41.2406 85.8005 41.6006 85.9205 41.8206C86.0605 42.0406 86.2605 42.1406 86.5205 42.1406C86.9005 42.1406 87.2205 42.0606 87.5205 41.9206C87.8205 41.7806 88.1205 41.6206 88.4205 41.4606C88.7405 41.3006 89.0805 41.1406 89.4605 41.0006C89.8405 40.8606 90.3005 40.7806 90.8405 40.7806C91.3005 40.7806 91.7005 40.8206 92.0605 40.9006C92.4005 40.9806 92.7205 41.0606 92.9805 41.1606C93.2405 41.2406 93.4805 41.3406 93.6805 41.4206C93.8805 41.5206 94.0605 41.5606 94.2405 41.5606Z" fill="url(#paint9_linear_1452_391)"/>
<path d="M43.2584 46.6411C44.2584 46.6411 45.1384 46.8011 45.8784 47.1211C46.6384 47.4411 47.2584 47.8811 47.7584 48.4211C48.2584 48.9611 48.6184 49.5611 48.8784 50.2411C49.1384 50.9211 49.2584 51.6211 49.2584 52.3411C49.2584 53.0611 49.1584 53.7611 48.9184 54.4411C48.6784 55.1211 48.3384 55.7411 47.8784 56.2611C47.4184 56.8011 46.8384 57.2411 46.1384 57.5611C45.4384 57.8811 44.6384 58.0411 43.7384 58.0411L43.6784 58.0211L43.6984 58.0411H39.1384V48.6011C39.1384 48.3011 39.1184 48.0211 39.0584 47.7811C39.0184 47.5411 38.9184 47.3211 38.7984 47.1611C38.6584 46.9811 38.4784 46.8611 38.2584 46.7611C38.0384 46.6611 37.7384 46.6211 37.3984 46.6211H43.2584V46.6411ZM43.5784 57.9411C44.2784 57.9211 44.8984 57.7611 45.4384 57.4411C45.9584 57.1211 46.3984 56.7011 46.7584 56.1611C47.0984 55.6411 47.3584 55.0411 47.5384 54.3611C47.7184 53.7011 47.7984 53.0011 47.7784 52.3211C47.7584 51.6211 47.6584 50.9411 47.4584 50.2811C47.2584 49.6211 46.9784 49.0211 46.5984 48.5011C46.2184 47.9811 45.7584 47.5611 45.1984 47.2611C44.6384 46.9411 43.9784 46.8011 43.2384 46.8011H41.2184C41.0384 46.8211 40.8984 46.8611 40.7984 46.9211C40.6984 46.9811 40.5984 47.0611 40.5584 47.1611C40.4984 47.2611 40.4784 47.4011 40.4584 47.5611C40.4384 47.7211 40.4384 47.9211 40.4384 48.1611V56.5811C40.4384 56.8811 40.4584 57.1211 40.4784 57.3011C40.4984 57.4811 40.5784 57.6211 40.6784 57.7211C40.7784 57.8211 40.9384 57.8811 41.1384 57.9011C41.3384 57.9211 41.6184 57.9411 41.9584 57.9411H43.5584H43.5784Z" fill="url(#paint10_linear_1452_391)"/>
<path d="M54.1195 57.9402C54.6995 57.9402 55.2395 57.9202 55.7595 57.8802C56.2795 57.8402 56.7595 57.7402 57.1995 57.5802C57.6595 57.4202 58.0595 57.1802 58.4395 56.8402C58.8195 56.5002 59.1595 56.0402 59.4595 55.4602L58.7995 58.0802H51.2595V48.6402C51.2595 48.3402 51.2395 48.0602 51.1795 47.8202C51.1395 47.5802 51.0395 47.3602 50.9195 47.2002C50.7795 47.0202 50.5995 46.9002 50.3795 46.8002C50.1595 46.7002 49.8595 46.6602 49.5195 46.6602H58.3795L59.0395 49.2802C58.7395 48.7002 58.3995 48.2402 58.0195 47.9002C57.6395 47.5602 57.2195 47.3202 56.7795 47.1602C56.3395 47.0002 55.8595 46.9002 55.3395 46.8602C54.8195 46.8202 54.2795 46.8002 53.7195 46.8002H53.3795C53.1995 46.8202 53.0595 46.8602 52.9595 46.9202C52.8595 46.9802 52.7595 47.0602 52.7195 47.1602C52.6595 47.2602 52.6395 47.4002 52.6195 47.5602C52.5995 47.7202 52.5995 47.9202 52.5995 48.1602V51.8002C52.9195 51.6602 53.2595 51.6002 53.5995 51.6002C53.9395 51.6002 54.2995 51.6402 54.6395 51.7402C54.9795 51.8402 55.3395 51.9402 55.6595 52.0402C55.9995 52.1402 56.3195 52.2402 56.6395 52.3402C56.9595 52.4402 57.2595 52.4802 57.5595 52.4802C57.9395 52.4802 58.2595 52.3802 58.5395 52.1802C58.2395 52.5802 57.9195 52.8602 57.5995 53.0202C57.2795 53.1802 56.9595 53.2402 56.5995 53.2402C56.2795 53.2402 55.9395 53.2002 55.6195 53.1002C55.2795 53.0002 54.9595 52.9002 54.6195 52.7602C54.2795 52.6402 53.9395 52.5202 53.5995 52.4202C53.2595 52.3202 52.9195 52.2602 52.5795 52.2402V56.5802C52.5795 56.8802 52.5995 57.1202 52.6195 57.3002C52.6395 57.4802 52.7195 57.6202 52.8195 57.7202C52.9195 57.8202 53.0795 57.8802 53.2795 57.9002C53.4795 57.9202 53.7595 57.9402 54.0995 57.9402H54.1195Z" fill="url(#paint11_linear_1452_391)"/>
<path d="M69.9186 46.6406V58.2806H69.7386L61.4986 47.9606V54.6806C61.4986 55.2006 61.5386 55.6606 61.6386 56.0806C61.7186 56.5006 61.8786 56.8606 62.0986 57.1406C62.3186 57.4406 62.6186 57.6606 62.9986 57.8206C63.3786 57.9806 63.8786 58.0606 64.4586 58.0606H61.2986V48.6206C61.2986 48.3206 61.2786 48.0406 61.2186 47.8006C61.1786 47.5606 61.0786 47.3406 60.9586 47.1806C60.8186 47.0006 60.6386 46.8806 60.4186 46.7806C60.1986 46.6806 59.8986 46.6406 59.5586 46.6406H62.2186L69.7186 55.7406V50.0406C69.7186 49.5206 69.6786 49.0606 69.5786 48.6406C69.4986 48.2206 69.3386 47.8606 69.1186 47.5806C68.8986 47.2806 68.5986 47.0606 68.2186 46.9006C67.8386 46.7406 67.3386 46.6606 66.7586 46.6606H69.9186V46.6406Z" fill="url(#paint12_linear_1452_391)"/>
<path d="M81.3208 49.2606C81.0608 48.7606 80.7808 48.3606 80.4608 48.0406C80.1408 47.7206 79.8008 47.4806 79.4408 47.3006C79.0808 47.1206 78.6808 47.0006 78.2808 46.9206C77.8608 46.8406 77.4408 46.8006 76.9808 46.8006V56.0806C76.9808 56.3806 77.0008 56.6606 77.0608 56.9006C77.1008 57.1406 77.2008 57.3606 77.3208 57.5206C77.4608 57.7006 77.6208 57.8206 77.8608 57.9206C78.0808 58.0206 78.3608 58.0606 78.7208 58.0606H75.6608V46.8006C75.2008 46.8206 74.7608 46.8606 74.3608 46.9206C73.9408 47.0006 73.5608 47.1206 73.1808 47.3006C72.8008 47.4806 72.4608 47.7206 72.1608 48.0406C71.8608 48.3606 71.5608 48.7606 71.3008 49.2606L71.9608 46.6406H80.7008L81.3208 49.2606Z" fill="url(#paint13_linear_1452_391)"/>
<path d="M88.8991 55.5411C89.0991 56.0011 89.2191 56.4211 89.2591 56.7411C89.2991 57.0811 89.2991 57.3611 89.2591 57.5611C89.1991 57.7811 89.0991 57.9211 88.9391 58.0211C88.7791 58.1211 88.6191 58.1611 88.4191 58.1611C88.0991 58.1611 87.8191 58.0611 87.5991 57.8411C87.3591 57.6411 87.1191 57.4011 86.8591 57.1411C86.5991 56.8811 86.3191 56.6611 85.9791 56.4411C85.6391 56.2411 85.2191 56.1211 84.7191 56.1211C84.2791 56.1211 83.9191 56.2211 83.6391 56.4411C83.3591 56.6611 83.0991 56.8811 82.8591 57.1611C82.6191 57.4211 82.3991 57.6611 82.1791 57.8811C81.9591 58.1011 81.6791 58.2011 81.3591 58.2011C81.1391 58.2011 80.9391 58.1611 80.7791 58.0611C80.5991 57.9611 80.4791 57.8211 80.3991 57.6211C80.3191 57.4211 80.2991 57.1611 80.3591 56.8211C80.3991 56.4811 80.5391 56.0811 80.7791 55.6211L84.3991 48.0011L83.8591 46.6211H85.2191L88.8991 55.5411ZM87.2191 56.5211C87.3391 56.5211 87.4191 56.5011 87.4591 56.4411C87.4991 56.3811 87.5391 56.3211 87.5391 56.2411C87.5591 56.1611 87.5391 56.0811 87.5191 56.0011C87.4991 55.9211 87.4791 55.8411 87.4391 55.7611L84.4791 48.3211L82.1991 53.0811C82.0791 53.3211 81.9591 53.5811 81.8391 53.8411C81.7191 54.1011 81.6191 54.3611 81.5191 54.6211C81.4191 54.8811 81.3391 55.1211 81.2591 55.3411C81.1791 55.5611 81.1191 55.7611 81.0991 55.9011C81.0191 56.2811 81.0391 56.5411 81.1391 56.7011C81.2391 56.8611 81.3791 56.9411 81.5791 56.9411C81.8591 56.9411 82.0991 56.8811 82.2991 56.7811C82.5191 56.6811 82.7391 56.5611 82.9591 56.4411C83.1791 56.3211 83.4391 56.2011 83.7191 56.1011C83.9991 56.0011 84.3391 55.9411 84.7191 55.9411C85.0591 55.9411 85.3591 55.9811 85.6191 56.0211C85.8791 56.0811 86.0991 56.1411 86.2991 56.2011C86.4991 56.2611 86.6591 56.3211 86.8191 56.3811C86.9591 56.4811 87.0991 56.5211 87.2191 56.5211Z" fill="url(#paint14_linear_1452_391)"/>
<path d="M93.8812 57.9402C94.4613 57.9402 95.0013 57.9202 95.5213 57.8802C96.0413 57.8402 96.5212 57.7402 96.9612 57.5802C97.4212 57.4202 97.8213 57.1802 98.2013 56.8402C98.5813 56.5002 98.9213 56.0402 99.2213 55.4602L98.5612 58.0802H91.0213V48.6402C91.0213 48.3402 91.0013 48.0602 90.9413 47.8202C90.9013 47.5802 90.8012 47.3602 90.6812 47.2002C90.5412 47.0202 90.3613 46.9002 90.1413 46.8002C89.9213 46.7002 89.6213 46.6602 89.2812 46.6602H92.3413V56.5802C92.3413 56.8802 92.3613 57.1202 92.3813 57.3002C92.4013 57.4802 92.4813 57.6202 92.5812 57.7202C92.6813 57.8202 92.8413 57.8802 93.0413 57.9002C93.2413 57.9202 93.5212 57.9402 93.8612 57.9402H93.8812Z" fill="url(#paint15_linear_1452_391)"/>
<path d="M2.77937 65.541C3.01937 65.541 3.21938 65.561 3.33938 65.621C3.45937 65.681 3.57937 65.741 3.67937 65.801C3.73937 65.841 3.77937 65.861 3.81937 65.881C3.85938 65.901 3.89937 65.901 3.91937 65.901C3.95937 65.901 3.99937 65.881 4.01937 65.821C4.03937 65.761 4.05937 65.681 4.07937 65.581H4.23937C4.23937 65.661 4.21937 65.761 4.21937 65.881C4.21937 66.001 4.19937 66.141 4.19937 66.341C4.19937 66.521 4.19937 66.781 4.19937 67.081H4.03938C4.01937 66.841 3.97937 66.621 3.87937 66.421C3.79937 66.201 3.65937 66.041 3.49937 65.901C3.33937 65.761 3.09937 65.701 2.83937 65.701C2.57937 65.701 2.35937 65.781 2.19937 65.941C2.03937 66.101 1.93937 66.301 1.93937 66.561C1.93937 66.781 1.99937 66.961 2.09937 67.101C2.21937 67.241 2.35937 67.381 2.55937 67.501C2.73937 67.621 2.95937 67.741 3.17937 67.881C3.43937 68.041 3.65937 68.181 3.85937 68.341C4.05937 68.501 4.21937 68.661 4.31937 68.841C4.43937 69.021 4.49937 69.241 4.49937 69.501C4.49937 69.821 4.41937 70.061 4.27937 70.281C4.13937 70.481 3.93937 70.641 3.71937 70.741C3.47937 70.841 3.21937 70.901 2.93937 70.901C2.67937 70.901 2.47938 70.881 2.31937 70.821C2.15938 70.761 2.03937 70.701 1.93937 70.641C1.83937 70.581 1.73937 70.541 1.69937 70.541C1.65937 70.541 1.61937 70.561 1.59937 70.621C1.57937 70.681 1.55937 70.761 1.53937 70.861H1.35938C1.35938 70.761 1.37937 70.641 1.37937 70.501C1.37937 70.361 1.37937 70.181 1.37937 69.961C1.37937 69.741 1.37937 69.461 1.37937 69.121H1.53937C1.55937 69.421 1.61937 69.681 1.69937 69.941C1.79937 70.201 1.91938 70.401 2.11937 70.541C2.29937 70.701 2.55937 70.761 2.87937 70.761C3.03937 70.761 3.19938 70.721 3.33938 70.661C3.47937 70.601 3.59937 70.501 3.69937 70.341C3.79937 70.201 3.83938 70.021 3.83938 69.781C3.83938 69.581 3.79937 69.401 3.69937 69.261C3.59937 69.121 3.47937 68.981 3.29937 68.841C3.11937 68.721 2.91937 68.581 2.69937 68.441C2.45937 68.301 2.25937 68.161 2.05937 68.021C1.85937 67.881 1.69937 67.701 1.57937 67.521C1.45937 67.321 1.39937 67.101 1.39937 66.821C1.39937 66.541 1.45937 66.301 1.59937 66.121C1.71937 65.941 1.89938 65.801 2.11937 65.701C2.31937 65.601 2.53937 65.541 2.77937 65.541Z" fill="url(#paint16_linear_1452_391)"/>
<path d="M11.882 65.6211V65.7611C11.722 65.7611 11.582 65.7811 11.502 65.8211C11.422 65.8611 11.362 65.9011 11.322 66.0011C11.302 66.0811 11.282 66.2211 11.282 66.4011V70.0011C11.282 70.1811 11.302 70.3011 11.322 70.4011C11.342 70.4811 11.402 70.5411 11.502 70.5811C11.582 70.6011 11.722 70.6211 11.882 70.6411V70.7811C11.762 70.7811 11.622 70.7611 11.462 70.7611C11.302 70.7611 11.122 70.7611 10.942 70.7611C10.742 70.7611 10.582 70.7611 10.402 70.7611C10.242 70.7611 10.102 70.7611 10.002 70.7811V70.6411C10.162 70.6411 10.302 70.6211 10.382 70.5811C10.462 70.5611 10.522 70.5011 10.562 70.4011C10.602 70.3011 10.602 70.1811 10.602 70.0011V66.0011L10.622 66.0211L8.82203 70.8011H8.70203L6.86203 66.0811V69.9211C6.86203 70.1011 6.88203 70.2411 6.90203 70.3411C6.94203 70.4411 7.00203 70.5011 7.10203 70.5611C7.20203 70.6011 7.34203 70.6211 7.52203 70.6411V70.7811C7.44203 70.7811 7.32203 70.7611 7.18203 70.7611C7.04203 70.7611 6.90203 70.7611 6.78203 70.7611C6.66203 70.7611 6.54203 70.7611 6.40203 70.7611C6.28203 70.7611 6.18203 70.7611 6.08203 70.7811V70.6411C6.24203 70.6411 6.38203 70.6011 6.46203 70.5611C6.54203 70.5211 6.60203 70.4411 6.64203 70.3411C6.66203 70.2411 6.68203 70.1011 6.68203 69.9211V66.4011C6.68203 66.2211 6.66203 66.0811 6.64203 66.0011C6.62203 65.9211 6.56203 65.8611 6.46203 65.8211C6.38203 65.7811 6.24203 65.7811 6.08203 65.7611V65.6211C6.16203 65.6211 6.26203 65.6211 6.40203 65.6411C6.52203 65.6411 6.64203 65.6411 6.78203 65.6411C6.88203 65.6411 7.00203 65.6411 7.12203 65.6411C7.24203 65.6411 7.34203 65.6411 7.40203 65.6211L9.06203 69.9611L8.94203 70.0211L10.602 65.6411C10.662 65.6411 10.722 65.6411 10.782 65.6411C10.842 65.6411 10.902 65.6411 10.962 65.6411C11.142 65.6411 11.302 65.6411 11.482 65.6411C11.642 65.6411 11.782 65.6411 11.882 65.6211Z" fill="url(#paint17_linear_1452_391)"/>
<path d="M15.3175 65.6211V65.7611C15.1575 65.7611 15.0175 65.7811 14.9375 65.8211C14.8575 65.8611 14.7975 65.9011 14.7575 66.0011C14.7375 66.0811 14.7175 66.2211 14.7175 66.4011V70.0011C14.7175 70.1811 14.7375 70.3011 14.7575 70.4011C14.7775 70.4811 14.8375 70.5411 14.9375 70.5811C15.0175 70.6011 15.1575 70.6211 15.3175 70.6411V70.7811C15.1975 70.7811 15.0575 70.7611 14.8975 70.7611C14.7375 70.7611 14.5575 70.7611 14.3775 70.7611C14.1775 70.7611 14.0175 70.7611 13.8375 70.7611C13.6775 70.7611 13.5375 70.7611 13.4375 70.7811V70.6411C13.5975 70.6411 13.7375 70.6211 13.8175 70.5811C13.8975 70.5611 13.9575 70.5011 13.9975 70.4011C14.0175 70.3211 14.0375 70.1811 14.0375 70.0011V66.4011C14.0375 66.2211 14.0175 66.0811 13.9975 66.0011C13.9775 65.9211 13.9175 65.8611 13.8175 65.8211C13.7375 65.7811 13.5975 65.7811 13.4375 65.7611V65.6211C13.5375 65.6211 13.6775 65.6211 13.8375 65.6411C13.9975 65.6411 14.1775 65.6411 14.3775 65.6411C14.5575 65.6411 14.7175 65.6411 14.8975 65.6411C15.0575 65.6411 15.1975 65.6411 15.3175 65.6211Z" fill="url(#paint18_linear_1452_391)"/>
<path d="M18.7394 65.6211V65.7611C18.5794 65.7611 18.4394 65.7811 18.3594 65.8211C18.2794 65.8611 18.2194 65.9011 18.1794 66.0011C18.1594 66.0811 18.1394 66.2211 18.1394 66.4011V70.0011C18.1394 70.1811 18.1594 70.3011 18.1794 70.4011C18.1994 70.4811 18.2594 70.5411 18.3594 70.5811C18.4394 70.6011 18.5794 70.6211 18.7394 70.6211H19.2794C19.4994 70.6211 19.6994 70.6011 19.8394 70.5411C19.9794 70.5011 20.0994 70.4211 20.1794 70.3211C20.2594 70.2211 20.3394 70.0811 20.3794 69.9011C20.4194 69.7211 20.4594 69.5211 20.4794 69.2611H20.6394C20.6194 69.4211 20.6194 69.6011 20.6194 69.8611C20.6194 69.9611 20.6194 70.0811 20.6394 70.2611C20.6394 70.4411 20.6594 70.6211 20.6794 70.8011C20.4394 70.8011 20.1394 70.7811 19.8394 70.7811C19.5194 70.7811 19.2394 70.7811 18.9994 70.7811C18.8994 70.7811 18.7594 70.7811 18.5794 70.7811C18.3994 70.7811 18.2194 70.7811 18.0394 70.7811C17.8394 70.7811 17.6394 70.7811 17.4394 70.7811C17.2394 70.7811 17.0394 70.7811 16.8594 70.8011V70.6611C17.0194 70.6611 17.1594 70.6411 17.2394 70.6011C17.3194 70.5811 17.3794 70.5211 17.4194 70.4211C17.4394 70.3411 17.4594 70.2011 17.4594 70.0211V66.4211C17.4594 66.2411 17.4394 66.1011 17.4194 66.0211C17.3994 65.9411 17.3394 65.8811 17.2394 65.8411C17.1594 65.8011 17.0194 65.8011 16.8594 65.7811V65.6411C16.9594 65.6411 17.0994 65.6411 17.2594 65.6611C17.4194 65.6611 17.5994 65.6611 17.7994 65.6611C17.9794 65.6611 18.1394 65.6611 18.3194 65.6611C18.4794 65.6411 18.6194 65.6411 18.7394 65.6211Z" fill="url(#paint19_linear_1452_391)"/>
<path d="M25.7767 65.6211C25.7567 65.7811 25.7367 65.9611 25.7367 66.1211C25.7367 66.2811 25.7167 66.4011 25.7167 66.4811C25.7167 66.5611 25.7167 66.6611 25.7167 66.7411C25.7167 66.8211 25.7167 66.8811 25.7367 66.9411H25.5967C25.5767 66.6611 25.5167 66.4211 25.4767 66.2611C25.4167 66.1011 25.3367 65.9811 25.1967 65.9011C25.0767 65.8211 24.8767 65.8011 24.6167 65.8011H24.0167C23.8567 65.8011 23.7167 65.8211 23.6367 65.8411C23.5567 65.8611 23.4967 65.9211 23.4567 66.0011C23.4367 66.0811 23.4167 66.2211 23.4167 66.4011V70.0011C23.4167 70.1811 23.4367 70.3011 23.4567 70.4011C23.4767 70.4811 23.5367 70.5411 23.6367 70.5811C23.7167 70.6011 23.8567 70.6211 24.0167 70.6211H24.5567C24.8567 70.6211 25.0967 70.5811 25.2567 70.5011C25.4167 70.4211 25.5367 70.2811 25.5967 70.1011C25.6767 69.9211 25.7167 69.6611 25.7567 69.3411H25.9167C25.8967 69.4811 25.8967 69.6411 25.8967 69.8611C25.8967 69.9611 25.8967 70.0811 25.9167 70.2611C25.9167 70.4411 25.9367 70.6211 25.9567 70.8011C25.7167 70.8011 25.4167 70.7811 25.1167 70.7811C24.7967 70.7811 24.5167 70.7811 24.2767 70.7811C24.1767 70.7811 24.0367 70.7811 23.8567 70.7811C23.6767 70.7811 23.4967 70.7811 23.3167 70.7811C23.1167 70.7811 22.9167 70.7811 22.7167 70.7811C22.5167 70.7811 22.3167 70.7811 22.1367 70.8011V70.6611C22.2967 70.6611 22.4367 70.6411 22.5167 70.6011C22.5967 70.5811 22.6567 70.5211 22.6967 70.4211C22.7167 70.3411 22.7367 70.2011 22.7367 70.0211V66.4211C22.7367 66.2411 22.7167 66.1011 22.6967 66.0211C22.6767 65.9411 22.6167 65.8811 22.5167 65.8411C22.4367 65.8011 22.2967 65.8011 22.1367 65.7811V65.6411C22.3167 65.6411 22.5167 65.6411 22.7167 65.6611C22.9167 65.6611 23.1167 65.6611 23.3167 65.6611C23.5167 65.6611 23.6967 65.6611 23.8567 65.6611C24.0167 65.6611 24.1567 65.6611 24.2767 65.6611C24.4967 65.6611 24.7567 65.6611 25.0367 65.6611C25.2967 65.6411 25.5567 65.6411 25.7767 65.6211ZM24.5167 68.1211V68.2611H23.1767V68.1211H24.5167ZM24.7367 67.1611C24.7167 67.4411 24.7167 67.6411 24.7167 67.8011C24.7167 67.9411 24.7167 68.0811 24.7167 68.2011C24.7167 68.3211 24.7167 68.4611 24.7167 68.6011C24.7167 68.7411 24.7367 68.9611 24.7567 69.2411H24.5967C24.5767 69.0811 24.5567 68.9411 24.5367 68.7811C24.5167 68.6411 24.4567 68.5211 24.3567 68.4211C24.2567 68.3211 24.1167 68.2811 23.8967 68.2811V68.1411C24.0567 68.1411 24.1767 68.1011 24.2767 68.0411C24.3567 67.9811 24.4167 67.9011 24.4567 67.7811C24.4967 67.6811 24.5167 67.5811 24.5367 67.4611C24.5567 67.3611 24.5567 67.2611 24.5767 67.1611H24.7367Z" fill="url(#paint20_linear_1452_391)"/>
<path d="M29.0992 65.541C29.3392 65.541 29.5392 65.561 29.6592 65.621C29.7792 65.681 29.8992 65.741 29.9992 65.801C30.0592 65.841 30.0992 65.861 30.1392 65.881C30.1792 65.901 30.2192 65.901 30.2392 65.901C30.2792 65.901 30.3192 65.881 30.3392 65.821C30.3592 65.761 30.3792 65.681 30.3992 65.581H30.5592C30.5592 65.661 30.5392 65.761 30.5392 65.881C30.5392 66.001 30.5192 66.141 30.5192 66.341C30.5192 66.521 30.5192 66.781 30.5192 67.081H30.3592C30.3392 66.841 30.2992 66.621 30.1992 66.421C30.1192 66.201 29.9792 66.041 29.8192 65.901C29.6592 65.761 29.4192 65.701 29.1592 65.701C28.8992 65.701 28.6792 65.781 28.5192 65.941C28.3592 66.101 28.2592 66.301 28.2592 66.561C28.2592 66.781 28.3192 66.961 28.4192 67.101C28.5392 67.241 28.6792 67.381 28.8792 67.501C29.0592 67.621 29.2792 67.741 29.4992 67.881C29.7592 68.041 29.9792 68.181 30.1792 68.341C30.3792 68.501 30.5392 68.661 30.6392 68.841C30.7592 69.021 30.8192 69.241 30.8192 69.501C30.8192 69.821 30.7392 70.061 30.5992 70.281C30.4592 70.481 30.2592 70.641 30.0392 70.741C29.7992 70.841 29.5392 70.901 29.2592 70.901C28.9992 70.901 28.7992 70.881 28.6392 70.821C28.4792 70.761 28.3592 70.701 28.2592 70.641C28.1592 70.581 28.0592 70.541 28.0192 70.541C27.9792 70.541 27.9392 70.561 27.9192 70.621C27.8992 70.681 27.8792 70.761 27.8592 70.861H27.6992C27.6992 70.761 27.7192 70.641 27.7192 70.501C27.7192 70.361 27.7192 70.181 27.7192 69.961C27.7192 69.741 27.7192 69.461 27.7192 69.121H27.8792C27.8992 69.421 27.9592 69.681 28.0392 69.941C28.1392 70.201 28.2592 70.401 28.4592 70.541C28.6392 70.701 28.8992 70.761 29.2192 70.761C29.3792 70.761 29.5392 70.721 29.6792 70.661C29.8192 70.601 29.9392 70.501 30.0392 70.341C30.1392 70.201 30.1792 70.021 30.1792 69.781C30.1792 69.581 30.1392 69.401 30.0392 69.261C29.9392 69.121 29.8192 68.981 29.6392 68.841C29.4592 68.721 29.2592 68.581 29.0392 68.441C28.7992 68.301 28.5992 68.161 28.3992 68.021C28.1992 67.881 28.0392 67.701 27.9192 67.521C27.7992 67.321 27.7392 67.101 27.7392 66.821C27.7392 66.541 27.7992 66.301 27.9392 66.121C28.0592 65.941 28.2392 65.801 28.4592 65.701C28.6392 65.601 28.8592 65.541 29.0992 65.541Z" fill="url(#paint21_linear_1452_391)"/>
<path d="M39.058 65.6211C39.038 65.8011 39.018 65.9811 39.018 66.1611C39.018 66.3411 38.998 66.4611 38.998 66.5611C38.998 66.6811 38.998 66.7811 38.998 66.8811C38.998 66.9811 38.998 67.0811 39.018 67.1411H38.858C38.818 66.8011 38.778 66.5411 38.718 66.3411C38.658 66.1411 38.558 66.0011 38.418 65.9211C38.278 65.8411 38.038 65.7811 37.738 65.7811H37.338V69.9211C37.338 70.1211 37.358 70.2611 37.398 70.3611C37.438 70.4611 37.498 70.5211 37.618 70.5611C37.718 70.6011 37.878 70.6211 38.078 70.6211V70.7611C37.958 70.7611 37.798 70.7411 37.598 70.7411C37.398 70.7411 37.198 70.7411 36.998 70.7411C36.778 70.7411 36.578 70.7411 36.378 70.7411C36.178 70.7411 36.038 70.7411 35.918 70.7611V70.6211C36.118 70.6211 36.278 70.5811 36.378 70.5611C36.478 70.5211 36.558 70.4611 36.598 70.3611C36.638 70.2611 36.658 70.1211 36.658 69.9211V65.8011H36.258C35.958 65.8011 35.738 65.8411 35.578 65.9411C35.438 66.0211 35.318 66.1611 35.258 66.3611C35.198 66.5611 35.158 66.8211 35.118 67.1611H34.958C34.958 67.0811 34.978 67.0011 34.978 66.9011C34.978 66.8011 34.978 66.6811 34.978 66.5811C34.978 66.4811 34.978 66.3611 34.958 66.1811C34.958 66.0011 34.938 65.8411 34.918 65.6411C35.118 65.6411 35.338 65.6411 35.598 65.6611C35.838 65.6611 36.078 65.6611 36.338 65.6611C36.578 65.6611 36.798 65.6611 36.998 65.6611C37.198 65.6611 37.418 65.6611 37.658 65.6611C37.898 65.6611 38.138 65.6611 38.398 65.6611C38.638 65.6411 38.858 65.6411 39.058 65.6211Z" fill="url(#paint22_linear_1452_391)"/>
<path d="M40.5195 70.7811V70.6411C40.6795 70.6411 40.8195 70.6211 40.8995 70.5811C40.9795 70.5611 41.0395 70.5011 41.0795 70.4011C41.0995 70.3211 41.1195 70.1811 41.1195 70.0011V66.4011C41.1195 66.2211 41.0995 66.0811 41.0795 66.0011C41.0595 65.9211 40.9995 65.8611 40.8995 65.8211C40.8195 65.7811 40.6795 65.7811 40.5195 65.7611V65.6211C40.6195 65.6211 40.7595 65.6211 40.9195 65.6411C41.0795 65.6411 41.2595 65.6411 41.4595 65.6411C41.6395 65.6411 41.7995 65.6411 41.9795 65.6411C42.1395 65.6411 42.2795 65.6411 42.3995 65.6211V65.7611C42.2395 65.7611 42.0995 65.7811 42.0195 65.8211C41.9395 65.8611 41.8795 65.9011 41.8395 66.0011C41.8195 66.0811 41.7995 66.2211 41.7995 66.4011V70.0011C41.7995 70.1811 41.8195 70.3011 41.8395 70.4011C41.8595 70.5011 41.9195 70.5411 42.0195 70.5811C42.0995 70.6011 42.2395 70.6211 42.3995 70.6411V70.7811C42.2795 70.7811 42.1395 70.7611 41.9795 70.7611C41.8195 70.7611 41.6395 70.7611 41.4595 70.7611C41.2595 70.7611 41.0995 70.7611 40.9195 70.7611C40.7595 70.7611 40.6395 70.7611 40.5195 70.7811ZM41.5395 68.2611V68.1211H44.4395V68.2611H41.5395ZM43.5995 70.7811V70.6411C43.7595 70.6411 43.8995 70.6211 43.9795 70.5811C44.0595 70.5611 44.1195 70.5011 44.1595 70.4011C44.1795 70.3211 44.1995 70.1811 44.1995 70.0011V66.4011C44.1995 66.2211 44.1795 66.0811 44.1595 66.0011C44.1395 65.9211 44.0795 65.8611 43.9795 65.8211C43.8995 65.7811 43.7595 65.7811 43.5995 65.7611V65.6211C43.7195 65.6211 43.8595 65.6211 44.0195 65.6411C44.1995 65.6411 44.3595 65.6411 44.5195 65.6411C44.7195 65.6411 44.8795 65.6411 45.0595 65.6411C45.2195 65.6411 45.3595 65.6411 45.4595 65.6211V65.7611C45.2995 65.7611 45.1595 65.7811 45.0795 65.8211C44.9995 65.8611 44.9395 65.9011 44.8995 66.0011C44.8795 66.0811 44.8595 66.2211 44.8595 66.4011V70.0011C44.8595 70.1811 44.8795 70.3011 44.8995 70.4011C44.9195 70.5011 44.9795 70.5411 45.0795 70.5811C45.1595 70.6011 45.2995 70.6211 45.4595 70.6411V70.7811C45.3595 70.7811 45.2195 70.7611 45.0595 70.7611C44.8995 70.7611 44.7195 70.7611 44.5195 70.7611C44.3595 70.7611 44.1795 70.7611 44.0195 70.7611C43.8595 70.7611 43.7195 70.7611 43.5995 70.7811Z" fill="url(#paint23_linear_1452_391)"/>
<path d="M49.0797 65.5996L50.8797 70.1796C50.9597 70.3596 51.0397 70.4796 51.1197 70.5396C51.2197 70.5996 51.2997 70.6396 51.3797 70.6396V70.7796C51.2797 70.7796 51.1597 70.7596 51.0197 70.7596C50.8797 70.7596 50.7397 70.7596 50.5997 70.7596C50.3997 70.7596 50.2397 70.7596 50.0597 70.7596C49.8997 70.7596 49.7597 70.7596 49.6597 70.7796V70.6396C49.8997 70.6396 50.0597 70.5796 50.1397 70.5196C50.1997 70.4396 50.1997 70.2796 50.0997 70.0396L48.7397 66.4196L48.8597 66.3196L47.5797 69.5996C47.4997 69.7996 47.4597 69.9596 47.4397 70.0996C47.4197 70.2396 47.4397 70.3396 47.4797 70.4196C47.5197 70.4996 47.5997 70.5596 47.6997 70.5796C47.7997 70.6196 47.9197 70.6396 48.0797 70.6396V70.7796C47.9397 70.7796 47.7997 70.7596 47.6597 70.7596C47.5197 70.7596 47.3797 70.7596 47.2397 70.7596C47.1197 70.7596 47.0197 70.7596 46.9197 70.7596C46.8397 70.7596 46.7597 70.7596 46.6797 70.7796V70.6396C46.7797 70.6196 46.8797 70.5596 46.9797 70.4596C47.0797 70.3796 47.1797 70.2196 47.2597 69.9996L48.9797 65.5996C48.9997 65.5996 49.0197 65.5996 49.0397 65.5996C49.0397 65.5996 49.0597 65.5996 49.0797 65.5996ZM49.9797 68.6796V68.8196H47.7997L47.8797 68.6796H49.9797Z" fill="url(#paint24_linear_1452_391)"/>
<path d="M56.2572 65.6211C56.2372 65.8011 56.2172 65.9811 56.2172 66.1611C56.2172 66.3411 56.1972 66.4611 56.1972 66.5611C56.1972 66.6811 56.1972 66.7811 56.1972 66.8811C56.1972 66.9811 56.1972 67.0811 56.2172 67.1411H56.0572C56.0172 66.8011 55.9772 66.5411 55.9172 66.3411C55.8572 66.1411 55.7572 66.0011 55.6172 65.9211C55.4772 65.8411 55.2372 65.7811 54.9372 65.7811H54.5372V69.9211C54.5372 70.1211 54.5572 70.2611 54.5972 70.3611C54.6372 70.4611 54.6972 70.5211 54.8172 70.5611C54.9172 70.6011 55.0772 70.6211 55.2772 70.6211V70.7611C55.1572 70.7611 54.9972 70.7411 54.7972 70.7411C54.5972 70.7411 54.3972 70.7411 54.1972 70.7411C53.9772 70.7411 53.7772 70.7411 53.5772 70.7411C53.3772 70.7411 53.2372 70.7411 53.1172 70.7611V70.6211C53.3172 70.6211 53.4772 70.5811 53.5772 70.5611C53.6772 70.5211 53.7572 70.4611 53.7972 70.3611C53.8372 70.2611 53.8572 70.1211 53.8572 69.9211V65.8011H53.4572C53.1572 65.8011 52.9372 65.8411 52.7772 65.9411C52.6372 66.0211 52.5172 66.1611 52.4572 66.3611C52.3972 66.5611 52.3572 66.8211 52.3172 67.1611H52.1572C52.1572 67.0811 52.1772 67.0011 52.1772 66.9011C52.1772 66.8011 52.1772 66.6811 52.1772 66.5811C52.1772 66.4811 52.1772 66.3611 52.1572 66.1811C52.1572 66.0011 52.1372 65.8411 52.1172 65.6411C52.3172 65.6411 52.5372 65.6411 52.7972 65.6611C53.0372 65.6611 53.2772 65.6611 53.5372 65.6611C53.7772 65.6611 53.9972 65.6611 54.1972 65.6611C54.3972 65.6611 54.6172 65.6611 54.8572 65.6611C55.0972 65.6611 55.3372 65.6611 55.5972 65.6611C55.8372 65.6411 56.0572 65.6411 56.2572 65.6211Z" fill="url(#paint25_linear_1452_391)"/>
<path d="M60.3203 65.6211C60.4203 65.6211 60.5603 65.6211 60.7203 65.6411C60.8803 65.6411 61.0603 65.6411 61.2203 65.6411C61.4403 65.6411 61.6803 65.6411 61.8803 65.6411C62.1003 65.6411 62.2403 65.6411 62.3203 65.6411C62.8403 65.6411 63.2203 65.7411 63.4803 65.9611C63.7403 66.1811 63.8603 66.4411 63.8603 66.7811C63.8603 66.9411 63.8203 67.1211 63.7603 67.2811C63.6803 67.4411 63.5803 67.6011 63.4003 67.7211C63.2403 67.8611 63.0203 67.9611 62.7403 68.0411V68.0611C63.1203 68.1011 63.4203 68.2011 63.6403 68.3411C63.8603 68.4811 64.0203 68.6211 64.1003 68.8011C64.1803 68.9811 64.2403 69.1611 64.2403 69.3611C64.2403 69.6411 64.1803 69.8811 64.0403 70.1011C63.9003 70.3211 63.7003 70.4811 63.4403 70.6011C63.1803 70.7211 62.8603 70.7811 62.5003 70.7811C62.4003 70.7811 62.2403 70.7811 62.0203 70.7611C61.8003 70.7611 61.5403 70.7411 61.2403 70.7411C61.0603 70.7411 60.9003 70.7411 60.7403 70.7411C60.5803 70.7411 60.4403 70.7411 60.3403 70.7611V70.6211C60.5003 70.6211 60.6403 70.6011 60.7203 70.5611C60.8003 70.5411 60.8603 70.4811 60.9003 70.3811C60.9203 70.3011 60.9403 70.1611 60.9403 69.9811V66.3811C60.9403 66.2011 60.9203 66.0611 60.9003 65.9811C60.8803 65.9011 60.8203 65.8411 60.7203 65.8011C60.6403 65.7611 60.5003 65.7611 60.3403 65.7411V65.6211H60.3203ZM62.1403 65.7811C61.9203 65.7811 61.7603 65.8211 61.7003 65.9011C61.6403 65.9811 61.6003 66.1411 61.6003 66.4011V70.0011C61.6003 70.1611 61.6203 70.3011 61.6403 70.3811C61.6603 70.4611 61.7203 70.5211 61.8003 70.5611C61.8803 70.5811 62.0003 70.6011 62.1403 70.6011C62.6203 70.6011 62.9603 70.4811 63.1803 70.2611C63.4003 70.0411 63.5003 69.7211 63.5003 69.3211C63.5003 68.9411 63.4003 68.6611 63.2003 68.4611C63.0003 68.2611 62.6603 68.1611 62.2003 68.1611H61.4403V68.0411H62.0803C62.3603 68.0411 62.6003 67.9811 62.7403 67.8811C62.9003 67.7811 63.0003 67.6211 63.0603 67.4411C63.1203 67.2611 63.1403 67.0611 63.1403 66.8611C63.1403 66.5011 63.0603 66.2411 62.9003 66.0411C62.7603 65.8611 62.5003 65.7811 62.1403 65.7811Z" fill="url(#paint26_linear_1452_391)"/>
<path d="M67.6378 65.6211V65.7611C67.4778 65.7611 67.3378 65.7811 67.2578 65.8211C67.1778 65.8611 67.1178 65.9011 67.0778 66.0011C67.0578 66.0811 67.0378 66.2211 67.0378 66.4011V70.0011C67.0378 70.1811 67.0578 70.3011 67.0778 70.4011C67.0978 70.4811 67.1578 70.5411 67.2578 70.5811C67.3378 70.6011 67.4778 70.6211 67.6378 70.6211H68.1778C68.3978 70.6211 68.5978 70.6011 68.7378 70.5411C68.8778 70.5011 68.9978 70.4211 69.0778 70.3211C69.1578 70.2211 69.2378 70.0811 69.2778 69.9011C69.3178 69.7211 69.3578 69.5211 69.3778 69.2611H69.5378C69.5178 69.4211 69.5178 69.6011 69.5178 69.8611C69.5178 69.9611 69.5178 70.0811 69.5378 70.2611C69.5378 70.4411 69.5578 70.6211 69.5778 70.8011C69.3378 70.8011 69.0378 70.7811 68.7378 70.7811C68.4178 70.7811 68.1378 70.7811 67.8978 70.7811C67.7978 70.7811 67.6578 70.7811 67.4778 70.7811C67.3178 70.7811 67.1178 70.7811 66.9378 70.7811C66.7378 70.7811 66.5378 70.7811 66.3378 70.7811C66.1378 70.7811 65.9378 70.7811 65.7578 70.8011V70.6611C65.9178 70.6611 66.0578 70.6411 66.1378 70.6011C66.2178 70.5811 66.2778 70.5211 66.3178 70.4211C66.3378 70.3411 66.3578 70.2011 66.3578 70.0211V66.4211C66.3578 66.2411 66.3378 66.1011 66.3178 66.0211C66.2978 65.9411 66.2378 65.8811 66.1378 65.8411C66.0578 65.8011 65.9178 65.8011 65.7578 65.7811V65.6411C65.8578 65.6411 65.9978 65.6411 66.1578 65.6611C66.3178 65.6611 66.4978 65.6611 66.6978 65.6611C66.8778 65.6611 67.0378 65.6611 67.2178 65.6611C67.3978 65.6411 67.5378 65.6411 67.6378 65.6211Z" fill="url(#paint27_linear_1452_391)"/>
<path d="M73.4416 65.5195C73.9016 65.5195 74.3216 65.6195 74.6616 65.8395C75.0016 66.0395 75.2816 66.3395 75.4816 66.7395C75.6816 67.1395 75.7616 67.5995 75.7616 68.1595C75.7616 68.6995 75.6616 69.1795 75.4616 69.5795C75.2616 69.9795 74.9816 70.2995 74.6416 70.5395C74.2816 70.7595 73.8816 70.8795 73.4216 70.8795C72.9616 70.8795 72.5416 70.7795 72.2016 70.5595C71.8616 70.3595 71.5816 70.0595 71.3816 69.6595C71.1816 69.2595 71.1016 68.7995 71.1016 68.2395C71.1016 67.6995 71.2016 67.2195 71.4016 66.8195C71.6016 66.4195 71.8816 66.0995 72.2216 65.8595C72.5816 65.6395 73.0016 65.5195 73.4416 65.5195ZM73.4216 65.6595C73.1016 65.6595 72.8216 65.7595 72.6016 65.9795C72.3616 66.1995 72.1816 66.4995 72.0616 66.8795C71.9416 67.2595 71.8616 67.6995 71.8616 68.1995C71.8616 68.7195 71.9416 69.1595 72.0816 69.5395C72.2216 69.9195 72.4216 70.2195 72.6616 70.4195C72.9016 70.6195 73.1816 70.7195 73.4816 70.7195C73.8016 70.7195 74.0816 70.6195 74.3016 70.3995C74.5416 70.1795 74.7216 69.8795 74.8416 69.4995C74.9616 69.1195 75.0416 68.6795 75.0416 68.1795C75.0416 67.6595 74.9616 67.2195 74.8216 66.8395C74.6816 66.4595 74.4816 66.1795 74.2416 65.9595C74.0016 65.7595 73.7216 65.6595 73.4216 65.6595Z" fill="url(#paint28_linear_1452_391)"/>
<path d="M78.982 65.541C79.222 65.541 79.422 65.561 79.542 65.621C79.662 65.681 79.782 65.741 79.882 65.801C79.942 65.841 79.982 65.861 80.022 65.881C80.062 65.901 80.102 65.901 80.122 65.901C80.162 65.901 80.202 65.881 80.222 65.821C80.242 65.761 80.262 65.681 80.282 65.581H80.442C80.442 65.661 80.422 65.761 80.422 65.881C80.422 66.001 80.402 66.141 80.402 66.341C80.402 66.521 80.402 66.781 80.402 67.081H80.242C80.222 66.841 80.182 66.621 80.082 66.421C80.002 66.201 79.862 66.041 79.702 65.901C79.542 65.761 79.302 65.701 79.042 65.701C78.782 65.701 78.562 65.781 78.402 65.941C78.242 66.101 78.142 66.301 78.142 66.561C78.142 66.781 78.202 66.961 78.302 67.101C78.422 67.241 78.562 67.381 78.762 67.501C78.942 67.621 79.162 67.741 79.382 67.881C79.642 68.041 79.862 68.181 80.062 68.341C80.262 68.501 80.422 68.661 80.522 68.841C80.642 69.021 80.702 69.241 80.702 69.501C80.702 69.821 80.622 70.061 80.482 70.281C80.342 70.481 80.142 70.641 79.922 70.741C79.702 70.841 79.422 70.901 79.142 70.901C78.882 70.901 78.682 70.881 78.522 70.821C78.362 70.761 78.242 70.701 78.142 70.641C78.042 70.581 77.942 70.541 77.902 70.541C77.862 70.541 77.822 70.561 77.802 70.621C77.782 70.681 77.762 70.761 77.742 70.861H77.582C77.582 70.761 77.602 70.641 77.602 70.501C77.602 70.361 77.602 70.181 77.602 69.961C77.602 69.741 77.602 69.461 77.602 69.121H77.762C77.782 69.421 77.842 69.681 77.922 69.941C78.022 70.201 78.142 70.401 78.342 70.541C78.522 70.701 78.782 70.761 79.102 70.761C79.262 70.761 79.422 70.721 79.562 70.661C79.702 70.601 79.822 70.501 79.922 70.341C80.022 70.201 80.062 70.021 80.062 69.781C80.062 69.581 80.022 69.401 79.922 69.261C79.822 69.121 79.702 68.981 79.522 68.841C79.342 68.721 79.142 68.581 78.922 68.441C78.682 68.301 78.482 68.161 78.282 68.021C78.082 67.881 77.922 67.701 77.802 67.521C77.682 67.321 77.622 67.101 77.622 66.821C77.622 66.541 77.682 66.301 77.822 66.121C77.942 65.941 78.122 65.801 78.342 65.701C78.522 65.601 78.742 65.541 78.982 65.541Z" fill="url(#paint29_linear_1452_391)"/>
<path d="M83.8805 65.541C84.1205 65.541 84.3205 65.561 84.4405 65.621C84.5605 65.681 84.6805 65.741 84.7805 65.801C84.8405 65.841 84.8805 65.861 84.9205 65.881C84.9605 65.901 85.0005 65.901 85.0205 65.901C85.0605 65.901 85.1005 65.881 85.1205 65.821C85.1405 65.761 85.1605 65.681 85.1805 65.581H85.3405C85.3405 65.661 85.3205 65.761 85.3205 65.881C85.3205 66.001 85.3005 66.141 85.3005 66.341C85.3005 66.521 85.3005 66.781 85.3005 67.081H85.1405C85.1205 66.841 85.0805 66.621 84.9805 66.421C84.9005 66.201 84.7605 66.041 84.6005 65.901C84.4405 65.761 84.2005 65.701 83.9405 65.701C83.6805 65.701 83.4605 65.781 83.3005 65.941C83.1405 66.101 83.0405 66.301 83.0405 66.561C83.0405 66.781 83.1005 66.961 83.2005 67.101C83.3205 67.241 83.4605 67.381 83.6605 67.501C83.8405 67.621 84.0605 67.741 84.2805 67.881C84.5405 68.041 84.7605 68.181 84.9605 68.341C85.1605 68.501 85.3205 68.661 85.4205 68.841C85.5405 69.021 85.6005 69.241 85.6005 69.501C85.6005 69.821 85.5205 70.061 85.3805 70.281C85.2405 70.481 85.0405 70.641 84.8205 70.741C84.6005 70.841 84.3205 70.901 84.0405 70.901C83.7805 70.901 83.5805 70.881 83.4205 70.821C83.2605 70.761 83.1405 70.701 83.0405 70.641C82.9405 70.581 82.8405 70.541 82.8005 70.541C82.7605 70.541 82.7205 70.561 82.7005 70.621C82.6805 70.681 82.6605 70.761 82.6405 70.861H82.4805C82.4805 70.761 82.5005 70.641 82.5005 70.501C82.5005 70.361 82.5005 70.181 82.5005 69.961C82.5005 69.741 82.5005 69.461 82.5005 69.121H82.6605C82.6805 69.421 82.7405 69.681 82.8205 69.941C82.9205 70.201 83.0405 70.401 83.2405 70.541C83.4205 70.701 83.6805 70.761 84.0005 70.761C84.1605 70.761 84.3205 70.721 84.4605 70.661C84.6005 70.601 84.7205 70.501 84.8205 70.341C84.9205 70.201 84.9605 70.021 84.9605 69.781C84.9605 69.581 84.9205 69.401 84.8205 69.261C84.7205 69.121 84.6005 68.981 84.4205 68.841C84.2405 68.721 84.0405 68.581 83.8205 68.441C83.5805 68.301 83.3805 68.161 83.1805 68.021C82.9805 67.881 82.8205 67.701 82.7005 67.521C82.5805 67.321 82.5205 67.101 82.5205 66.821C82.5205 66.541 82.5805 66.301 82.7205 66.121C82.8405 65.941 83.0205 65.801 83.2405 65.701C83.4205 65.601 83.6405 65.541 83.8805 65.541Z" fill="url(#paint30_linear_1452_391)"/>
<path d="M89.6408 65.5195C90.1008 65.5195 90.5208 65.6195 90.8608 65.8395C91.2008 66.0395 91.4808 66.3395 91.6808 66.7395C91.8808 67.1395 91.9608 67.5995 91.9608 68.1595C91.9608 68.6995 91.8608 69.1795 91.6608 69.5795C91.4608 69.9795 91.1808 70.2995 90.8408 70.5395C90.4808 70.7595 90.0808 70.8795 89.6208 70.8795C89.1608 70.8795 88.7408 70.7795 88.4008 70.5595C88.0608 70.3595 87.7808 70.0595 87.5808 69.6595C87.3808 69.2595 87.3008 68.7995 87.3008 68.2395C87.3008 67.6995 87.4008 67.2195 87.6008 66.8195C87.8008 66.4195 88.0808 66.0995 88.4208 65.8595C88.7808 65.6395 89.1808 65.5195 89.6408 65.5195ZM89.6008 65.6595C89.2808 65.6595 89.0008 65.7595 88.7808 65.9795C88.5408 66.1995 88.3608 66.4995 88.2408 66.8795C88.1208 67.2595 88.0408 67.6995 88.0408 68.1995C88.0408 68.7195 88.1208 69.1595 88.2608 69.5395C88.4008 69.9195 88.6008 70.2195 88.8408 70.4195C89.0808 70.6195 89.3608 70.7195 89.6608 70.7195C89.9808 70.7195 90.2608 70.6195 90.4808 70.3995C90.7208 70.1795 90.9008 69.8795 91.0208 69.4995C91.1408 69.1195 91.2208 68.6795 91.2208 68.1795C91.2208 67.6595 91.1408 67.2195 91.0008 66.8395C90.8608 66.4595 90.6608 66.1795 90.4208 65.9595C90.1808 65.7595 89.9008 65.6595 89.6008 65.6595Z" fill="url(#paint31_linear_1452_391)"/>
<path d="M99.3195 65.6211V65.7611C99.1595 65.7611 99.0195 65.7811 98.9395 65.8211C98.8595 65.8611 98.7995 65.9011 98.7595 66.0011C98.7395 66.0811 98.7195 66.2211 98.7195 66.4011V70.0011C98.7195 70.1811 98.7395 70.3011 98.7595 70.4011C98.7795 70.4811 98.8395 70.5411 98.9395 70.5811C99.0195 70.6011 99.1595 70.6211 99.3195 70.6411V70.7811C99.1995 70.7811 99.0595 70.7611 98.8995 70.7611C98.7395 70.7611 98.5595 70.7611 98.3795 70.7611C98.1795 70.7611 98.0195 70.7611 97.8395 70.7611C97.6795 70.7611 97.5395 70.7611 97.4395 70.7811V70.6411C97.5995 70.6411 97.7395 70.6211 97.8195 70.5811C97.8995 70.5611 97.9595 70.5011 97.9995 70.4011C98.0195 70.3211 98.0395 70.1811 98.0395 70.0011V66.0011L98.0595 66.0211L96.2595 70.8011H96.1395L94.2995 66.0811V69.9211C94.2995 70.1011 94.3195 70.2411 94.3395 70.3411C94.3795 70.4411 94.4395 70.5011 94.5395 70.5611C94.6395 70.6011 94.7795 70.6211 94.9595 70.6411V70.7811C94.8795 70.7811 94.7595 70.7611 94.6195 70.7611C94.4795 70.7611 94.3395 70.7611 94.2195 70.7611C94.0995 70.7611 93.9795 70.7611 93.8395 70.7611C93.7195 70.7611 93.6195 70.7611 93.5195 70.7811V70.6411C93.6795 70.6411 93.8195 70.6011 93.8995 70.5611C93.9795 70.5211 94.0395 70.4411 94.0795 70.3411C94.0995 70.2411 94.1195 70.1011 94.1195 69.9211V66.4011C94.1195 66.2211 94.0995 66.0811 94.0795 66.0011C94.0595 65.9211 93.9995 65.8611 93.8995 65.8211C93.8195 65.7811 93.6795 65.7811 93.5195 65.7611V65.6211C93.5995 65.6211 93.6995 65.6211 93.8395 65.6411C93.9595 65.6411 94.0795 65.6411 94.2195 65.6411C94.3195 65.6411 94.4395 65.6411 94.5595 65.6411C94.6795 65.6411 94.7795 65.6411 94.8395 65.6211L96.4995 69.9611L96.3795 70.0211L98.0395 65.6411C98.0995 65.6411 98.1595 65.6411 98.2195 65.6411C98.2795 65.6411 98.3395 65.6411 98.3995 65.6411C98.5795 65.6411 98.7395 65.6411 98.9195 65.6411C99.0595 65.6411 99.1995 65.6411 99.3195 65.6211Z" fill="url(#paint32_linear_1452_391)"/>
<defs>
<linearGradient id="paint0_linear_1452_391" x1="2.98966" y1="40.8223" x2="18.11" y2="43.4219" gradientUnits="userSpaceOnUse">
<stop stop-color="#F8EEA4"/>
<stop offset="1" stop-color="#C7A008"/>
</linearGradient>
<linearGradient id="paint1_linear_1452_391" x1="4.71007" y1="29.6523" x2="19.8042" y2="31.9047" gradientUnits="userSpaceOnUse">
<stop stop-color="#F8EEA4"/>
<stop offset="1" stop-color="#C7A008"/>
</linearGradient>
<linearGradient id="paint2_linear_1452_391" x1="15.5206" y1="27.5645" x2="28.4794" y2="29.2061" gradientUnits="userSpaceOnUse">
<stop stop-color="#F8EEA4"/>
<stop offset="1" stop-color="#C7A008"/>
</linearGradient>
<linearGradient id="paint3_linear_1452_391" x1="20.5209" y1="34.1152" x2="35.6413" y2="36.7149" gradientUnits="userSpaceOnUse">
<stop stop-color="#F8EEA4"/>
<stop offset="1" stop-color="#C7A008"/>
</linearGradient>
<linearGradient id="paint4_linear_1452_391" x1="18.9093" y1="43.2793" x2="34.0035" y2="45.5316" gradientUnits="userSpaceOnUse">
<stop stop-color="#F8EEA4"/>
<stop offset="1" stop-color="#C7A008"/>
</linearGradient>
<linearGradient id="paint5_linear_1452_391" x1="9.87214" y1="45.2871" x2="22.831" y2="46.9288" gradientUnits="userSpaceOnUse">
<stop stop-color="#F8EEA4"/>
<stop offset="1" stop-color="#C7A008"/>
</linearGradient>
<linearGradient id="paint6_linear_1452_391" x1="37.5621" y1="28.0996" x2="50.2379" y2="29.7305" gradientUnits="userSpaceOnUse">
<stop stop-color="#F8EEA4"/>
<stop offset="1" stop-color="#C7A008"/>
</linearGradient>
<linearGradient id="paint7_linear_1452_391" x1="52.5073" y1="27.7598" x2="66.2836" y2="29.6082" gradientUnits="userSpaceOnUse">
<stop stop-color="#F8EEA4"/>
<stop offset="1" stop-color="#C7A008"/>
</linearGradient>
<linearGradient id="paint8_linear_1452_391" x1="68.2075" y1="28.0996" x2="85.4978" y2="31.1792" gradientUnits="userSpaceOnUse">
<stop stop-color="#F8EEA4"/>
<stop offset="1" stop-color="#C7A008"/>
</linearGradient>
<linearGradient id="paint9_linear_1452_391" x1="86.3299" y1="28.1406" x2="97.8222" y2="29.4581" gradientUnits="userSpaceOnUse">
<stop stop-color="#F8EEA4"/>
<stop offset="1" stop-color="#C7A008"/>
</linearGradient>
<linearGradient id="paint10_linear_1452_391" x1="38.865" y1="46.6211" x2="49.8596" y2="48.3087" gradientUnits="userSpaceOnUse">
<stop stop-color="#F8EEA4"/>
<stop offset="1" stop-color="#C7A008"/>
</linearGradient>
<linearGradient id="paint11_linear_1452_391" x1="50.7487" y1="46.6602" x2="60.0269" y2="47.8537" gradientUnits="userSpaceOnUse">
<stop stop-color="#F8EEA4"/>
<stop offset="1" stop-color="#C7A008"/>
</linearGradient>
<linearGradient id="paint12_linear_1452_391" x1="60.8397" y1="46.6406" x2="70.5028" y2="47.9117" gradientUnits="userSpaceOnUse">
<stop stop-color="#F8EEA4"/>
<stop offset="1" stop-color="#C7A008"/>
</linearGradient>
<linearGradient id="paint13_linear_1452_391" x1="72.5398" y1="46.6406" x2="81.8903" y2="47.8532" gradientUnits="userSpaceOnUse">
<stop stop-color="#F8EEA4"/>
<stop offset="1" stop-color="#C7A008"/>
</linearGradient>
<linearGradient id="paint14_linear_1452_391" x1="81.4328" y1="46.6211" x2="89.8294" y2="47.5818" gradientUnits="userSpaceOnUse">
<stop stop-color="#F8EEA4"/>
<stop offset="1" stop-color="#C7A008"/>
</linearGradient>
<linearGradient id="paint15_linear_1452_391" x1="90.5104" y1="46.6602" x2="99.7886" y2="47.8537" gradientUnits="userSpaceOnUse">
<stop stop-color="#F8EEA4"/>
<stop offset="1" stop-color="#C7A008"/>
</linearGradient>
<linearGradient id="paint16_linear_1452_391" x1="1.74765" y1="65.541" x2="4.70494" y2="65.7971" gradientUnits="userSpaceOnUse">
<stop stop-color="#F8EEA4"/>
<stop offset="1" stop-color="#C7A008"/>
</linearGradient>
<linearGradient id="paint17_linear_1452_391" x1="6.79924" y1="65.6211" x2="12.156" y2="66.5076" gradientUnits="userSpaceOnUse">
<stop stop-color="#F8EEA4"/>
<stop offset="1" stop-color="#C7A008"/>
</linearGradient>
<linearGradient id="paint18_linear_1452_391" x1="13.67" y1="65.6211" x2="15.4487" y2="65.7169" gradientUnits="userSpaceOnUse">
<stop stop-color="#F8EEA4"/>
<stop offset="1" stop-color="#C7A008"/>
</linearGradient>
<linearGradient id="paint19_linear_1452_391" x1="17.3317" y1="65.6211" x2="20.9139" y2="66.0115" gradientUnits="userSpaceOnUse">
<stop stop-color="#F8EEA4"/>
<stop offset="1" stop-color="#C7A008"/>
</linearGradient>
<linearGradient id="paint20_linear_1452_391" x1="22.6091" y1="65.6211" x2="26.1912" y2="66.0115" gradientUnits="userSpaceOnUse">
<stop stop-color="#F8EEA4"/>
<stop offset="1" stop-color="#C7A008"/>
</linearGradient>
<linearGradient id="paint21_linear_1452_391" x1="28.085" y1="65.541" x2="31.0238" y2="65.7938" gradientUnits="userSpaceOnUse">
<stop stop-color="#F8EEA4"/>
<stop offset="1" stop-color="#C7A008"/>
</linearGradient>
<linearGradient id="paint22_linear_1452_391" x1="35.4299" y1="65.6211" x2="39.3033" y2="66.0822" gradientUnits="userSpaceOnUse">
<stop stop-color="#F8EEA4"/>
<stop offset="1" stop-color="#C7A008"/>
</linearGradient>
<linearGradient id="paint23_linear_1452_391" x1="41.1304" y1="65.6211" x2="45.7258" y2="66.2713" gradientUnits="userSpaceOnUse">
<stop stop-color="#F8EEA4"/>
<stop offset="1" stop-color="#C7A008"/>
</linearGradient>
<linearGradient id="paint24_linear_1452_391" x1="47.2609" y1="65.5996" x2="51.6418" y2="66.1871" gradientUnits="userSpaceOnUse">
<stop stop-color="#F8EEA4"/>
<stop offset="1" stop-color="#C7A008"/>
</linearGradient>
<linearGradient id="paint25_linear_1452_391" x1="52.6291" y1="65.6211" x2="56.5026" y2="66.0822" gradientUnits="userSpaceOnUse">
<stop stop-color="#F8EEA4"/>
<stop offset="1" stop-color="#C7A008"/>
</linearGradient>
<linearGradient id="paint26_linear_1452_391" x1="60.805" y1="65.6211" x2="64.4783" y2="66.0335" gradientUnits="userSpaceOnUse">
<stop stop-color="#F8EEA4"/>
<stop offset="1" stop-color="#C7A008"/>
</linearGradient>
<linearGradient id="paint27_linear_1452_391" x1="66.2302" y1="65.6211" x2="69.8123" y2="66.0115" gradientUnits="userSpaceOnUse">
<stop stop-color="#F8EEA4"/>
<stop offset="1" stop-color="#C7A008"/>
</linearGradient>
<linearGradient id="paint28_linear_1452_391" x1="71.6778" y1="65.5195" x2="76.0277" y2="66.0785" gradientUnits="userSpaceOnUse">
<stop stop-color="#F8EEA4"/>
<stop offset="1" stop-color="#C7A008"/>
</linearGradient>
<linearGradient id="paint29_linear_1452_391" x1="77.9678" y1="65.541" x2="80.9066" y2="65.7938" gradientUnits="userSpaceOnUse">
<stop stop-color="#F8EEA4"/>
<stop offset="1" stop-color="#C7A008"/>
</linearGradient>
<linearGradient id="paint30_linear_1452_391" x1="82.8663" y1="65.541" x2="85.805" y2="65.7938" gradientUnits="userSpaceOnUse">
<stop stop-color="#F8EEA4"/>
<stop offset="1" stop-color="#C7A008"/>
</linearGradient>
<linearGradient id="paint31_linear_1452_391" x1="87.877" y1="65.5195" x2="92.2269" y2="66.0785" gradientUnits="userSpaceOnUse">
<stop stop-color="#F8EEA4"/>
<stop offset="1" stop-color="#C7A008"/>
</linearGradient>
<linearGradient id="paint32_linear_1452_391" x1="94.2367" y1="65.6211" x2="99.5935" y2="66.5076" gradientUnits="userSpaceOnUse">
<stop stop-color="#F8EEA4"/>
<stop offset="1" stop-color="#C7A008"/>
</linearGradient>
</defs>
</svg>
