<svg width="100" height="100" viewBox="0 0 100 100" fill="none" xmlns="http://www.w3.org/2000/svg">
<mask id="mask0_1452_1598" style="mask-type:luminance" maskUnits="userSpaceOnUse" x="0" y="33" width="99" height="33">
<path d="M98.6422 33.2598H0.742188V65.1998H98.6422V33.2598Z" fill="white"/>
</mask>
<g mask="url(#mask0_1452_1598)">
<path d="M24.0606 51.8586L23.9806 51.8186C22.7206 51.1186 21.3606 51.1186 19.9606 51.1586C19.2606 51.1786 18.5606 51.1786 17.8606 51.1786C16.9206 51.1786 15.9806 51.1786 15.0406 51.1586V51.8786C16.4206 51.8986 17.7806 51.8986 19.1606 51.8786C20.0206 51.8586 20.9006 51.7986 21.7606 51.8986C22.1406 51.9386 22.5606 52.0186 22.9406 52.1786C23.2406 52.2986 23.5406 52.4386 23.7606 52.5786C23.8206 52.4386 23.8606 52.3586 23.9206 52.2186C24.0006 52.0786 24.0406 51.9786 24.0606 51.8586ZM18.8006 53.9386V53.6186C18.8006 53.2786 18.7806 52.9186 18.8006 52.5786H18.1006C18.1006 52.8186 18.1006 53.0786 18.1006 53.3186C18.1006 53.6186 18.1006 53.9386 18.1206 54.2386C18.3406 54.1586 18.5806 54.0586 18.8006 53.9386ZM18.2406 55.7186C19.3006 55.4186 20.3006 54.8386 21.1406 53.9986C21.3406 53.7986 21.5206 53.5986 21.7006 53.3786C21.8606 53.1586 22.0206 52.9586 22.1606 52.7186C22.0406 52.6986 21.9206 52.6786 21.7806 52.6586C21.6406 52.6386 21.5206 52.6386 21.3806 52.6186C20.6806 53.6586 19.7006 54.4186 18.5806 54.8586C17.4806 55.2986 16.2406 55.4186 15.0206 55.1386C15.0006 55.2586 14.9806 55.3786 14.9606 55.4786C14.9406 55.5986 14.9206 55.7186 14.8806 55.8186C15.9806 56.0586 17.1406 56.0386 18.2406 55.7186ZM19.7806 58.1786C19.8606 58.1386 19.9406 58.1186 20.0406 58.0786C20.2606 57.9986 20.4606 57.8986 20.6606 57.7986C20.0406 57.4786 19.5206 56.9586 19.1806 56.1586C18.9406 56.2586 18.7006 56.3386 18.4606 56.3986C18.6206 56.8586 18.8606 57.2786 19.1806 57.6386C19.3606 57.8586 19.5606 58.0386 19.7806 58.1786ZM25.9006 59.0186C25.9206 58.7186 25.9206 58.4186 25.9406 58.1186C26.0206 56.7386 26.0806 55.0186 25.6006 53.7586C25.4406 54.0786 25.2606 54.4186 25.0406 54.7386C25.1206 55.0586 25.1606 55.3786 25.2006 55.7186C25.2206 55.8586 25.2206 55.9786 25.2206 56.1186V56.1786V56.2186V56.2386V56.2586C25.2406 56.9786 25.2206 57.7386 25.2006 58.2786C25.1006 58.2786 23.9406 58.2986 23.9406 58.2986C23.8606 58.2986 23.7806 58.2986 23.6806 58.2986C23.3406 58.5786 23.0006 58.8186 22.6406 59.0586C23.3606 59.0986 24.0806 59.0586 24.7406 59.0386L25.1006 59.0186C25.3806 59.0386 25.6406 59.0186 25.9006 59.0186ZM10.7206 57.8986C10.4006 57.9786 10.0806 58.0186 9.74063 58.0586C9.60063 58.0786 9.48063 58.0786 9.34062 58.0986H9.28063H9.24063H9.22062H9.20063C8.48063 58.1186 7.72063 58.0986 7.18063 58.0786C7.18063 57.9786 7.16062 56.8186 7.16062 56.8186C7.16062 56.7386 7.16062 56.6586 7.16062 56.5786C6.88063 56.2386 6.64063 55.8986 6.40063 55.5386C6.36063 56.2586 6.40063 56.9586 6.42063 57.6386L6.44063 57.9986C6.46063 58.2586 6.46063 58.5186 6.48063 58.7786C6.78063 58.7986 7.08063 58.7986 7.38063 58.8186C8.76063 58.8986 10.4806 58.9586 11.7406 58.4786C11.3606 58.2986 11.0406 58.1186 10.7206 57.8986ZM22.2606 59.6386C18.4406 61.7986 13.6806 61.7186 9.94063 59.3786C9.52063 59.4186 9.08063 59.4386 8.64062 59.4386C13.0606 62.7386 19.1406 62.8386 23.6406 59.6986C23.3606 59.6986 23.0806 59.6986 22.8006 59.6786L22.2606 59.6386ZM12.9406 56.6186C13.0806 56.6786 13.1606 56.7186 13.3006 56.7786C13.4206 56.8186 13.5206 56.8586 13.6406 56.8986L13.6806 56.8186C14.3806 55.5586 14.3806 54.1986 14.3406 52.7986C14.3206 52.0986 14.3206 51.3986 14.3206 50.6986C14.3206 49.7586 14.3206 48.8186 14.3206 47.8786H13.6006C13.5806 49.2586 13.5806 50.6186 13.6006 51.9986C13.6206 52.8586 13.6806 53.7386 13.5806 54.5986C13.5406 54.9786 13.4606 55.3986 13.3006 55.7786C13.2406 56.0986 13.1006 56.3786 12.9406 56.6186ZM6.22063 59.3386C0.640625 53.7586 0.640625 44.6986 6.22063 39.1186C11.8006 33.5386 20.8606 33.5386 26.4406 39.1186C32.0206 44.6986 32.0206 53.7586 26.4406 59.3386C20.8606 64.9186 11.7806 64.9186 6.22063 59.3386ZM27.0606 38.4986C21.1406 32.5786 11.5006 32.5786 5.58063 38.4986C-0.339375 44.4186 -0.339375 54.0586 5.58063 59.9786C11.5006 65.8986 21.1206 65.8986 27.0606 59.9786C32.9806 54.0386 32.9806 44.4186 27.0606 38.4986ZM21.8806 40.4186C22.2006 40.3386 22.5206 40.2986 22.8606 40.2586C23.0006 40.2386 23.1206 40.2386 23.2606 40.2386H23.3206H23.3606H23.3806H23.4006C24.1206 40.2186 24.8806 40.2386 25.4206 40.2586C25.4206 40.3586 25.4406 41.5186 25.4406 41.5186C25.4406 41.5986 25.4406 41.6786 25.4406 41.7786C25.7206 42.1186 25.9606 42.4586 26.2006 42.8186C26.2406 42.0986 26.2006 41.3786 26.1806 40.7186L26.1606 40.3586C26.1406 40.0986 26.1406 39.8386 26.1406 39.5786C25.8406 39.5586 25.5406 39.5586 25.2406 39.5386C23.8606 39.4586 22.1406 39.3986 20.8806 39.8786C21.2406 40.0386 21.5606 40.2186 21.8806 40.4186ZM24.5806 54.0586L24.6406 53.9586C25.9806 51.5986 26.1406 49.3586 25.6206 46.7386L25.5806 46.5386C25.4206 46.7386 25.2406 46.9186 25.0206 47.0786L24.9806 47.0986C25.3806 49.5386 25.3206 51.3586 24.0606 53.5786C23.9606 53.7386 23.8606 53.8986 23.7606 54.0586C23.0006 55.2186 22.0206 56.1186 20.8606 56.8786L20.7606 56.9386C20.9806 57.0986 21.2206 57.2386 21.4606 57.3386C21.9006 56.9986 22.3406 56.6586 22.7606 56.2786C23.4806 55.6386 24.1006 54.8786 24.5806 54.0586ZM5.82063 55.0586C3.68063 51.2586 3.76063 46.5386 6.08063 42.7986C6.04063 42.3786 6.02063 41.9386 6.02063 41.4986C2.74063 45.8986 2.64062 51.9586 5.76063 56.4586C5.76063 56.1986 5.76063 55.9386 5.78063 55.6586L5.82063 55.0586ZM7.00063 44.5586C7.16063 44.2186 7.34062 43.8986 7.56062 43.5786C7.48062 43.2586 7.44063 42.9386 7.40063 42.5986C7.38063 42.4786 7.38063 42.3386 7.38063 42.1986V42.1386V42.0986V42.0786C7.36063 41.3586 7.38063 40.5986 7.40063 40.0586C7.50063 40.0586 8.66063 40.0386 8.68063 40.0386C8.76063 40.0386 8.84062 40.0386 8.92062 40.0386C9.26062 39.7586 9.60063 39.5186 9.96062 39.2786C9.24062 39.2386 8.54062 39.2786 7.86062 39.2986L7.50063 39.3186C7.24063 39.3386 6.98063 39.3386 6.72062 39.3586C6.70062 39.6586 6.70063 39.9586 6.68063 40.2586C6.58063 41.5786 6.52063 43.2986 7.00063 44.5586ZM10.3806 38.6786C14.2006 36.5186 18.9606 36.5986 22.7006 38.9386C23.1206 38.8986 23.5606 38.8986 24.0006 38.8986C19.5806 35.5786 13.5006 35.4986 8.98063 38.6386C9.24063 38.6386 9.52063 38.6386 9.78063 38.6586L10.3806 38.6786ZM14.4206 42.6586C13.3606 42.9586 12.3606 43.5386 11.5206 44.3786C11.3206 44.5786 11.1406 44.7786 10.9806 44.9986C10.8206 45.2186 10.6606 45.4186 10.5206 45.6586C10.8006 45.6986 11.0606 45.7186 11.3406 45.6986C12.0406 44.6986 13.0006 43.9586 14.1006 43.5186C15.2006 43.0786 16.4406 42.9786 17.6606 43.2386C17.6806 43.1186 17.7006 42.9986 17.7206 42.8986C17.7406 42.7786 17.7606 42.6786 17.8006 42.5586C16.6606 42.2986 15.5206 42.3386 14.4206 42.6586ZM20.5006 43.8186C20.3006 43.6586 20.0606 43.4986 19.8406 43.3586C19.8206 43.4786 19.8006 43.5986 19.7806 43.7386C19.7606 43.8786 19.7606 43.9986 19.7406 44.1386C20.7806 44.8386 21.5406 45.8186 21.9806 46.9386C22.4206 48.0386 22.5406 49.2786 22.2606 50.4986C22.3806 50.5186 22.5006 50.5386 22.6006 50.5586C22.7206 50.5786 22.8406 50.5986 22.9406 50.6386C23.1806 49.5386 23.1406 48.3786 22.8206 47.2786C22.5006 46.2186 21.9406 45.2186 21.1006 44.3786C20.9406 44.1786 20.7206 43.9986 20.5006 43.8186ZM23.5606 47.0386C24.0206 46.8786 24.4406 46.6386 24.8006 46.3186C25.0006 46.1386 25.1806 45.9386 25.3406 45.7386C25.3006 45.6586 25.2806 45.5786 25.2406 45.4786C25.1606 45.2586 25.0606 45.0586 24.9606 44.8586C24.6406 45.4786 24.1206 45.9986 23.3206 46.3386C23.4006 46.5586 23.4806 46.7986 23.5606 47.0386ZM7.66062 51.2786C7.28062 48.8386 7.32063 47.0186 8.58063 44.7986C8.68063 44.6386 8.78063 44.4586 8.88063 44.3186C9.64062 43.1586 10.6206 42.2586 11.7806 41.4986L11.8806 41.4386C11.6606 41.2786 11.4206 41.1586 11.1806 41.0386C10.7406 41.3786 10.2806 41.7186 9.88063 42.0986C9.18062 42.7386 8.56063 43.4986 8.08063 44.3186L8.02062 44.4186C6.68062 46.7586 6.52063 49.0186 7.04063 51.6186L7.08063 51.8186C7.24063 51.6186 7.42063 51.4386 7.64062 51.2786H7.66062ZM12.1406 54.5386C12.3606 54.6986 12.5806 54.8586 12.8006 54.9986C12.8206 54.8786 12.8406 54.7586 12.8606 54.6186C12.8806 54.4786 12.8806 54.3586 12.9006 54.2186C11.8606 53.5186 11.1006 52.5386 10.6606 51.4186C10.2206 50.3186 10.1006 49.0786 10.3806 47.8586C10.2606 47.8386 10.1406 47.8186 10.0406 47.7986C9.92062 47.7786 9.80062 47.7586 9.70063 47.7186C9.46062 48.8186 9.50062 49.9786 9.82062 51.0786C10.1406 52.1386 10.7006 53.1386 11.5406 53.9786C11.7206 54.1986 11.9206 54.3786 12.1406 54.5386ZM26.7806 43.1786C28.9606 47.0186 28.8806 51.7986 26.5206 55.5586C26.5606 55.9786 26.5606 56.4186 26.5606 56.8586C29.9006 52.4186 29.9806 46.3186 26.8206 41.7986C26.8206 42.0786 26.8206 42.3786 26.8006 42.6586L26.7806 43.1786ZM11.5606 57.5186C13.9206 58.8586 16.1606 59.0186 18.7806 58.4986L18.9606 58.4586C18.7806 58.2986 18.6006 58.1186 18.4206 57.8986L18.4006 57.8586C15.9606 58.2386 14.1406 58.1986 11.9406 56.9386C11.7806 56.8386 11.6206 56.7386 11.4606 56.6386C10.3006 55.8786 9.40063 54.8986 8.64062 53.7386L8.58063 53.6586C8.42063 53.8786 8.30062 54.1186 8.20062 54.3586C8.54063 54.7986 8.88063 55.2386 9.24063 55.6586C9.88062 56.3586 10.6406 56.9786 11.4606 57.4586L11.5606 57.5186ZM21.0806 40.8786C18.7406 39.5386 16.2006 39.3186 13.8806 39.8986L13.7006 39.9386C13.8806 40.0986 14.0606 40.2786 14.2206 40.4786L14.2606 40.5186C16.5006 40.0786 18.5206 40.1786 20.7206 41.4386C20.8806 41.5386 21.0606 41.6386 21.2006 41.7386C22.3606 42.4986 23.2606 43.4786 24.0206 44.6386L24.0606 44.7186C24.2206 44.4986 24.3406 44.2586 24.4406 44.0186C24.1006 43.5786 23.7806 43.1386 23.4006 42.7386C22.7606 42.0386 22.0006 41.4186 21.1806 40.9386L21.0806 40.8786ZM9.10063 51.3186C8.64062 51.4786 8.22062 51.7186 7.86062 52.0386C7.66062 52.2186 7.48063 52.4186 7.32062 52.6186C7.36062 52.6986 7.38063 52.7786 7.42063 52.8786C7.50063 53.0786 7.60063 53.2986 7.70062 53.4986C8.02063 52.8786 8.54063 52.3586 9.34062 52.0186C9.26062 51.7986 9.18062 51.5586 9.10063 51.3186ZM12.8806 40.1786C12.8006 40.2186 12.7206 40.2386 12.6206 40.2786C12.4006 40.3586 12.2006 40.4586 12.0006 40.5586C12.6206 40.8786 13.1406 41.3986 13.4606 42.1986C13.7006 42.0986 13.9206 42.0186 14.1606 41.9586C14.0006 41.4986 13.7606 41.0786 13.4406 40.7186C13.2806 40.5186 13.1006 40.3386 12.8806 40.1786ZM12.9406 51.6586V50.9586C12.7006 50.9586 12.4406 50.9586 12.2006 50.9586C11.9006 50.9586 11.6006 50.9586 11.2806 50.9786C11.3606 51.2186 11.4606 51.4386 11.5806 51.6786C11.6806 51.6786 11.8006 51.6786 11.9006 51.6786C12.2406 51.6586 12.6006 51.6586 12.9406 51.6586ZM19.0406 43.7186C19.0806 43.3386 19.1606 42.9186 19.3206 42.5386C19.4406 42.2386 19.5806 41.9386 19.7206 41.6986C19.5806 41.6386 19.5006 41.5986 19.3606 41.5386C19.2406 41.4986 19.1406 41.4586 19.0206 41.4186L18.9806 41.4986C18.2806 42.7586 18.2806 44.1186 18.3206 45.5186C18.3406 46.2186 18.3406 46.9186 18.3406 47.6186C18.3406 48.5586 18.3406 49.4986 18.3406 50.4186H19.0606C19.0806 49.0386 19.0806 47.6786 19.0606 46.2986C19.0206 45.4586 18.9406 44.5786 19.0406 43.7186ZM21.3806 47.4186C21.3006 47.1786 21.2006 46.9586 21.0806 46.7186C20.9806 46.7186 20.8606 46.7186 20.7606 46.7186C20.4206 46.7186 20.0606 46.7386 19.7206 46.7186V47.4186C19.9606 47.4186 20.2206 47.4186 20.4606 47.4186C20.7606 47.4386 21.0606 47.4386 21.3806 47.4186ZM8.60063 46.4786L8.68063 46.5186C9.94063 47.2186 11.3006 47.2186 12.7006 47.1786C13.4006 47.1586 14.1006 47.1586 14.8006 47.1586C15.7406 47.1586 16.6806 47.1586 17.6206 47.1786V46.4586C16.2406 46.4386 14.8606 46.4386 13.5006 46.4586C12.6406 46.4786 11.7606 46.5386 10.9006 46.4386C10.5206 46.3986 10.1006 46.3186 9.72062 46.1586C9.42062 46.0386 9.12063 45.8986 8.90062 45.7586C8.84062 45.8986 8.80063 45.9786 8.74062 46.1186C8.68062 46.2386 8.64062 46.3586 8.60063 46.4786ZM14.5806 45.8186C14.5806 45.5786 14.5806 45.3186 14.5806 45.0786C14.5806 44.7786 14.5806 44.4586 14.5606 44.1586C14.3206 44.2386 14.0806 44.3386 13.8606 44.4586C13.8606 44.5586 13.8606 44.6786 13.8606 44.7786C13.8606 45.1186 13.8806 45.4786 13.8606 45.8186H14.5806Z" fill="url(#paint0_linear_1452_1598)"/>
</g>
<mask id="mask1_1452_1598" style="mask-type:luminance" maskUnits="userSpaceOnUse" x="0" y="33" width="99" height="33">
<path d="M98.6422 33.2598H0.742188V65.1998H98.6422V33.2598Z" fill="white"/>
</mask>
<g mask="url(#mask1_1452_1598)">
<path d="M37.5172 37.1797V47.9797H43.2172V48.7397H36.6172V37.1797H37.5172Z" fill="url(#paint1_linear_1452_1598)"/>
</g>
<mask id="mask2_1452_1598" style="mask-type:luminance" maskUnits="userSpaceOnUse" x="0" y="33" width="99" height="33">
<path d="M98.6422 33.2598H0.742188V65.1998H98.6422V33.2598Z" fill="white"/>
</mask>
<g mask="url(#mask2_1452_1598)">
<path d="M53.1009 48.061C54.5409 48.061 55.7609 47.561 56.7409 46.581C57.7209 45.601 58.2209 44.401 58.2209 42.961C58.2209 41.521 57.7209 40.321 56.7409 39.341C55.7409 38.361 54.5409 37.861 53.1009 37.861C51.6609 37.861 50.4409 38.361 49.4409 39.341C48.4409 40.321 47.9409 41.541 47.9409 42.961C47.9409 44.381 48.4409 45.601 49.4409 46.581C50.4409 47.561 51.6609 48.061 53.1009 48.061ZM53.0609 37.041C54.7609 37.041 56.2209 37.621 57.4009 38.761C58.5809 39.901 59.1809 41.301 59.1809 42.961C59.1809 44.601 58.5809 46.001 57.4009 47.161C56.2209 48.301 54.7609 48.881 53.0609 48.881C51.3609 48.881 49.9209 48.301 48.7409 47.161C47.5609 46.021 46.9609 44.621 46.9609 42.961C46.9609 41.301 47.5609 39.901 48.7409 38.761C49.9209 37.621 51.3609 37.041 53.0609 37.041Z" fill="url(#paint2_linear_1452_1598)"/>
</g>
<mask id="mask3_1452_1598" style="mask-type:luminance" maskUnits="userSpaceOnUse" x="0" y="33" width="99" height="33">
<path d="M98.6422 33.2598H0.742188V65.1998H98.6422V33.2598Z" fill="white"/>
</mask>
<g mask="url(#mask3_1452_1598)">
<path d="M71.8998 37.1797V37.9397H67.5798V48.7397H66.6598V37.9397H62.3398V37.1797H71.8998Z" fill="url(#paint3_linear_1452_1598)"/>
</g>
<mask id="mask4_1452_1598" style="mask-type:luminance" maskUnits="userSpaceOnUse" x="0" y="33" width="99" height="33">
<path d="M98.6422 33.2598H0.742188V65.1998H98.6422V33.2598Z" fill="white"/>
</mask>
<g mask="url(#mask4_1452_1598)">
<path d="M85.2791 37.1797H86.1791V43.4797C86.1791 45.1997 85.7391 46.5397 84.8391 47.4797C83.9391 48.4197 82.7791 48.8797 81.3591 48.8797C79.9391 48.8797 78.7791 48.4197 77.8791 47.4997C76.9791 46.5797 76.5391 45.2997 76.5391 43.6997V37.1997H77.4391V43.6797C77.4391 45.0597 77.7991 46.1397 78.5391 46.9197C79.2591 47.6997 80.2191 48.0797 81.3591 48.0797C82.5191 48.0797 83.4791 47.6797 84.1991 46.8997C84.9191 46.1197 85.2991 44.9997 85.2991 43.5597V37.1797H85.2791Z" fill="url(#paint4_linear_1452_1598)"/>
</g>
<mask id="mask5_1452_1598" style="mask-type:luminance" maskUnits="userSpaceOnUse" x="0" y="33" width="99" height="33">
<path d="M98.6422 33.2598H0.742188V65.1998H98.6422V33.2598Z" fill="white"/>
</mask>
<g mask="url(#mask5_1452_1598)">
<path d="M97.7192 37.7597V38.7397C96.7192 38.1597 95.8592 37.8597 95.1392 37.8597C94.4392 37.8597 93.8592 38.0797 93.3992 38.4997C92.9392 38.9197 92.6992 39.4397 92.6992 40.0597C92.6992 40.4997 92.8392 40.8997 93.1192 41.2597C93.3992 41.6197 93.9792 41.9597 94.8392 42.2997C95.7192 42.6197 96.3592 42.8997 96.7592 43.1197C97.1592 43.3397 97.4992 43.6597 97.7792 44.0797C98.0592 44.4997 98.1992 45.0397 98.1992 45.6997C98.1992 46.5797 97.8792 47.3397 97.2192 47.9397C96.5592 48.5597 95.7792 48.8597 94.8392 48.8597C93.8792 48.8597 92.8992 48.5197 91.8792 47.8597V46.8197C92.9992 47.6397 93.9592 48.0597 94.7992 48.0597C95.4792 48.0597 96.0592 47.8397 96.5192 47.3997C96.9992 46.9597 97.2192 46.4197 97.2192 45.7597C97.2192 45.2797 97.0792 44.8197 96.7792 44.4397C96.4792 44.0397 95.8992 43.6797 94.9992 43.3397C94.0992 42.9997 93.4792 42.7197 93.0792 42.5197C92.6992 42.3197 92.3592 42.0197 92.0992 41.6197C91.8392 41.2397 91.6992 40.7397 91.6992 40.1197C91.6992 39.2797 92.0192 38.5397 92.6792 37.9597C93.3192 37.3597 94.1192 37.0597 95.0192 37.0597C95.9592 37.0397 96.8392 37.2797 97.7192 37.7597Z" fill="url(#paint5_linear_1452_1598)"/>
</g>
<mask id="mask6_1452_1598" style="mask-type:luminance" maskUnits="userSpaceOnUse" x="0" y="33" width="99" height="33">
<path d="M98.6422 33.2598H0.742188V65.1998H98.6422V33.2598Z" fill="white"/>
</mask>
<g mask="url(#mask6_1452_1598)">
<path d="M36.5586 59.7804H37.5786C37.9386 59.7804 38.2586 59.7404 38.5786 59.6404C38.8786 59.5604 39.1586 59.4204 39.3786 59.2404C39.5986 59.0604 39.7786 58.8204 39.9186 58.5404C40.0586 58.2604 40.1186 57.9404 40.1186 57.5404C40.1186 57.1604 40.0586 56.8204 39.9186 56.5404C39.7786 56.2604 39.5986 56.0204 39.3786 55.8404C39.1586 55.6604 38.8786 55.5204 38.5786 55.4404C38.2786 55.3604 37.9386 55.3004 37.5786 55.3004H36.5586V59.7804ZM36.0586 54.9004H37.7186C38.1786 54.9004 38.5786 54.9604 38.8986 55.0604C39.2186 55.1804 39.4986 55.3204 39.6986 55.5004C39.9186 55.6804 40.0786 55.8804 40.1986 56.0804C40.3186 56.3004 40.4186 56.5004 40.4786 56.7004C40.5386 56.9004 40.5786 57.0804 40.5786 57.2404C40.5986 57.4004 40.5986 57.5204 40.5986 57.5804C40.5986 57.6404 40.5986 57.7604 40.5786 57.9204C40.5586 58.0804 40.5186 58.2604 40.4786 58.4604C40.4186 58.6604 40.3386 58.8604 40.1986 59.0804C40.0786 59.3004 39.8986 59.5004 39.6986 59.6604C39.4786 59.8404 39.2186 59.9804 38.8986 60.1004C38.5786 60.2204 38.1786 60.2804 37.7186 60.2804H36.0586V54.9004Z" fill="url(#paint6_linear_1452_1598)"/>
</g>
<mask id="mask7_1452_1598" style="mask-type:luminance" maskUnits="userSpaceOnUse" x="0" y="33" width="99" height="33">
<path d="M98.6422 33.2598H0.742188V65.1998H98.6422V33.2598Z" fill="white"/>
</mask>
<g mask="url(#mask7_1452_1598)">
<path d="M43.5391 54.9004H46.8191V55.3404H44.0391V57.2404H46.6391V57.7004H44.0391V59.7804H46.9391V60.2404H43.5391V54.9004Z" fill="url(#paint7_linear_1452_1598)"/>
</g>
<mask id="mask8_1452_1598" style="mask-type:luminance" maskUnits="userSpaceOnUse" x="0" y="33" width="99" height="33">
<path d="M98.6422 33.2598H0.742188V65.1998H98.6422V33.2598Z" fill="white"/>
</mask>
<g mask="url(#mask8_1452_1598)">
<path d="M49.082 54.9004H49.622L51.342 59.5804L53.082 54.9004H53.602L51.582 60.2404H51.082L49.082 54.9004Z" fill="url(#paint8_linear_1452_1598)"/>
</g>
<mask id="mask9_1452_1598" style="mask-type:luminance" maskUnits="userSpaceOnUse" x="0" y="33" width="99" height="33">
<path d="M98.6422 33.2598H0.742188V65.1998H98.6422V33.2598Z" fill="white"/>
</mask>
<g mask="url(#mask9_1452_1598)">
<path d="M56.1406 54.9004H59.4006V55.3404H56.6406V57.2404H59.2406V57.7004H56.6406V59.7804H59.5206V60.2404H56.1406V54.9004Z" fill="url(#paint9_linear_1452_1598)"/>
</g>
<mask id="mask10_1452_1598" style="mask-type:luminance" maskUnits="userSpaceOnUse" x="0" y="33" width="99" height="33">
<path d="M98.6422 33.2598H0.742188V65.1998H98.6422V33.2598Z" fill="white"/>
</mask>
<g mask="url(#mask10_1452_1598)">
<path d="M62.4414 54.9004H62.9214V59.7804H65.4214V60.2404H62.4414V54.9004Z" fill="url(#paint10_linear_1452_1598)"/>
</g>
<mask id="mask11_1452_1598" style="mask-type:luminance" maskUnits="userSpaceOnUse" x="0" y="33" width="99" height="33">
<path d="M98.6422 33.2598H0.742188V65.1998H98.6422V33.2598Z" fill="white"/>
</mask>
<g mask="url(#mask11_1452_1598)">
<path d="M68.1797 57.5598C68.1797 57.8998 68.2397 58.1998 68.3397 58.4798C68.4397 58.7598 68.5997 59.0198 68.7997 59.2198C68.9997 59.4398 69.2397 59.5998 69.5197 59.7198C69.7997 59.8398 70.1197 59.8998 70.4597 59.8998C70.7997 59.8998 71.1197 59.8398 71.3997 59.7198C71.6797 59.5998 71.9197 59.4398 72.1197 59.2198C72.3197 58.9998 72.4597 58.7598 72.5797 58.4798C72.6797 58.1998 72.7397 57.8798 72.7397 57.5598C72.7397 57.2198 72.6797 56.9198 72.5797 56.6198C72.4797 56.3398 72.3197 56.0798 72.1197 55.8798C71.9197 55.6598 71.6797 55.4998 71.3997 55.3798C71.1197 55.2598 70.7997 55.1998 70.4597 55.1998C70.1197 55.1998 69.7997 55.2598 69.5197 55.3798C69.2397 55.4998 68.9997 55.6598 68.7997 55.8798C68.5997 56.0998 68.4597 56.3398 68.3397 56.6198C68.2197 56.9198 68.1797 57.2398 68.1797 57.5598ZM67.6797 57.5598C67.6797 57.1598 67.7397 56.7798 67.8797 56.4398C68.0197 56.0998 68.1997 55.7998 68.4397 55.5598C68.6797 55.2998 68.9797 55.1198 69.3197 54.9798C69.6597 54.8398 70.0397 54.7598 70.4397 54.7598C70.8397 54.7598 71.2197 54.8398 71.5597 54.9798C71.8997 55.1198 72.1997 55.3198 72.4397 55.5598C72.6797 55.7998 72.8797 56.0998 72.9997 56.4398C73.1397 56.7798 73.1997 57.1598 73.1997 57.5598C73.1997 57.9598 73.1397 58.3398 72.9997 58.6998C72.8597 59.0398 72.6797 59.3398 72.4397 59.5998C72.1997 59.8398 71.8997 60.0398 71.5597 60.1798C71.2197 60.3198 70.8397 60.3798 70.4397 60.3798C70.0397 60.3798 69.6597 60.2998 69.3197 60.1798C68.9797 60.0398 68.6797 59.8398 68.4397 59.5998C68.1997 59.3598 67.9997 59.0598 67.8797 58.6998C67.7397 58.3598 67.6797 57.9798 67.6797 57.5598Z" fill="url(#paint11_linear_1452_1598)"/>
</g>
<mask id="mask12_1452_1598" style="mask-type:luminance" maskUnits="userSpaceOnUse" x="0" y="33" width="99" height="33">
<path d="M98.6422 33.2598H0.742188V65.1998H98.6422V33.2598Z" fill="white"/>
</mask>
<g mask="url(#mask12_1452_1598)">
<path d="M76.6372 57.2404H77.7772C77.9172 57.2404 78.0572 57.2204 78.1972 57.2004C78.3372 57.1604 78.4572 57.1204 78.5572 57.0404C78.6572 56.9604 78.7372 56.8804 78.8172 56.7404C78.8772 56.6204 78.9172 56.4604 78.9172 56.3004C78.9172 56.1204 78.8772 55.9804 78.8172 55.8604C78.7572 55.7404 78.6572 55.6404 78.5572 55.5604C78.4572 55.4804 78.3172 55.4204 78.1772 55.4004C78.0372 55.3604 77.8972 55.3404 77.7572 55.3404H76.6572V57.2404H76.6372ZM76.1372 54.9004H77.6772C77.8572 54.9004 78.0572 54.9204 78.2572 54.9604C78.4572 55.0004 78.6572 55.0804 78.8172 55.1804C78.9772 55.2804 79.1172 55.4204 79.2372 55.6204C79.3372 55.8004 79.3972 56.0404 79.3972 56.3204C79.3972 56.5604 79.3572 56.7804 79.2572 56.9404C79.1772 57.1204 79.0572 57.2604 78.8972 57.3804C78.7572 57.5004 78.5772 57.5804 78.3772 57.6404C78.1772 57.7004 77.9772 57.7204 77.7772 57.7204H76.6172V60.2604H76.1172V54.9004H76.1372Z" fill="url(#paint12_linear_1452_1598)"/>
</g>
<mask id="mask13_1452_1598" style="mask-type:luminance" maskUnits="userSpaceOnUse" x="0" y="33" width="99" height="33">
<path d="M98.6422 33.2598H0.742188V65.1998H98.6422V33.2598Z" fill="white"/>
</mask>
<g mask="url(#mask13_1452_1598)">
<path d="M82.3008 54.9004H85.5808V55.3404H82.8008V57.2404H85.4008V57.7004H82.8008V59.7804H85.7008V60.2404H82.3008V54.9004Z" fill="url(#paint13_linear_1452_1598)"/>
</g>
<mask id="mask14_1452_1598" style="mask-type:luminance" maskUnits="userSpaceOnUse" x="0" y="33" width="99" height="33">
<path d="M98.6422 33.2598H0.742188V65.1998H98.6422V33.2598Z" fill="white"/>
</mask>
<g mask="url(#mask14_1452_1598)">
<path d="M89.1016 57.2404H90.1616C90.4216 57.2404 90.6416 57.2004 90.8016 57.1404C90.9616 57.0804 91.1016 57.0004 91.1816 56.9004C91.2816 56.8004 91.3416 56.7004 91.3616 56.6004C91.4016 56.4804 91.4016 56.3804 91.4016 56.3004C91.4016 56.2004 91.3816 56.1004 91.3616 56.0004C91.3216 55.8804 91.2616 55.7804 91.1816 55.6804C91.0816 55.5804 90.9616 55.5004 90.8016 55.4404C90.6416 55.3804 90.4216 55.3404 90.1616 55.3404H89.1016V57.2404ZM88.6016 54.9004H90.0016C90.0816 54.9004 90.1616 54.9004 90.2816 54.9004C90.4016 54.9004 90.5416 54.9204 90.6816 54.9404C90.8216 54.9604 90.9616 55.0004 91.1216 55.0604C91.2616 55.1204 91.4016 55.2004 91.5216 55.3004C91.6416 55.4004 91.7416 55.5404 91.8016 55.7004C91.8816 55.8604 91.9216 56.0604 91.9216 56.2804C91.9216 56.5404 91.8816 56.7404 91.7816 56.9204C91.7016 57.0804 91.5816 57.2204 91.4416 57.3204C91.3016 57.4204 91.1616 57.5004 91.0016 57.5604C90.8416 57.6204 90.6816 57.6404 90.5416 57.6604L92.1016 60.2204H91.5416L90.0416 57.6804H89.1216V60.2204H88.6016V54.9004Z" fill="url(#paint14_linear_1452_1598)"/>
</g>
<mask id="mask15_1452_1598" style="mask-type:luminance" maskUnits="userSpaceOnUse" x="0" y="33" width="99" height="33">
<path d="M98.6422 33.2598H0.742188V65.1998H98.6422V33.2598Z" fill="white"/>
</mask>
<g mask="url(#mask15_1452_1598)">
<path d="M95.042 59.2602C95.182 59.4802 95.342 59.6602 95.562 59.7602C95.762 59.8602 96.002 59.9202 96.282 59.9202C96.442 59.9202 96.602 59.9002 96.742 59.8402C96.882 59.7802 97.022 59.7202 97.122 59.6202C97.222 59.5202 97.322 59.4202 97.382 59.3002C97.442 59.1802 97.482 59.0202 97.482 58.8602C97.482 58.6802 97.442 58.5202 97.362 58.4002C97.282 58.2802 97.182 58.1802 97.042 58.1002C96.902 58.0202 96.762 57.9602 96.602 57.9002C96.442 57.8402 96.262 57.7802 96.102 57.7402C95.922 57.6802 95.762 57.6202 95.602 57.5602C95.442 57.4802 95.302 57.4002 95.162 57.2802C95.022 57.1602 94.922 57.0202 94.842 56.8602C94.762 56.6802 94.722 56.4802 94.722 56.2202C94.722 55.9802 94.762 55.7802 94.862 55.5802C94.962 55.4002 95.082 55.2402 95.242 55.1202C95.402 55.0002 95.582 54.9002 95.782 54.8402C95.982 54.7802 96.202 54.7402 96.442 54.7402C96.742 54.7402 97.002 54.8002 97.262 54.9002C97.502 55.0002 97.722 55.1802 97.902 55.4202L97.462 55.7202C97.342 55.5402 97.182 55.4202 97.022 55.3202C96.862 55.2202 96.642 55.1802 96.422 55.1802C96.262 55.1802 96.102 55.2002 95.962 55.2402C95.822 55.2802 95.682 55.3402 95.582 55.4402C95.482 55.5202 95.382 55.6202 95.322 55.7602C95.262 55.8802 95.222 56.0402 95.222 56.2002C95.222 56.4602 95.282 56.6802 95.422 56.8202C95.562 56.9602 95.722 57.0802 95.942 57.1602C96.142 57.2402 96.362 57.3202 96.602 57.3802C96.842 57.4402 97.062 57.5202 97.262 57.6402C97.462 57.7402 97.642 57.9002 97.782 58.0802C97.922 58.2602 97.982 58.5202 97.982 58.8602C97.982 59.1002 97.942 59.3202 97.842 59.5002C97.762 59.6802 97.622 59.8402 97.482 59.9802C97.322 60.1202 97.142 60.2002 96.942 60.2802C96.742 60.3402 96.522 60.3802 96.322 60.3802C95.962 60.3802 95.642 60.3202 95.342 60.2002C95.042 60.0802 94.782 59.8602 94.582 59.5802L95.042 59.2602Z" fill="url(#paint15_linear_1452_1598)"/>
</g>
<defs>
<linearGradient id="paint0_linear_1452_1598" x1="4.89482" y1="34.0586" x2="33.0867" y2="38.2252" gradientUnits="userSpaceOnUse">
<stop stop-color="#F8EEA4"/>
<stop offset="1" stop-color="#C7A008"/>
</linearGradient>
<linearGradient id="paint1_linear_1452_1598" x1="37.4333" y1="37.1797" x2="43.6516" y2="37.7044" gradientUnits="userSpaceOnUse">
<stop stop-color="#F8EEA4"/>
<stop offset="1" stop-color="#C7A008"/>
</linearGradient>
<linearGradient id="paint2_linear_1452_1598" x1="48.472" y1="37.041" x2="59.8035" y2="38.7695" gradientUnits="userSpaceOnUse">
<stop stop-color="#F8EEA4"/>
<stop offset="1" stop-color="#C7A008"/>
</linearGradient>
<linearGradient id="paint3_linear_1452_1598" x1="63.522" y1="37.1797" x2="72.4597" y2="38.2721" gradientUnits="userSpaceOnUse">
<stop stop-color="#F8EEA4"/>
<stop offset="1" stop-color="#C7A008"/>
</linearGradient>
<linearGradient id="paint4_linear_1452_1598" x1="77.7311" y1="37.1797" x2="86.7446" y2="38.2773" gradientUnits="userSpaceOnUse">
<stop stop-color="#F8EEA4"/>
<stop offset="1" stop-color="#C7A008"/>
</linearGradient>
<linearGradient id="paint5_linear_1452_1598" x1="92.503" y1="37.0586" x2="98.63" y2="37.5574" gradientUnits="userSpaceOnUse">
<stop stop-color="#F8EEA4"/>
<stop offset="1" stop-color="#C7A008"/>
</linearGradient>
<linearGradient id="paint6_linear_1452_1598" x1="36.62" y1="54.9004" x2="40.8619" y2="55.4294" gradientUnits="userSpaceOnUse">
<stop stop-color="#F8EEA4"/>
<stop offset="1" stop-color="#C7A008"/>
</linearGradient>
<linearGradient id="paint7_linear_1452_1598" x1="43.9595" y1="54.9004" x2="47.1573" y2="55.2013" gradientUnits="userSpaceOnUse">
<stop stop-color="#F8EEA4"/>
<stop offset="1" stop-color="#C7A008"/>
</linearGradient>
<linearGradient id="paint8_linear_1452_1598" x1="49.641" y1="54.9004" x2="53.8638" y2="55.4287" gradientUnits="userSpaceOnUse">
<stop stop-color="#F8EEA4"/>
<stop offset="1" stop-color="#C7A008"/>
</linearGradient>
<linearGradient id="paint9_linear_1452_1598" x1="56.5586" y1="54.9004" x2="59.7379" y2="55.1978" gradientUnits="userSpaceOnUse">
<stop stop-color="#F8EEA4"/>
<stop offset="1" stop-color="#C7A008"/>
</linearGradient>
<linearGradient id="paint10_linear_1452_1598" x1="62.8099" y1="54.9004" x2="65.6184" y2="55.132" gradientUnits="userSpaceOnUse">
<stop stop-color="#F8EEA4"/>
<stop offset="1" stop-color="#C7A008"/>
</linearGradient>
<linearGradient id="paint11_linear_1452_1598" x1="68.3623" y1="54.7598" x2="73.4919" y2="55.5044" gradientUnits="userSpaceOnUse">
<stop stop-color="#F8EEA4"/>
<stop offset="1" stop-color="#C7A008"/>
</linearGradient>
<linearGradient id="paint12_linear_1452_1598" x1="76.5228" y1="54.9004" x2="79.6098" y2="55.1796" gradientUnits="userSpaceOnUse">
<stop stop-color="#F8EEA4"/>
<stop offset="1" stop-color="#C7A008"/>
</linearGradient>
<linearGradient id="paint13_linear_1452_1598" x1="82.7212" y1="54.9004" x2="85.9191" y2="55.2013" gradientUnits="userSpaceOnUse">
<stop stop-color="#F8EEA4"/>
<stop offset="1" stop-color="#C7A008"/>
</linearGradient>
<linearGradient id="paint14_linear_1452_1598" x1="89.0344" y1="54.9004" x2="92.3243" y2="55.2203" gradientUnits="userSpaceOnUse">
<stop stop-color="#F8EEA4"/>
<stop offset="1" stop-color="#C7A008"/>
</linearGradient>
<linearGradient id="paint15_linear_1452_1598" x1="95.0025" y1="54.7402" x2="98.2032" y2="55.0254" gradientUnits="userSpaceOnUse">
<stop stop-color="#F8EEA4"/>
<stop offset="1" stop-color="#C7A008"/>
</linearGradient>
</defs>
</svg>
