<svg width="100" height="100" viewBox="0 0 100 100" fill="none" xmlns="http://www.w3.org/2000/svg">
<path fill-rule="evenodd" clip-rule="evenodd" d="M33.1372 53.4398C33.1972 53.3198 33.2372 53.1798 33.2772 53.0398C33.3772 52.7598 33.4572 52.4798 33.5172 52.2198C33.8772 50.8198 34.0972 49.3198 34.0772 47.8598C34.0172 43.3998 32.1572 39.3598 29.1972 36.4598C26.3772 33.6998 22.5572 31.9598 18.3572 31.8398L18.3772 32.8998C22.2972 33.0198 25.8372 34.6398 28.4572 37.1998C31.2172 39.9198 32.9572 43.6798 33.0172 47.8598C33.0372 49.2398 32.8372 50.6198 32.4972 51.9398C32.4572 52.0798 32.4372 52.1998 32.3972 52.3398L23.0572 52.4398C22.7972 52.4598 22.6772 52.2998 22.6772 51.8998L21.9972 48.7398L18.5972 32.7998L18.3772 32.9198L18.4972 60.1798C18.3172 60.1598 18.1372 60.1398 17.9572 60.1398C17.7572 60.1398 17.5572 60.1598 17.3772 60.1998L17.1772 32.7998L16.9772 32.8198L13.7572 48.8198L13.1172 51.9798C13.1172 52.3798 12.9772 52.5198 12.7372 52.5198L3.39719 52.5398C3.35719 52.3998 3.31719 52.2798 3.29719 52.1398C2.93719 50.8198 2.71719 49.4198 2.71719 48.0598C2.71719 43.8798 4.41719 40.0998 7.13719 37.3398C9.73719 34.7398 13.2572 33.0798 17.1572 32.9198V31.8598C12.9572 32.0398 9.15719 33.7998 6.35719 36.5998C3.43719 39.5398 1.61719 43.5998 1.61719 48.0398C1.61719 49.4798 1.83719 50.9998 2.23719 52.3798C2.31719 52.6398 2.39719 52.8998 2.49719 53.1798C2.53719 53.3198 2.55719 53.4398 2.63719 53.5598C2.87719 53.9998 2.73719 53.8198 3.73719 53.8398L13.9572 53.7798C14.1772 53.7998 14.2972 53.6198 14.3372 53.0198L15.9972 40.9798L16.0972 54.9398H14.4972H14.4172H3.41719L4.17719 55.9998H12.3772C11.1972 56.7798 10.1572 57.7598 9.31719 58.8998C9.05719 59.2598 8.83719 59.6198 8.61719 59.9798C8.39719 60.3398 8.21719 60.7198 8.05719 61.1198V61.1398L9.15719 61.6798C9.15719 61.6998 9.15719 61.6998 9.15719 61.6798L9.19719 61.5998C9.33719 61.2598 9.51719 60.9198 9.69719 60.5798C9.89719 60.2598 10.0972 59.9198 10.3172 59.6198C11.4572 58.0598 13.0772 56.7798 14.8572 56.0798C14.9572 56.0398 15.0572 55.9998 15.1772 55.9798H16.1572L16.1772 57.6398C14.4972 58.0798 13.0372 59.1198 12.0372 60.5198C11.8172 60.8398 11.6172 61.1798 11.4372 61.5398C11.2572 61.8998 11.1172 62.2598 11.0172 62.6398V62.6598L12.1972 62.9998V62.9798C12.2972 62.6798 12.4172 62.3798 12.5572 62.0798C12.6972 61.7998 12.8572 61.5198 13.0572 61.2398C13.8172 60.1598 14.9372 59.3198 16.1972 58.9198L16.2172 60.5598C15.1372 61.1798 14.4172 62.3598 14.4172 63.6798V63.8598L21.6172 63.8398V63.6998C21.6172 62.3598 20.8572 61.1798 19.7772 60.5598L19.7572 58.9398C21.0172 59.3398 22.1372 60.1398 22.9172 61.2198C23.0972 61.4798 23.2772 61.7598 23.4172 62.0398C23.5572 62.3198 23.6772 62.6398 23.7772 62.9398V62.9598L24.9572 62.6198C24.9572 62.5998 24.9572 62.5998 24.9572 62.5998C24.8372 62.2198 24.6972 61.8398 24.5172 61.4998C24.3372 61.1398 24.1372 60.8198 23.9172 60.4998C22.9172 59.0998 21.4172 58.0798 19.7372 57.6598L19.7172 55.9998L20.5572 55.9798C20.9372 55.9798 21.0372 56.0398 21.3172 56.1798C22.9972 56.8998 24.4972 58.0798 25.6172 59.5598C25.8372 59.8598 26.0572 60.1798 26.2572 60.4998C26.4572 60.8198 26.6172 61.1798 26.7772 61.5198L26.8172 61.5998C26.8172 61.6198 26.8172 61.6198 26.8172 61.5998L27.9172 61.0398V61.0198C27.7372 60.6198 27.5572 60.2598 27.3372 59.8798C27.1172 59.5198 26.8972 59.1598 26.6172 58.8198C25.7772 57.6998 24.7172 56.7198 23.5372 55.9598H31.7372L32.4972 54.8798C28.2572 54.8998 23.9772 54.8798 19.7772 54.9398L19.7172 40.9798L21.5172 52.9998C21.5572 53.6198 21.6972 53.7798 21.9172 53.7598L32.1372 53.6998C33.0172 53.7198 32.9172 53.8798 33.1372 53.4398Z" fill="url(#paint0_linear_1452_955)"/>
<path d="M49.7608 49.2404V46.4204V46.0404L49.7408 45.6804L49.7008 45.3204L49.6608 44.9804L49.6208 44.6604L49.5608 44.3604L49.5008 44.0604L49.4208 43.7804L49.3408 43.5204L49.2408 43.2804L49.1408 43.0604L49.0408 42.8404L48.9208 42.6404L48.8008 42.4604L48.6608 42.3004L48.5208 42.1404L48.3608 42.0004L48.2008 41.8604L48.0208 41.7404L47.8208 41.6204L47.6008 41.5204L47.3808 41.4204L47.1408 41.3204L46.8808 41.2404L46.6008 41.1604L46.3008 41.1004L46.0008 41.0404L45.6808 41.0004L45.3408 40.9604L44.9808 40.9204L44.6208 40.9004H44.2208H42.3208H41.9408L41.5808 40.9204L41.2208 40.9604L40.8808 41.0004L40.5608 41.0404L40.2608 41.1004L39.9608 41.1604L39.6808 41.2404L39.4208 41.3204L39.2008 41.4004L38.9808 41.5004L38.7608 41.6004L38.5608 41.7204L38.3808 41.8404L38.2008 42.0004L38.0408 42.1404L37.9008 42.3004L37.7608 42.4604L37.6408 42.6404L37.5208 42.8404L37.4208 43.0604L37.3208 43.2804L37.2208 43.5204L37.1408 43.7804L37.0608 44.0604L37.0008 44.3604L36.9408 44.6604L36.9008 44.9804L36.8608 45.3204L36.8208 45.6804L36.8008 46.0404V46.4204V49.2204V49.6004L36.8208 49.9604L36.8608 50.3204L36.9008 50.6604L36.9408 50.9804L37.0008 51.2804L37.0608 51.5804L37.1408 51.8604L37.2208 52.1204L37.3208 52.3604L37.4208 52.5804L37.5208 52.8004L37.6408 53.0004L37.7608 53.1804L37.9008 53.3404L38.0408 53.5004L38.2008 53.6404L38.3608 53.7804L38.5408 53.9004L38.7408 54.0204L38.9608 54.1204L39.1808 54.2204L39.4208 54.3204L39.6808 54.4004L39.9608 54.4804L40.2608 54.5404L40.5608 54.6004L40.8808 54.6404L41.2208 54.6804L41.5808 54.7204L41.9408 54.7404H42.3408H44.2408H44.6408L45.0208 54.7204L45.3808 54.6804L45.7208 54.6404L46.0408 54.6004L46.3408 54.5604L46.6408 54.5004L46.9208 54.4204L47.1808 54.3404L47.4208 54.2404L47.6408 54.1404L47.8608 54.0404L48.0608 53.9404L48.2408 53.8204L48.4008 53.7004L48.5608 53.5604L48.7008 53.4004L48.8408 53.2404L48.9608 53.0604L49.0808 52.8604L49.1808 52.6404L49.2808 52.4204L49.3808 52.1804L49.4608 51.9204L49.5408 51.6404L49.6008 51.3404L49.6608 51.0404L49.7008 50.7204L49.7408 50.3804L49.7808 50.0204L49.8008 49.6604L49.7608 49.2404ZM46.8408 49.5404L46.8208 49.8204L46.8008 50.0604L46.7808 50.2804L46.7608 50.4604L46.7208 50.6204L46.6808 50.7804L46.5808 51.0204L46.4208 51.2404L46.2408 51.4204L46.0208 51.5804L45.7808 51.6804L45.5208 51.7604L45.2408 51.8004L44.9408 51.8204H41.6208L41.3008 51.8004L41.0008 51.7604L40.7008 51.6604L40.4408 51.5204L40.2208 51.3404L40.0408 51.1204L39.9008 50.8604L39.8008 50.5804L39.7808 50.4604L39.7608 50.3204L39.7408 50.1604L39.7208 49.9804V49.7604V49.5204V49.2404V48.9404V46.7404V46.4004V46.1004L39.7408 45.8204L39.7608 45.5804L39.7808 45.3604L39.8008 45.1804L39.8408 45.0204L39.8808 44.8604L39.9808 44.6204L40.1408 44.4004L40.3208 44.2204L40.5408 44.0804L40.7808 43.9804L41.0408 43.9004L41.3208 43.8604L41.6208 43.8404H44.9408L45.2608 43.8604L45.5608 43.9004L45.8608 44.0004L46.1208 44.1404L46.3408 44.3204L46.5208 44.5404L46.6608 44.8004L46.7408 45.0804L46.7608 45.2004L46.7808 45.3404L46.8008 45.5004L46.8208 45.6804V45.9004V46.1404V46.4204V46.7204V48.9204L46.8408 49.2204V49.5404Z" fill="url(#paint1_linear_1452_955)"/>
<path fill-rule="evenodd" clip-rule="evenodd" d="M82.4209 46.9604H79.7209H76.5209V49.9004H79.4409L79.4209 50.0804L79.4009 50.3004L79.3809 50.4804L79.3409 50.6404L79.3009 50.8004L79.2009 51.0404L79.0409 51.2604L78.8609 51.4404L78.6409 51.6004L78.4009 51.7004L78.1409 51.7804L77.8609 51.8204L77.5609 51.8404H74.2409L73.9209 51.8204L73.6209 51.7804L73.3209 51.6804L73.0609 51.5404L72.8409 51.3604L72.6609 51.1404L72.5209 50.8804L72.4209 50.6004L72.4009 50.4804L72.3809 50.3404L72.3609 50.1804L72.3409 50.0004V49.8004V49.5604V49.2804V48.9804V46.7804V46.4404V46.1404L72.3609 45.8604L72.3809 45.6204L72.4009 45.4004L72.4209 45.2204L72.4609 45.0604L72.5009 44.9004L72.6009 44.6604L72.7609 44.4404L72.9409 44.2604L73.1609 44.1204L73.4009 44.0204L73.6609 43.9404L73.9409 43.9004L74.2409 43.8804H77.5609L77.8809 43.9004L78.1809 43.9404L78.4809 44.0404L78.7409 44.1804L78.9609 44.3604L79.1409 44.5804L79.2809 44.8404L79.3609 45.1204L79.3809 45.2404L79.4009 45.3804L79.4209 45.5404C79.4209 45.7004 79.4409 45.7204 79.4409 45.8804H82.4009V45.8604L82.3609 45.3204L82.3209 44.9804L82.2809 44.6604L82.2209 44.3604L82.1609 44.0604L82.0809 43.7804L82.0009 43.5204L81.9009 43.2804L81.8009 43.0604L81.7009 42.8404L81.5809 42.6404L81.4609 42.4604L81.3209 42.3004L81.1809 42.1404L81.0209 42.0004L80.8609 41.8604L80.6809 41.7404L80.4809 41.6204L80.2609 41.5204L80.0409 41.4204L79.8009 41.3204L79.5409 41.2404L79.2609 41.1604L78.9609 41.1004L78.6609 41.0404L78.3409 41.0004L78.0009 40.9604L77.6409 40.9204L77.2809 40.9004H76.8809H74.9809H74.5809L74.2209 40.9204L73.8609 40.9604L73.5209 41.0004L73.2209 41.0804L72.9209 41.1404L72.6209 41.2004L72.3409 41.2804L72.0809 41.3604L71.8409 41.4604L71.6209 41.5604L71.4009 41.6604L71.2009 41.7804L71.0209 41.9004L70.8609 42.0404L70.7009 42.1804L70.5609 42.3404L70.4209 42.5004L70.3009 42.6804L70.1809 42.8804L70.0809 43.1004L69.9809 43.3204L69.8809 43.5604L69.8009 43.8204L69.7209 44.1004L69.6609 44.4004L69.6009 44.7004L69.5609 45.0204L69.5209 45.3604L69.4809 45.7204L69.4609 46.0804V46.4604V49.2804V49.6604L69.4809 50.0204L69.5209 50.3804L69.5609 50.7204L69.6009 51.0404L69.6609 51.3404L69.7209 51.6404L69.8009 51.9204L69.8809 52.1804L69.9809 52.4204L70.0809 52.6404L70.1809 52.8604L70.3009 53.0604L70.4209 53.2404L70.5609 53.4004L70.7009 53.5604L70.8609 53.7004L71.0209 53.8404L71.2009 53.9604L71.4009 54.0804L71.6209 54.1804L71.8409 54.2804L72.0809 54.3804L72.3409 54.4604L72.6209 54.5404L72.9209 54.6004L73.2209 54.6604L73.5409 54.7004L73.8809 54.7404L74.2409 54.7804L74.6009 54.8004H74.9809H76.8809H77.2809L77.6609 54.7804L78.0209 54.7404L78.3609 54.7004L78.6809 54.6604L78.9809 54.6204L79.2809 54.5604L79.5609 54.4804L79.8209 54.4004L80.0609 54.3004L80.2809 54.2004L80.5009 54.1004L80.7009 54.0004L80.8809 53.8804L81.0409 53.7604L81.2009 53.6204L81.3409 53.4604L81.4809 53.3004L81.6009 53.1204L81.7209 52.9204L81.8209 52.7004L81.9209 52.4804L82.0209 52.2404L82.1009 51.9804L82.1809 51.7004L82.2409 51.4004L82.3009 51.1004L82.3409 50.7804L82.3809 50.4404L82.4209 50.0804L82.4409 49.7204V49.3204L82.4209 46.9604Z" fill="url(#paint2_linear_1452_955)"/>
<path fill-rule="evenodd" clip-rule="evenodd" d="M95.9014 49.6599V49.8399L95.8814 50.0799V50.2999L95.8614 50.4799L95.8214 50.6399L95.7814 50.7999L95.6814 51.0399L95.5214 51.2599L95.3414 51.4399L95.1214 51.5999L94.8814 51.6999L94.6214 51.7799L94.3414 51.8199L94.0614 51.8399H90.7414L90.4214 51.8199L90.1214 51.7799L89.8214 51.6799L89.5614 51.5399L89.3414 51.3599L89.1614 51.1399L89.0214 50.8799L88.9214 50.5999L88.9014 50.4799V50.3399L88.8814 50.1799V49.9999V49.7999V49.5399V49.2799V48.9599V46.7599V46.4399V46.1199L88.9014 45.8599V45.5999L88.9214 45.3999L88.9414 45.1999L88.9614 45.0599L89.0214 44.8999L89.1214 44.6599L89.2814 44.4399L89.4614 44.2599L89.6814 44.1199L89.9214 44.0199L90.1814 43.9399L90.4414 43.8999L90.7414 43.8799H94.0614L94.3814 43.8999L94.6814 43.9399L94.9814 44.0399L95.2414 44.1599L95.4614 44.3599L95.6414 44.5799L95.7814 44.8399L95.8614 45.1199L95.8814 45.2399V45.3799L95.9014 45.5199L95.9214 45.7199V45.9199V46.0599H98.8614V46.0399V45.6599L98.8214 45.3199L98.8014 44.9799L98.7414 44.6599L98.6814 44.3599L98.6214 44.0599L98.5414 43.7799L98.4814 43.5199L98.3814 43.2799L98.2814 43.0599L98.1614 42.8399L98.0414 42.6399L97.9214 42.4599L97.7814 42.2999L97.6414 42.1399L97.5014 41.9999L97.3214 41.8599L97.1414 41.7399L96.9414 41.6199L96.7214 41.5199L96.5014 41.3999L96.2614 41.3199L96.0014 41.2399L95.7214 41.1599L95.4214 41.0999L95.1214 41.0399L94.8014 40.9999L94.4614 40.9599L94.1214 40.9399L93.7414 40.9199H93.3614H91.4414H91.0614L90.7014 40.9399L90.3414 40.9599L90.0014 40.9999L89.6814 41.0399L89.3814 41.0999L89.0814 41.1599L88.8214 41.2399L88.5614 41.3199L88.3214 41.3999L88.0814 41.5199L87.8614 41.6199L87.6614 41.7399L87.4814 41.8599L87.3214 41.9999L87.1614 42.1399L87.0214 42.2999L86.8814 42.4599L86.7614 42.6399L86.6414 42.8399L86.5414 43.0599L86.4414 43.2799L86.3414 43.5199L86.2614 43.7799L86.1814 44.0599L86.1214 44.3599L86.0614 44.6599L86.0214 44.9799L85.9814 45.3199L85.9614 45.6599L85.9414 46.0399V46.4199V49.2399V49.6199L85.9614 49.9999L85.9814 50.3399L86.0214 50.6799L86.0614 50.9999L86.1214 51.2999L86.1814 51.5999L86.2614 51.8599L86.3414 52.1199L86.4414 52.3799L86.5414 52.5999L86.6414 52.8199L86.7614 53.0199L86.8814 53.1999L87.0214 53.3599L87.1614 53.5199L87.3214 53.6599L87.4814 53.7999L87.6614 53.9199L87.8614 54.0399L88.0814 54.1399L88.3214 54.2399L88.5614 54.3199L88.8214 54.3999L89.0814 54.4799L89.3814 54.5399L89.6814 54.5999L90.0014 54.6399L90.3414 54.6799L90.7014 54.7199H91.0614H91.4414H93.3614H93.7414H94.1414L94.4814 54.6799L94.8214 54.6399L95.1414 54.5999L95.4414 54.5599L95.7414 54.4999L96.0214 54.4199L96.2814 54.3399L96.5214 54.2599L96.7414 54.1599L96.9614 54.0599L97.1614 53.9399L97.3414 53.8199L97.5014 53.6999L97.6614 53.5599L97.8014 53.4199L97.9414 53.2399L98.0614 53.0599L98.1814 52.8599L98.2814 52.6399L98.4014 52.4199L98.4814 52.1799L98.5614 51.9199L98.6414 51.6399L98.7014 51.3399L98.7614 51.0399L98.8014 50.7199L98.8414 50.3799L98.8614 50.0399L98.8814 49.6599H95.9014Z" fill="url(#paint3_linear_1452_955)"/>
<path fill-rule="evenodd" clip-rule="evenodd" d="M66.1191 45.7795C66.0991 44.0995 65.4591 42.8395 64.4791 41.9995C63.9391 41.5195 63.4191 41.2595 62.8391 41.1195C62.2791 40.9795 61.6791 40.9595 60.9591 40.9195C60.0391 40.8795 59.1591 40.8595 58.3191 41.3195C57.5391 41.7395 56.7991 42.4195 56.2791 43.0995V40.9395H53.5391V54.5595H56.4791V47.4195C56.4991 46.0195 57.1191 45.0195 57.9991 44.4195C58.7591 43.8995 59.5191 43.7995 60.4191 43.8195C61.9391 43.8595 62.9191 44.7195 63.1591 46.0595C63.2591 46.6395 63.1991 47.2595 63.1991 47.8595V54.5595H66.1391L66.1191 45.7795Z" fill="url(#paint4_linear_1452_955)"/>
<defs>
<linearGradient id="paint0_linear_1452_955" x1="5.63121" y1="31.8398" x2="35.7564" y2="36.3536" gradientUnits="userSpaceOnUse">
<stop stop-color="#F8EEA4"/>
<stop offset="1" stop-color="#C7A008"/>
</linearGradient>
<linearGradient id="paint1_linear_1452_955" x1="38.4083" y1="40.9004" x2="50.5104" y2="42.5805" gradientUnits="userSpaceOnUse">
<stop stop-color="#F8EEA4"/>
<stop offset="1" stop-color="#C7A008"/>
</linearGradient>
<linearGradient id="paint2_linear_1452_955" x1="71.066" y1="40.9004" x2="83.1521" y2="42.5684" gradientUnits="userSpaceOnUse">
<stop stop-color="#F8EEA4"/>
<stop offset="1" stop-color="#C7A008"/>
</linearGradient>
<linearGradient id="paint3_linear_1452_955" x1="87.5415" y1="40.9199" x2="99.5885" y2="42.5895" gradientUnits="userSpaceOnUse">
<stop stop-color="#F8EEA4"/>
<stop offset="1" stop-color="#C7A008"/>
</linearGradient>
<linearGradient id="paint4_linear_1452_955" x1="55.0971" y1="40.9004" x2="66.8347" y2="42.5006" gradientUnits="userSpaceOnUse">
<stop stop-color="#F8EEA4"/>
<stop offset="1" stop-color="#C7A008"/>
</linearGradient>
</defs>
</svg>
