<svg width="100" height="100" viewBox="0 0 100 100" fill="none" xmlns="http://www.w3.org/2000/svg">
<mask id="mask0_1452_1058" style="mask-type:luminance" maskUnits="userSpaceOnUse" x="0" y="54" width="7" height="7">
<path d="M5.97984 54.7598L6.83984 56.0398L0.839844 60.6198L5.97984 54.7598Z" fill="white"/>
</mask>
<g mask="url(#mask0_1452_1058)">
<path d="M5.97984 54.9004L6.97984 55.9604L0.839844 60.6204L5.97984 54.9004Z" fill="url(#paint0_linear_1452_1058)"/>
</g>
<mask id="mask1_1452_1058" style="mask-type:luminance" maskUnits="userSpaceOnUse" x="0" y="54" width="7" height="7">
<path d="M5.97984 54.7598L6.83984 56.0398L0.839844 60.6198L5.97984 54.7598Z" fill="white"/>
</mask>
<g mask="url(#mask1_1452_1058)">
<path d="M5.54 54.3398L6.7 55.3798L0.5 60.9598L5.54 54.3398Z" fill="url(#paint1_linear_1452_1058)"/>
</g>
<mask id="mask2_1452_1058" style="mask-type:luminance" maskUnits="userSpaceOnUse" x="4" y="35" width="19" height="18">
<path d="M4.78125 38.1001C4.78125 38.1001 15.8812 32.6801 20.5812 36.8401C20.5812 36.8401 25.2212 40.8401 18.4412 47.1201L12.0413 52.2601L11.8012 52.0001C11.3612 51.5201 11.0412 50.9601 10.8412 50.3401C10.8412 50.3401 22.1412 35.2801 4.78125 38.1001Z" fill="white"/>
</mask>
<g mask="url(#mask2_1452_1058)">
<path d="M4.78125 38.1001C4.78125 38.1001 15.8812 32.6801 20.5812 36.8401C20.5812 36.8401 25.2212 40.8401 18.4412 47.1201L12.0413 52.2601L11.6012 51.7201C11.3412 51.4001 11.1212 51.0401 10.9612 50.6401L10.8412 50.3401C10.8412 50.3401 22.1412 35.2801 4.78125 38.1001Z" fill="url(#paint2_linear_1452_1058)"/>
</g>
<mask id="mask3_1452_1058" style="mask-type:luminance" maskUnits="userSpaceOnUse" x="4" y="35" width="19" height="18">
<path d="M4.78125 38.1001C4.78125 38.1001 15.8812 32.6801 20.5812 36.8401C20.5812 36.8401 25.2212 40.8401 18.4412 47.1201L12.0413 52.2601L11.8012 52.0001C11.3612 51.5201 11.0412 50.9601 10.8412 50.3401C10.8412 50.3401 22.1412 35.2801 4.78125 38.1001Z" fill="white"/>
</mask>
<g mask="url(#mask3_1452_1058)">
<path d="M0.660156 39.6997C0.660156 39.6997 11.7602 34.2797 16.4602 38.4397C16.4602 38.4397 21.1002 42.4397 14.3202 48.7197L7.92016 53.8597L6.72016 51.9397C6.72016 51.9597 18.0202 36.8797 0.660156 39.6997Z" fill="url(#paint3_linear_1452_1058)"/>
</g>
<mask id="mask4_1452_1058" style="mask-type:luminance" maskUnits="userSpaceOnUse" x="5" y="45" width="22" height="17">
<path d="M11.7188 45.1602C11.7188 45.1602 7.27882 48.7002 12.5988 53.5002C18.1988 58.5802 26.5988 60.9802 26.5988 60.9802C26.5988 60.9802 16.2988 64.5402 8.11882 57.1002C6.37882 55.5202 5.41882 53.2202 5.67882 50.8802C5.89882 48.6002 7.25882 46.0802 11.7188 45.1602Z" fill="white"/>
</mask>
<g mask="url(#mask4_1452_1058)">
<path d="M11.7188 45.1602C11.7188 45.1602 7.27882 48.7002 12.5988 53.5002C18.1988 58.5802 26.5988 60.9802 26.5988 60.9802C26.5988 60.9802 16.2988 64.5402 8.11882 57.1002C6.37882 55.5202 5.41882 53.2202 5.67882 50.8802C5.89882 48.6002 7.25882 46.0802 11.7188 45.1602Z" fill="url(#paint4_linear_1452_1058)"/>
</g>
<mask id="mask5_1452_1058" style="mask-type:luminance" maskUnits="userSpaceOnUse" x="5" y="45" width="22" height="17">
<path d="M11.7188 45.1602C11.7188 45.1602 7.27882 48.7002 12.5988 53.5002C18.1988 58.5802 26.5988 60.9802 26.5988 60.9802C26.5988 60.9802 16.2988 64.5402 8.11882 57.1002C6.37882 55.5202 5.41882 53.2202 5.67882 50.8802C5.89882 48.6002 7.25882 46.0802 11.7188 45.1602Z" fill="white"/>
</mask>
<g mask="url(#mask5_1452_1058)">
<path d="M14.3595 44.3008C14.3595 44.3008 9.91945 47.8408 15.2394 52.6408C20.8394 57.7208 29.2394 60.1208 29.2394 60.1208C29.2394 60.1208 18.9395 63.6808 10.7594 56.2408C9.01945 54.6608 8.05945 52.3608 8.31945 50.0208C8.55945 47.7408 9.89945 45.2208 14.3595 44.3008Z" fill="url(#paint5_linear_1452_1058)"/>
</g>
<path d="M34.66 57.7394V51.2394C34.66 50.0394 34.1 49.4394 33 49.4394H32.02V57.7394H27.5V42.2994C27.5 41.5594 27.64 40.9394 27.94 40.4194C28.24 39.8994 28.64 39.4994 29.16 39.1994C29.68 38.8994 30.3 38.6794 31.02 38.5594C31.74 38.4194 32.5 38.3594 33.34 38.3594C34.16 38.3594 34.9 38.4194 35.56 38.5594C36.22 38.6994 36.82 38.9194 37.3 39.2194C37.8 39.5194 38.18 39.9394 38.46 40.4394C38.74 40.9394 38.86 41.5794 38.86 42.3194V45.3794C38.86 46.2794 38.62 46.9594 38.12 47.4594C37.62 47.9394 36.8 48.2394 35.66 48.3194C36.8 48.4194 37.64 48.6994 38.18 49.1194C38.72 49.5394 38.98 50.1194 38.98 50.8594V57.7394H34.66ZM34.66 41.9194C34.66 41.1194 34.22 40.7394 33.34 40.7394C32.46 40.7394 32.02 41.1394 32.02 41.9194V47.2994H33C33.52 47.2994 33.94 47.1794 34.22 46.9194C34.52 46.6594 34.66 46.2394 34.66 45.6194V41.9194Z" fill="url(#paint6_linear_1452_1058)"/>
<path d="M47.9608 57.7398V50.2798H45.3208V57.7398H40.8008V42.0198C40.8008 41.4598 40.9408 40.9398 41.2608 40.4798C41.5608 40.0198 41.9808 39.6398 42.5008 39.3198C43.0208 38.9998 43.6408 38.7598 44.3608 38.5998C45.0808 38.4398 45.8408 38.3398 46.6808 38.3398C47.5008 38.3398 48.2608 38.4198 48.9608 38.5998C49.6608 38.7598 50.2808 38.9998 50.8008 39.3198C51.3208 39.6398 51.7408 40.0198 52.0408 40.4798C52.3408 40.9398 52.5008 41.4398 52.5008 42.0198V57.7398H47.9608ZM47.9608 41.9198C47.9608 41.1198 47.5208 40.7198 46.6408 40.7198C45.7608 40.7198 45.3208 41.1198 45.3208 41.9198V47.8398H47.9608V41.9198Z" fill="url(#paint7_linear_1452_1058)"/>
<path d="M61.7372 57.7404L58.6172 48.2404V57.7404H54.1172V38.9004H58.6172V47.2404L61.8772 38.9004H66.0772L62.7972 47.0604L66.5972 57.7404H61.7372Z" fill="url(#paint8_linear_1452_1058)"/>
<path d="M67.6992 57.7404V38.9004H72.1992V57.7404H67.6992Z" fill="url(#paint9_linear_1452_1058)"/>
<path d="M81.3397 57.7394V51.2394C81.3397 50.0394 80.7797 49.4394 79.6797 49.4394H78.6997V57.7394H74.1797V42.2994C74.1797 41.5594 74.3197 40.9394 74.6197 40.4194C74.9197 39.8994 75.3197 39.4994 75.8397 39.1994C76.3597 38.8994 76.9797 38.6794 77.6997 38.5594C78.4197 38.4194 79.1797 38.3594 80.0197 38.3594C80.8397 38.3594 81.5797 38.4194 82.2397 38.5594C82.9197 38.6994 83.4997 38.9194 83.9797 39.2194C84.4797 39.5194 84.8597 39.9394 85.1397 40.4394C85.4197 40.9394 85.5397 41.5794 85.5397 42.3194V45.3794C85.5397 46.2794 85.2997 46.9594 84.7997 47.4594C84.2997 47.9394 83.4797 48.2394 82.3397 48.3194C83.4797 48.4194 84.3197 48.6994 84.8597 49.1194C85.3997 49.5394 85.6597 50.1194 85.6597 50.8594V57.7394H81.3397ZM81.3397 41.9194C81.3397 41.1194 80.8997 40.7394 80.0197 40.7394C79.1397 40.7394 78.6997 41.1394 78.6997 41.9194V47.2994H79.6797C80.1997 47.2994 80.6197 47.1794 80.8997 46.9194C81.1997 46.6594 81.3397 46.2394 81.3397 45.6194V41.9194Z" fill="url(#paint10_linear_1452_1058)"/>
<path d="M87.3828 42.2798C87.3828 41.5398 87.5428 40.9198 87.8428 40.3998C88.1428 39.8798 88.5628 39.4798 89.0828 39.1798C89.6028 38.8798 90.2228 38.6598 90.9428 38.5398C91.6628 38.3998 92.4228 38.3398 93.2628 38.3398C94.0828 38.3398 94.8428 38.3998 95.5428 38.5398C96.2428 38.6798 96.8628 38.8998 97.3828 39.1998C97.9028 39.4998 98.3228 39.9198 98.6228 40.4198C98.9228 40.9198 99.0828 41.5598 99.0828 42.3198V54.3598C99.0828 55.1198 98.9228 55.7398 98.6228 56.2598C98.3228 56.7598 97.9028 57.1598 97.3828 57.4798C96.8628 57.7798 96.2428 57.9998 95.5428 58.1398C94.8428 58.2798 94.0828 58.3398 93.2628 58.3398C92.4228 58.3398 91.6628 58.2798 90.9428 58.1398C90.2228 57.9998 89.6028 57.7998 89.0828 57.4998C88.5628 57.1998 88.1428 56.7998 87.8428 56.2798C87.5428 55.7598 87.3828 55.1398 87.3828 54.3998V42.2798ZM94.5428 41.9198C94.5428 41.1198 94.1028 40.7198 93.2228 40.7198C92.3428 40.7198 91.9028 41.1198 91.9028 41.9198V54.7398C91.9028 55.5398 92.3428 55.9398 93.2228 55.9398C94.1028 55.9398 94.5428 55.5398 94.5428 54.7398V41.9198Z" fill="url(#paint11_linear_1452_1058)"/>
<defs>
<linearGradient id="paint0_linear_1452_1058" x1="1.59909" y1="54.9004" x2="7.28212" y2="55.802" gradientUnits="userSpaceOnUse">
<stop stop-color="#F8EEA4"/>
<stop offset="1" stop-color="#C7A008"/>
</linearGradient>
<linearGradient id="paint1_linear_1452_1058" x1="1.26667" y1="54.3398" x2="7.03907" y2="55.1389" gradientUnits="userSpaceOnUse">
<stop stop-color="#F8EEA4"/>
<stop offset="1" stop-color="#C7A008"/>
</linearGradient>
<linearGradient id="paint2_linear_1452_1058" x1="6.92659" y1="35.2695" x2="23.0222" y2="37.6986" gradientUnits="userSpaceOnUse">
<stop stop-color="#F8EEA4"/>
<stop offset="1" stop-color="#C7A008"/>
</linearGradient>
<linearGradient id="paint3_linear_1452_1058" x1="2.80549" y1="36.8691" x2="18.9011" y2="39.2982" gradientUnits="userSpaceOnUse">
<stop stop-color="#F8EEA4"/>
<stop offset="1" stop-color="#C7A008"/>
</linearGradient>
<linearGradient id="paint4_linear_1452_1058" x1="8.22881" y1="45.1602" x2="27.4552" y2="48.7331" gradientUnits="userSpaceOnUse">
<stop stop-color="#F8EEA4"/>
<stop offset="1" stop-color="#C7A008"/>
</linearGradient>
<linearGradient id="paint5_linear_1452_1058" x1="10.8694" y1="44.3008" x2="30.0958" y2="47.8737" gradientUnits="userSpaceOnUse">
<stop stop-color="#F8EEA4"/>
<stop offset="1" stop-color="#C7A008"/>
</linearGradient>
<linearGradient id="paint6_linear_1452_1058" x1="28.9196" y1="38.3594" x2="39.7297" y2="39.3058" gradientUnits="userSpaceOnUse">
<stop stop-color="#F8EEA4"/>
<stop offset="1" stop-color="#C7A008"/>
</linearGradient>
<linearGradient id="paint7_linear_1452_1058" x1="42.2476" y1="38.3398" x2="53.2618" y2="39.3216" gradientUnits="userSpaceOnUse">
<stop stop-color="#F8EEA4"/>
<stop offset="1" stop-color="#C7A008"/>
</linearGradient>
<linearGradient id="paint8_linear_1452_1058" x1="55.6604" y1="38.9004" x2="67.3899" y2="40.0487" gradientUnits="userSpaceOnUse">
<stop stop-color="#F8EEA4"/>
<stop offset="1" stop-color="#C7A008"/>
</linearGradient>
<linearGradient id="paint9_linear_1452_1058" x1="68.2557" y1="38.9004" x2="72.5203" y2="39.0509" gradientUnits="userSpaceOnUse">
<stop stop-color="#F8EEA4"/>
<stop offset="1" stop-color="#C7A008"/>
</linearGradient>
<linearGradient id="paint10_linear_1452_1058" x1="75.5993" y1="38.3594" x2="86.4094" y2="39.3058" gradientUnits="userSpaceOnUse">
<stop stop-color="#F8EEA4"/>
<stop offset="1" stop-color="#C7A008"/>
</linearGradient>
<linearGradient id="paint11_linear_1452_1058" x1="88.8296" y1="38.3398" x2="99.849" y2="39.2926" gradientUnits="userSpaceOnUse">
<stop stop-color="#F8EEA4"/>
<stop offset="1" stop-color="#C7A008"/>
</linearGradient>
</defs>
</svg>
