<svg width="100" height="100" viewBox="0 0 100 100" fill="none" xmlns="http://www.w3.org/2000/svg">
<path d="M51.7986 33.3411C51.9986 32.4211 51.7986 31.6811 50.9586 31.3011C50.5986 31.1611 50.1986 31.0811 49.7386 31.0811C47.7586 31.0811 44.7586 32.3611 41.7186 34.3411C38.3786 36.4611 31.8386 42.8011 30.7986 47.6211C30.6786 48.2011 30.6386 48.7211 30.6986 49.2411C30.8986 50.7011 31.7786 51.2411 33.0186 51.2411C36.1386 51.2411 41.4986 47.6411 43.9386 46.0611C45.0186 45.3411 46.1786 44.6611 47.0586 44.4211H47.1786C48.0586 44.4211 48.0386 45.5611 47.8786 46.3211C47.8186 46.5811 47.7586 46.8011 47.6986 46.9011C49.1186 46.2211 48.9786 46.2411 50.5986 45.5211L50.6586 45.7011C48.8386 46.5211 49.0586 46.5411 47.4986 47.3011C45.1186 52.0611 38.4786 60.2411 32.8386 63.0011C31.9386 63.3611 30.8986 63.5811 29.9786 63.5811C28.4786 63.5811 27.2786 62.9411 27.6386 61.2611C27.6986 60.9811 27.7986 60.6611 27.9786 60.3011C28.7786 58.5411 30.8986 56.3411 35.0386 53.6411C37.6386 51.9611 40.9786 50.1011 45.3586 47.9811C45.7186 47.4011 46.2386 46.5611 46.4386 46.1611C46.1186 46.3211 45.5986 46.6811 44.7786 47.2211C41.9986 49.0611 35.9386 52.9611 32.0786 52.9611C30.2786 52.9611 28.9386 52.1211 28.6586 49.7811C28.6186 49.2411 28.6786 48.7011 28.7986 48.1411C29.9586 42.7011 37.3586 36.6611 41.5186 33.9811C44.6586 31.9611 47.7386 30.6211 49.8386 30.6211C50.3586 30.6211 50.8186 30.7011 51.1986 30.8811C52.1786 31.3211 52.3986 32.1611 52.1786 33.1611C51.5386 36.2011 46.7786 40.8211 46.7586 40.8411L46.6786 40.7611C46.7186 40.7811 51.1786 36.2211 51.7986 33.3411ZM35.2186 54.0011C31.1786 56.6411 29.1386 58.7411 28.3586 60.4211C28.1986 60.7611 28.0986 61.0411 28.0386 61.3211C27.7786 62.5211 28.4986 62.9411 29.5586 62.9411C30.4186 62.9411 31.5386 62.6411 32.4786 62.2611C36.2386 60.5011 42.6986 52.0811 44.9586 48.5811C40.8786 50.6011 37.6786 52.4011 35.2186 54.0011Z" fill="url(#paint0_linear_1452_851)"/>
<path d="M55.2005 44.7586C54.8405 44.7586 54.3005 44.8786 53.3805 45.3386C51.8205 46.1386 51.2205 46.8386 51.1405 47.1786C51.1205 47.2786 51.1405 47.3386 51.1805 47.3786C51.2005 47.3986 51.2405 47.3986 51.2605 47.3986C51.6605 47.3986 53.3605 46.4786 54.2405 46.1786C54.5005 46.0986 54.6805 46.0586 54.8405 46.0586C55.2405 46.0586 55.2805 46.3586 55.3005 46.7986C55.3605 47.1186 55.5005 47.2786 55.8205 47.2786C56.0805 47.2786 56.4605 47.1786 57.0005 46.9786C58.2605 46.5186 59.9405 45.2586 59.9405 45.2586C59.9405 45.2586 60.0005 45.2386 60.0205 45.2386C60.0605 45.2386 60.0805 45.2386 60.0605 45.2786L60.0405 45.3186C59.9805 45.4386 57.7805 47.2586 56.3205 47.7586C55.8605 47.9186 55.5005 47.9786 55.2205 47.9786C54.6405 47.9786 54.4405 47.6986 54.3605 47.3386C54.3205 47.1786 54.2205 47.0986 54.0805 47.0986C53.7605 47.0986 53.2405 47.4386 52.5805 47.7586C51.9805 48.0986 50.7405 48.5786 49.8605 48.5786C49.3805 48.5786 48.9805 48.4386 48.8405 48.0386C48.7605 47.7986 48.7405 47.5186 48.8005 47.2386C49.0005 46.2586 50.0805 45.1386 51.3205 44.2386C52.4605 43.3986 53.6805 43.0586 54.5605 43.0586C54.9205 43.0586 55.2205 43.1186 55.4405 43.2186C55.9605 43.4786 56.1805 43.9786 56.1005 44.3986C56.0605 44.5986 55.9405 44.7786 55.7205 44.9386C55.7405 44.9386 55.6405 44.7586 55.2005 44.7586Z" fill="url(#paint1_linear_1452_851)"/>
<path d="M60.6593 44.4789C60.9393 44.4789 61.1793 44.5989 61.2193 44.6989C61.2393 44.7189 61.2193 44.7589 61.2193 44.7789C61.1593 45.0389 60.6593 45.6389 60.2993 46.3189C60.1593 46.5589 60.0593 46.7789 60.0193 46.9589C59.9593 47.2789 60.0793 47.4589 60.5593 47.4589C60.6793 47.4589 60.8593 47.4389 61.0593 47.3989C62.3793 47.1589 64.1993 45.6989 64.4993 45.5589C64.5993 45.4989 64.6593 45.4789 64.6793 45.4789C64.7393 45.4789 64.7193 45.5189 64.7193 45.5389V45.5589C62.8593 47.2389 60.8993 48.1389 59.7593 48.1389C59.3793 48.1389 59.0993 48.0389 58.9393 47.8189C58.7993 47.6189 58.7793 47.3189 58.8593 46.9989C59.0793 45.9989 60.0193 44.7189 60.0193 44.7189C60.2193 44.5589 60.4393 44.4789 60.6593 44.4789ZM62.3193 41.8789H62.3793C62.6193 41.8789 62.7993 42.0189 62.7393 42.2589C62.7193 42.3589 62.6593 42.4589 62.5593 42.5789C62.3193 42.8789 61.7593 43.1789 61.4393 43.1789C61.3193 43.1789 61.2193 43.1189 61.1993 42.9989C61.1993 42.9389 61.1993 42.8989 61.2193 42.8589C61.2993 42.4789 61.8193 42.0589 61.8193 42.0589C61.8193 42.0589 61.9593 41.9189 62.3193 41.8789Z" fill="url(#paint2_linear_1452_851)"/>
<path d="M70.7404 38.7406C70.7004 38.9406 70.5404 39.1806 70.3004 39.4406C69.7804 40.0206 67.3604 42.5806 65.8004 44.6206C65.6004 44.9006 65.2404 45.4006 65.0404 45.7006C66.5004 44.6006 69.4204 42.3206 70.1004 41.9206C70.3404 41.7806 70.5004 41.7206 70.6204 41.7206C70.9604 41.7206 71.0204 42.0806 70.9604 42.3606C70.9404 42.4606 70.9004 42.5206 70.8804 42.6006C70.6404 42.9806 69.0804 43.2606 68.1604 43.9606C67.4604 44.5006 65.6604 46.0006 64.7604 46.6006V46.6206C64.7404 46.6806 64.8204 46.6806 64.9204 46.6806H65.0604C66.3404 46.7006 71.3604 46.8006 71.3604 47.1006C71.3204 47.2806 67.8404 47.3606 65.6604 47.3606C64.9204 47.3606 64.3404 47.3606 64.0804 47.3406C62.9404 48.9606 62.0204 50.5806 61.5204 51.1206C61.2804 51.4006 61.0404 51.5006 60.8204 51.5006C60.6204 51.5006 60.4404 51.3806 60.3604 51.1806C60.3004 51.0806 60.3004 50.9806 60.3404 50.8206C60.4404 50.3606 60.9204 49.5806 61.7804 48.2406C63.5404 45.5206 66.4404 41.8606 68.6804 39.2406C69.1204 38.6806 69.0804 38.5806 69.5204 38.3006C69.7604 38.1606 69.9604 38.1406 70.1004 38.1406C70.2204 38.1406 70.2804 38.1606 70.2804 38.1606C70.6804 38.3006 70.8004 38.5006 70.7404 38.7406Z" fill="url(#paint3_linear_1452_851)"/>
<path d="M73.1367 42.4199C73.3967 42.4199 73.5767 42.5599 73.6567 42.7199C73.6767 42.7799 73.6767 42.8399 73.6367 42.9399C73.5367 43.3999 72.9567 44.2599 72.3967 45.1199C71.8167 45.9799 70.8367 47.4199 70.7767 47.6599C70.7767 47.6999 70.7967 47.6999 70.7967 47.6999H70.8367C71.0767 47.5799 74.2367 44.1399 74.8767 44.1399H74.9367C75.2567 44.2399 75.2967 44.5399 75.1967 44.9999C75.1167 45.3399 74.9967 45.7199 74.8167 46.1399C74.7367 46.2999 74.6967 46.4599 74.6767 46.5599C74.6167 46.7999 74.6767 46.9199 74.7967 46.9199C74.9767 46.9199 75.3367 46.6599 75.7967 46.1599C76.7367 45.1599 77.1767 44.2799 77.1767 44.2799C77.1767 44.2799 76.9167 43.9999 77.0367 43.4399C77.0567 43.3399 77.0767 43.2399 77.1367 43.1199C77.2967 42.7399 77.5967 42.5399 77.8367 42.5399C78.0767 42.5399 78.2767 42.7199 78.2167 43.0199C78.1567 43.3199 77.9967 43.7199 77.6967 44.2399C77.9767 44.4999 78.3367 44.5799 78.6967 44.5799C79.1367 44.5799 79.5367 44.4599 79.6167 44.4399H79.6567C79.6967 44.4399 79.7167 44.4399 79.7167 44.4599C79.7167 44.4799 79.6767 44.5199 79.6767 44.5199C79.1967 44.7199 78.7967 44.7999 78.4567 44.7999C78.0367 44.7999 77.7367 44.6799 77.5367 44.5399C77.2167 45.0799 76.7567 45.7399 76.0967 46.4999C75.1167 47.6399 74.2167 48.1999 73.6967 48.1999C73.4167 48.1999 73.2567 48.0799 73.2367 47.7999C73.2167 47.6799 73.2167 47.4999 73.2567 47.3399C73.3967 46.6399 73.8767 45.7199 73.9367 45.4599C73.9367 45.4199 73.9567 45.3799 73.9167 45.3799L73.8767 45.4199C73.4967 45.7399 71.7367 47.5999 70.7767 48.7199C70.2767 49.2999 69.7167 49.5999 69.3367 49.5999C68.9767 49.5999 68.7567 49.3199 68.8367 48.7199V48.5999C69.1167 47.2999 71.9767 43.3599 71.9767 43.3599C72.3767 42.6399 72.7967 42.4199 73.1367 42.4199Z" fill="url(#paint4_linear_1452_851)"/>
<path d="M83.7005 44.7586C83.3405 44.7586 82.8005 44.8786 81.8805 45.3386C80.3205 46.1386 79.7205 46.8386 79.6405 47.1786C79.6205 47.2786 79.6405 47.3386 79.6805 47.3786C79.7005 47.3986 79.7405 47.3986 79.7605 47.3986C80.1605 47.3986 81.8605 46.4786 82.7405 46.1786C83.0005 46.0986 83.1805 46.0586 83.3405 46.0586C83.7405 46.0586 83.7805 46.3586 83.8005 46.7986C83.8605 47.1186 84.0005 47.2786 84.3205 47.2786C84.5805 47.2786 84.9605 47.1786 85.5005 46.9786C86.7605 46.5186 88.4405 45.2586 88.4405 45.2586C88.4405 45.2586 88.5005 45.2386 88.5205 45.2386C88.5605 45.2386 88.5805 45.2386 88.5605 45.2786L88.5405 45.3186C88.4805 45.4386 86.2805 47.2586 84.8205 47.7586C84.3605 47.9186 84.0005 47.9786 83.7205 47.9786C83.1405 47.9786 82.9405 47.6986 82.8605 47.3386C82.8205 47.1786 82.7205 47.0986 82.5805 47.0986C82.2605 47.0986 81.7405 47.4386 81.0805 47.7586C80.4805 48.0986 79.2405 48.5786 78.3605 48.5786C77.8805 48.5786 77.4805 48.4386 77.3405 48.0386C77.2605 47.7986 77.2405 47.5186 77.3005 47.2386C77.5005 46.2586 78.5805 45.1386 79.8205 44.2386C80.9605 43.3986 82.1805 43.0586 83.0605 43.0586C83.4205 43.0586 83.7205 43.1186 83.9405 43.2186C84.4605 43.4786 84.6805 43.9786 84.6005 44.3986C84.5605 44.5986 84.4405 44.7786 84.2205 44.9386C84.2605 44.9386 84.1405 44.7586 83.7005 44.7586Z" fill="url(#paint5_linear_1452_851)"/>
<path d="M97.7803 39.0599C98.1003 38.6399 98.4003 38.4199 98.7003 38.4199C98.8203 38.4199 98.9603 38.4799 99.1003 38.5599C99.3003 38.7199 99.3003 39.0399 99.2403 39.2999C99.1803 39.5399 99.1203 39.7199 99.1203 39.7199C99.1203 39.7199 93.4803 46.8399 92.7203 47.7999C92.5203 48.0599 92.4003 48.2399 92.3803 48.3799C92.3603 48.4999 92.4003 48.5399 92.5203 48.5399C92.7403 48.5399 93.2203 48.3199 93.9203 47.8799C95.3803 46.9399 96.8203 45.8999 97.2003 45.5999C97.3803 45.4599 97.4603 45.4199 97.5203 45.4199C97.5603 45.4199 97.5603 45.4599 97.5603 45.4599L97.3803 45.6399C95.0403 47.7599 92.5003 49.6799 91.3603 49.6799C91.1203 49.6799 90.9403 49.5799 90.8403 49.3999C90.7403 49.1999 90.7203 48.9599 90.7603 48.6999C91.0003 47.5599 92.5203 46.0599 92.5203 46.0599C92.5203 46.0599 89.5003 48.0599 87.9803 48.8399C87.5803 49.0399 87.2403 49.1399 86.9403 49.1399C86.3603 49.1399 86.0203 48.7599 86.1603 48.0799C86.2203 47.7799 86.4003 47.4199 86.6803 46.9999C87.9203 45.2199 89.9203 43.6599 91.6803 43.5199C91.8203 43.4999 91.9403 43.4999 92.0603 43.4999C93.5203 43.4999 93.7603 44.3599 93.7603 44.3599C93.7603 44.3599 97.3003 39.6799 97.7803 39.0599ZM92.5203 44.6199C92.2403 44.6199 91.9003 44.6799 91.4803 44.8599C90.2803 45.3799 88.2203 47.0599 88.1403 47.5399C88.1203 47.6199 88.1803 47.6599 88.2603 47.6599C88.9603 47.6599 90.2003 46.8199 91.4003 46.1799C92.5803 45.5799 92.9803 45.2999 92.9803 45.2999L93.3203 44.9199C93.3203 44.8999 93.0803 44.6199 92.5203 44.6199Z" fill="url(#paint6_linear_1452_851)"/>
<path d="M36.4381 31.5405C36.5181 31.2005 36.4981 30.9405 36.4581 30.7205C36.2781 30.1205 35.6381 29.8605 34.7181 29.8605C30.1981 29.8605 18.4181 35.9605 15.4781 39.6005C15.1981 39.9605 15.0181 40.3005 14.9381 40.6605C14.2781 43.7805 20.9781 47.2205 22.5181 50.2005C24.8781 49.5805 25.7581 49.3805 28.5781 48.7605H28.6181C28.7581 48.7605 28.8181 48.8405 28.7981 48.9205C28.7781 49.0205 28.6781 49.1205 28.5581 49.1405C25.7781 49.7405 25.0381 50.0205 22.6981 50.6005C23.2381 52.3205 23.3381 53.8405 23.0581 55.1405C22.3781 58.3605 19.3781 60.3205 15.2381 61.5405C12.3181 62.3605 9.41809 62.7805 7.01809 62.7805C3.23809 62.7805 0.638093 61.8005 0.998093 60.1205C1.11809 59.5205 1.59809 58.8205 2.57809 58.0605C5.21809 55.9005 9.93809 53.5205 19.8381 50.8405C18.2381 48.1205 15.0581 46.9005 13.4181 43.8605C12.8981 42.9805 12.6381 41.9605 12.8581 40.9205C13.1181 39.7405 13.9981 38.4605 15.8181 37.2405C19.7781 34.4405 29.8381 29.4805 34.6581 29.4805C35.8981 29.4805 36.7781 29.7805 37.1581 30.5605C37.4381 31.1605 37.4781 31.8205 37.3381 32.5205C36.5781 36.1205 30.9781 40.8405 28.3781 41.0205C28.2781 41.0605 28.2181 41.0605 28.1781 41.0605C28.0781 41.0605 28.0781 41.0205 28.0781 40.9605C28.0981 40.8805 28.1581 40.8005 28.2781 40.7205C30.5181 39.9805 35.8581 34.3005 36.4381 31.5405ZM3.09809 58.3405C2.23809 59.0205 1.81809 59.6005 1.71809 60.1005C1.43809 61.4005 3.45809 62.0605 6.27809 62.0605C11.5981 62.0605 19.7781 59.7405 20.7581 55.0805C20.9981 54.0005 20.8381 52.7805 20.1581 51.4405C10.2581 54.1005 5.69809 56.2205 3.09809 58.3405Z" fill="url(#paint7_linear_1452_851)"/>
<path d="M6.39844 57.841C13.9984 56.541 21.6584 55.481 29.3184 54.601C31.2384 54.381 33.1584 54.181 35.0784 53.981L37.9584 53.701L40.8384 53.441C44.6784 53.101 48.5384 52.821 52.3984 52.581C56.2584 52.361 60.1184 52.201 63.9784 52.101C64.9384 52.081 65.9184 52.081 66.8784 52.061L68.3184 52.041H69.7584H71.1984H71.9184L72.6384 52.061L75.5384 52.121C79.3984 52.241 83.2584 52.461 87.1184 52.841L88.5584 53.001C89.0384 53.061 89.5184 53.101 89.9984 53.181C90.9584 53.321 91.9184 53.461 92.8584 53.601L95.7184 54.121L98.5384 54.761L95.6984 54.241L92.8384 53.821C91.8784 53.701 90.9184 53.601 89.9584 53.501C89.4784 53.441 88.9984 53.421 88.5184 53.381L87.0784 53.261C86.1184 53.161 85.1584 53.141 84.1984 53.081L82.7584 53.001L81.3184 52.941C80.3584 52.921 79.3984 52.861 78.4384 52.841L75.5584 52.781C67.8584 52.721 60.1384 52.981 52.4584 53.441C48.6184 53.661 44.7584 53.941 40.9184 54.241C37.0784 54.541 33.2384 54.901 29.3984 55.261C25.5584 55.641 21.7184 56.021 17.8984 56.461C15.9784 56.661 14.0584 56.881 12.1584 57.101L9.27844 57.441C8.29844 57.601 7.33844 57.701 6.39844 57.841Z" fill="url(#paint8_linear_1452_851)"/>
<defs>
<linearGradient id="paint0_linear_1452_851" x1="30.6264" y1="30.6211" x2="53.7634" y2="33.1819" gradientUnits="userSpaceOnUse">
<stop stop-color="#F8EEA4"/>
<stop offset="1" stop-color="#C7A008"/>
</linearGradient>
<linearGradient id="paint1_linear_1452_851" x1="50.1633" y1="43.0586" x2="59.9883" y2="46.0319" gradientUnits="userSpaceOnUse">
<stop stop-color="#F8EEA4"/>
<stop offset="1" stop-color="#C7A008"/>
</linearGradient>
<linearGradient id="paint2_linear_1452_851" x1="59.5433" y1="41.8789" x2="65.044" y2="42.6464" gradientUnits="userSpaceOnUse">
<stop stop-color="#F8EEA4"/>
<stop offset="1" stop-color="#C7A008"/>
</linearGradient>
<linearGradient id="paint3_linear_1452_851" x1="61.6786" y1="38.1406" x2="72.0074" y2="39.403" gradientUnits="userSpaceOnUse">
<stop stop-color="#F8EEA4"/>
<stop offset="1" stop-color="#C7A008"/>
</linearGradient>
<linearGradient id="paint4_linear_1452_851" x1="70.1677" y1="42.4199" x2="80.0118" y2="44.6279" gradientUnits="userSpaceOnUse">
<stop stop-color="#F8EEA4"/>
<stop offset="1" stop-color="#C7A008"/>
</linearGradient>
<linearGradient id="paint5_linear_1452_851" x1="78.6633" y1="43.0586" x2="88.4883" y2="46.0319" gradientUnits="userSpaceOnUse">
<stop stop-color="#F8EEA4"/>
<stop offset="1" stop-color="#C7A008"/>
</linearGradient>
<linearGradient id="paint6_linear_1452_851" x1="87.7545" y1="38.4199" x2="99.8681" y2="40.5102" gradientUnits="userSpaceOnUse">
<stop stop-color="#F8EEA4"/>
<stop offset="1" stop-color="#C7A008"/>
</linearGradient>
<linearGradient id="paint7_linear_1452_851" x1="5.47231" y1="29.4805" x2="39.178" y2="34.9335" gradientUnits="userSpaceOnUse">
<stop stop-color="#F8EEA4"/>
<stop offset="1" stop-color="#C7A008"/>
</linearGradient>
<linearGradient id="paint8_linear_1452_851" x1="17.7921" y1="52.041" x2="31.2165" y2="83.5604" gradientUnits="userSpaceOnUse">
<stop stop-color="#F8EEA4"/>
<stop offset="1" stop-color="#C7A008"/>
</linearGradient>
</defs>
</svg>
